<svg width="350" height="120" xmlns="http://www.w3.org/2000/svg">
<g fill="#003773">
  <g>
   <g>
    <g>
     <g>
      <g>
       <path d="m98.914204,97.766161l-2.045739,0c-0.383576,0 -0.511435,-0.511435 -0.255717,-0.767152l0.639293,-0.511435c0.511435,-0.383576 1.150728,-0.639293 1.790022,-0.639293l2.045739,0c0.383576,0 0.511435,0.511435 0.255717,0.767152l-0.639293,0.511435c-0.639293,0.511435 -1.150728,0.639293 -1.790022,0.639293"/>
       <path d="m101.471378,94.95327l-2.045739,0.127859c-0.383576,0 -0.639293,-0.511435 -0.255717,-0.767152l0.511435,-0.511435c0.511435,-0.511435 1.02287,-0.767152 1.662163,-0.767152l2.045739,-0.127859c0.383576,0 0.639293,0.511435 0.255717,0.767152l-0.511435,0.511435c-0.383576,0.511435 -1.02287,0.767152 -1.662163,0.767152"/>
       <path d="m103.900693,92.01252l-2.045739,0.255717c-0.383576,0 -0.639293,-0.383576 -0.383576,-0.767152l0.511435,-0.639293c0.383576,-0.511435 1.02287,-0.767152 1.662163,-0.895011l2.045739,-0.255717c0.383576,0 0.639293,0.383576 0.383576,0.767152l-0.511435,0.639293c-0.383576,0.383576 -1.02287,0.767152 -1.662163,0.895011"/>
       <path d="m106.202149,88.816053l-1.91788,0.383576c-0.383576,0.127859 -0.639293,-0.383576 -0.383576,-0.767152l0.511435,-0.639293c0.383576,-0.511435 0.895011,-0.895011 1.534304,-1.02287l1.91788,-0.383576c0.383576,-0.127859 0.639293,0.383576 0.383576,0.767152l-0.511435,0.639293c-0.383576,0.511435 -0.895011,0.895011 -1.534304,1.02287"/>
       <path d="m108.12003,85.491727l-1.91788,0.511435c-0.383576,0.127859 -0.639293,-0.383576 -0.511435,-0.639293l0.383576,-0.639293c0.383576,-0.511435 0.895011,-0.895011 1.534304,-1.150728l1.91788,-0.511435c0.383576,-0.127859 0.639293,0.383576 0.511435,0.639293l-0.383576,0.639293c-0.383576,0.511435 -0.895011,0.895011 -1.534304,1.150728"/>
       <path d="m109.910052,82.039542l-1.91788,0.639293c-0.383576,0.127859 -0.767152,-0.255717 -0.511435,-0.639293l0.383576,-0.639293c0.383576,-0.511435 0.767152,-1.02287 1.406446,-1.278587l1.91788,-0.639293c0.383576,-0.127859 0.767152,0.255717 0.511435,0.639293l-0.383576,0.639293c-0.255717,0.639293 -0.767152,1.02287 -1.406446,1.278587"/>
       <path d="m111.444356,78.459498l-1.790022,0.767152c-0.383576,0.127859 -0.767152,-0.255717 -0.511435,-0.639293l0.383576,-0.639293c0.255717,-0.639293 0.767152,-1.02287 1.278587,-1.278587l1.790022,-0.767152c0.383576,-0.127859 0.767152,0.255717 0.511435,0.639293l-0.383576,0.639293c-0.255717,0.511435 -0.767152,1.02287 -1.278587,1.278587"/>
       <path d="m112.722943,74.751596l-1.790022,0.895011c-0.383576,0.127859 -0.767152,-0.255717 -0.639293,-0.511435l0.255717,-0.767152c0.255717,-0.639293 0.639293,-1.150728 1.278587,-1.406446l1.790022,-0.895011c0.383576,-0.127859 0.767152,0.255717 0.639293,0.511435l-0.255717,0.767152c-0.255717,0.639293 -0.767152,1.150728 -1.278587,1.406446"/>
       <path d="m113.745812,71.043694l-1.662163,1.02287c-0.383576,0.255717 -0.767152,-0.127859 -0.639293,-0.511435l0.255717,-0.767152c0.255717,-0.639293 0.639293,-1.150728 1.150728,-1.534304l1.662163,-1.02287c0.383576,-0.255717 0.767152,0.127859 0.639293,0.511435l-0.255717,0.767152c-0.255717,0.639293 -0.639293,1.150728 -1.150728,1.534304"/>
       <path d="m114.385106,67.207933l-1.662163,1.150728c-0.255717,0.255717 -0.767152,-0.127859 -0.639293,-0.511435l0.127859,-0.767152c0.127859,-0.639293 0.511435,-1.150728 1.02287,-1.534304l1.662163,-1.150728c0.255717,-0.255717 0.767152,0.127859 0.639293,0.511435l-0.127859,0.767152c-0.127859,0.639293 -0.511435,1.150728 -1.02287,1.534304"/>
       <path d="m114.896541,63.372172l-1.534304,1.278587c-0.255717,0.255717 -0.767152,0 -0.767152,-0.383576l0.127859,-0.767152c0.127859,-0.639293 0.383576,-1.278587 0.895011,-1.662163l1.534304,-1.278587c0.255717,-0.255717 0.767152,0 0.639293,0.383576l-0.127859,0.767152c0,0.639293 -0.255717,1.150728 -0.767152,1.662163"/>
       <path d="m115.152258,59.408553l-1.406446,1.406446c-0.255717,0.255717 -0.767152,0 -0.767152,-0.383576l0.127859,-0.767152c0,-0.639293 0.383576,-1.278587 0.767152,-1.662163l1.406446,-1.406446c0.255717,-0.255717 0.767152,0 0.767152,0.383576l-0.127859,0.767152c-0.127859,0.639293 -0.383576,1.278587 -0.767152,1.662163"/>
       <path d="m115.024399,55.572792l-1.406446,1.534304c-0.255717,0.255717 -0.767152,0.127859 -0.767152,-0.383576l0,-0.767152c0,-0.639293 0.255717,-1.278587 0.639293,-1.790022l1.406446,-1.534304c0.255717,-0.255717 0.767152,-0.127859 0.767152,0.383576l0,0.767152c0,0.767152 -0.255717,1.278587 -0.639293,1.790022"/>
       <path d="m114.640823,51.737031l-1.278587,1.534304c-0.255717,0.255717 -0.767152,0.127859 -0.767152,-0.255717l0,-0.767152c0,-0.639293 0.127859,-1.278587 0.511435,-1.790022l1.278587,-1.534304c0.255717,-0.255717 0.767152,-0.127859 0.767152,0.255717l0,0.767152c0.127859,0.639293 -0.127859,1.278587 -0.511435,1.790022"/>
       <path d="m114.129388,47.901271l-1.150728,1.662163c-0.255717,0.383576 -0.767152,0.127859 -0.767152,-0.255717l-0.127859,-0.767152c-0.127859,-0.639293 0.127859,-1.278587 0.383576,-1.790022l1.150728,-1.662163c0.255717,-0.383576 0.767152,-0.127859 0.767152,0.255717l0.127859,0.767152c0.127859,0.639293 -0.127859,1.278587 -0.383576,1.790022"/>
       <path d="m113.234378,44.06551l-1.02287,1.790022c-0.255717,0.383576 -0.767152,0.255717 -0.767152,-0.127859l-0.127859,-0.767152c-0.127859,-0.639293 0,-1.278587 0.255717,-1.790022l1.02287,-1.790022c0.255717,-0.383576 0.767152,-0.255717 0.767152,0.127859l0.127859,0.767152c0.127859,0.639293 0,1.278587 -0.255717,1.790022"/>
       <path d="m112.083649,40.357608l-0.895011,1.790022c-0.127859,0.383576 -0.767152,0.255717 -0.767152,-0.127859l-0.255717,-0.767152c-0.127859,-0.639293 -0.127859,-1.278587 0.127859,-1.91788l0.895011,-1.790022c0.127859,-0.383576 0.767152,-0.255717 0.767152,0.127859l0.255717,0.767152c0.127859,0.767152 0.127859,1.406446 -0.127859,1.91788"/>
       <path d="m110.677204,36.777564l-0.767152,1.91788c-0.127859,0.383576 -0.639293,0.383576 -0.767152,0l-0.255717,-0.767152c-0.255717,-0.639293 -0.255717,-1.278587 0,-1.91788l0.767152,-1.91788c0.127859,-0.383576 0.639293,-0.383576 0.767152,0l0.255717,0.767152c0.255717,0.639293 0.255717,1.278587 0,1.91788"/>
       <path d="m109.015041,33.197521l-0.639293,1.91788c-0.127859,0.383576 -0.639293,0.383576 -0.767152,0l-0.255717,-0.767152c-0.255717,-0.639293 -0.255717,-1.278587 -0.127859,-1.91788l0.639293,-1.91788c0.127859,-0.383576 0.639293,-0.383576 0.767152,0l0.255717,0.767152c0.255717,0.767152 0.383576,1.406446 0.127859,1.91788"/>
       <path d="m107.09716,29.873195l-0.511435,1.91788c-0.127859,0.383576 -0.639293,0.383576 -0.767152,0l-0.383576,-0.639293c-0.255717,-0.639293 -0.383576,-1.278587 -0.255717,-1.790022l0.511435,-1.91788c0.127859,-0.383576 0.639293,-0.383576 0.767152,0l0.383576,0.639293c0.383576,0.511435 0.511435,1.150728 0.255717,1.790022"/>
       <path d="m105.051421,26.548869l-0.383576,2.045739c-0.127859,0.383576 -0.639293,0.511435 -0.767152,0.127859l-0.383576,-0.639293c-0.383576,-0.511435 -0.511435,-1.150728 -0.383576,-1.790022l0.383576,-2.045739c0.127859,-0.383576 0.639293,-0.511435 0.767152,-0.127859l0.383576,0.639293c0.383576,0.639293 0.511435,1.278587 0.383576,1.790022"/>
       <path d="m102.622106,23.48026l-0.127859,2.045739c0,0.383576 -0.639293,0.511435 -0.767152,0.127859l-0.383576,-0.639293c-0.383576,-0.511435 -0.511435,-1.150728 -0.511435,-1.790022l0.255717,-2.045739c0,-0.383576 0.639293,-0.511435 0.767152,-0.127859l0.383576,0.639293c0.383576,0.511435 0.511435,1.150728 0.383576,1.790022"/>
       <path d="m100.192791,20.53951l-0.127859,2.045739c0,0.383576 -0.511435,0.511435 -0.767152,0.255717l-0.511435,-0.639293c-0.383576,-0.511435 -0.639293,-1.150728 -0.639293,-1.790022l0.127859,-2.045739c0,-0.383576 0.511435,-0.511435 0.767152,-0.255717l0.511435,0.639293c0.383576,0.639293 0.639293,1.150728 0.639293,1.790022"/>
       <path d="m97.3799,17.854478l0.127859,2.045739c0,0.383576 -0.511435,0.639293 -0.767152,0.255717l-0.511435,-0.511435c-0.383576,-0.511435 -0.639293,-1.150728 -0.767152,-1.662163l-0.127859,-2.045739c0,-0.383576 0.511435,-0.639293 0.767152,-0.255717l0.511435,0.511435c0.511435,0.383576 0.767152,1.02287 0.767152,1.662163"/>
       <path d="m94.43915,15.297304l0.255717,2.045739c0,0.383576 -0.511435,0.639293 -0.767152,0.383576l-0.511435,-0.511435c-0.511435,-0.383576 -0.767152,-1.02287 -0.895011,-1.662163l-0.255717,-2.045739c0,-0.383576 0.511435,-0.639293 0.767152,-0.383576l0.511435,0.511435c0.511435,0.511435 0.895011,1.02287 0.895011,1.662163"/>
       <path d="m91.370541,12.995847l0.383576,2.045739c0.127859,0.383576 -0.383576,0.639293 -0.767152,0.383576l-0.639293,-0.511435c-0.511435,-0.383576 -0.895011,-1.02287 -0.895011,-1.662163l-0.383576,-2.045739c-0.127859,-0.383576 0.383576,-0.639293 0.767152,-0.383576l0.639293,0.511435c0.383576,0.383576 0.767152,1.02287 0.895011,1.662163"/>
       <path d="m88.046215,10.822249l0.511435,1.91788c0.127859,0.383576 -0.383576,0.639293 -0.639293,0.383576l-0.639293,-0.383576c-0.511435,-0.383576 -0.895011,-0.895011 -1.02287,-1.534304l-0.511435,-1.91788c-0.127859,-0.383576 0.383576,-0.639293 0.639293,-0.383576l0.639293,0.383576c0.511435,0.383576 0.895011,1.02287 1.02287,1.534304"/>
       <path d="m84.721889,9.032228l0.639293,1.91788c0.127859,0.383576 -0.383576,0.639293 -0.639293,0.511435l-0.639293,-0.383576c-0.511435,-0.383576 -1.02287,-0.895011 -1.150728,-1.406446l-0.639293,-1.91788c-0.127859,-0.383576 0.383576,-0.639293 0.639293,-0.511435l0.639293,0.383576c0.511435,0.255717 0.895011,0.767152 1.150728,1.406446"/>
       <path d="m81.141845,7.370065l0.767152,1.91788c0.127859,0.383576 -0.255717,0.767152 -0.639293,0.511435l-0.639293,-0.383576c-0.639293,-0.255717 -1.02287,-0.767152 -1.278587,-1.406446l-0.767152,-1.91788c-0.127859,-0.383576 0.255717,-0.767152 0.639293,-0.511435l0.639293,0.383576c0.639293,0.255717 1.02287,0.767152 1.278587,1.406446"/>
       <path d="m77.561802,5.963619l0.895011,1.790022c0.127859,0.383576 -0.255717,0.767152 -0.639293,0.639293l-0.767152,-0.255717c-0.639293,-0.255717 -1.02287,-0.767152 -1.406446,-1.278587l-0.895011,-1.790022c-0.127859,-0.383576 0.255717,-0.767152 0.639293,-0.511435l0.767152,0.255717c0.639293,0.127859 1.150728,0.639293 1.406446,1.150728"/>
       <path d="m73.8539,4.812891l1.02287,1.790022c0.255717,0.383576 -0.127859,0.767152 -0.511435,0.639293l-0.767152,-0.255717c-0.639293,-0.255717 -1.150728,-0.639293 -1.406446,-1.150728l-1.02287,-1.790022c-0.255717,-0.383576 0.127859,-0.767152 0.511435,-0.639293l0.767152,0.255717c0.511435,0.255717 1.02287,0.639293 1.406446,1.150728"/>
       <path d="m70.018139,3.91788l1.150728,1.662163c0.255717,0.383576 -0.127859,0.767152 -0.511435,0.639293l-0.767152,-0.255717c-0.639293,-0.127859 -1.150728,-0.511435 -1.534304,-1.02287l-1.150728,-1.662163c-0.255717,-0.383576 0.127859,-0.767152 0.511435,-0.639293l0.767152,0.255717c0.639293,0.127859 1.150728,0.511435 1.534304,1.02287"/>
       <path d="m66.182378,3.406445l1.278587,1.534304c0.255717,0.255717 -0.127859,0.767152 -0.511435,0.639293l-0.767152,-0.127859c-0.639293,-0.127859 -1.150728,-0.511435 -1.662163,-1.02287l-1.278587,-1.534304c-0.255717,-0.255717 0.127859,-0.767152 0.511435,-0.639293l0.767152,0.127859c0.767152,0.127859 1.278587,0.511435 1.662163,1.02287"/>
       <path d="m62.346618,3.022869l1.406446,1.534304c0.255717,0.255717 0,0.767152 -0.383576,0.767152l-0.767152,-0.127859c-0.639293,-0.127859 -1.278587,-0.383576 -1.662163,-0.895011l-1.406446,-1.534304c-0.255717,-0.255717 0,-0.767152 0.383576,-0.767152l0.767152,0.127859c0.639293,0.127859 1.278587,0.383576 1.662163,0.895011"/>
       <path d="m58.510857,3.022869l1.406446,1.406446c0.255717,0.255717 0,0.767152 -0.383576,0.767152l-0.767152,0c-0.639293,0 -1.278587,-0.255717 -1.662163,-0.767152l-1.406446,-1.406446c-0.255717,-0.255717 0,-0.767152 0.383576,-0.767152l0.767152,0c0.511435,0 1.150728,0.255717 1.662163,0.767152"/>
       <path d="m54.547237,3.150728l1.534304,1.278587c0.255717,0.255717 0.127859,0.767152 -0.255717,0.767152l-0.767152,0c-0.639293,0 -1.278587,-0.255717 -1.790022,-0.639293l-1.534304,-1.278587c-0.255717,-0.255717 -0.127859,-0.767152 0.255717,-0.767152l0.767152,0c0.767152,0 1.406446,0.255717 1.790022,0.639293"/>
       <path d="m50.711476,3.662163l1.662163,1.150728c0.255717,0.255717 0.127859,0.767152 -0.255717,0.767152l-0.767152,0c-0.639293,0 -1.278587,-0.127859 -1.790022,-0.511435l-1.662163,-1.150728c-0.255717,-0.255717 -0.127859,-0.767152 0.255717,-0.767152l0.767152,0c0.639293,0 1.278587,0.127859 1.790022,0.511435"/>
       <path d="m46.875716,4.429315l1.662163,1.02287c0.383576,0.255717 0.255717,0.767152 -0.255717,0.767152l-0.767152,0.127859c-0.639293,0.127859 -1.278587,0 -1.790022,-0.383576l-1.662163,-1.02287c-0.383576,-0.255717 -0.255717,-0.767152 0.255717,-0.767152l0.767152,-0.127859c0.639293,-0.127859 1.278587,0 1.790022,0.383576"/>
       <path d="m43.167813,5.452184l1.790022,0.895011c0.383576,0.127859 0.255717,0.767152 -0.127859,0.767152l-0.767152,0.127859c-0.639293,0.127859 -1.278587,0 -1.790022,-0.255717l-1.790022,-0.895011c-0.383576,-0.127859 -0.255717,-0.767152 0.127859,-0.767152l0.767152,-0.127859c0.639293,-0.127859 1.278587,-0.127859 1.790022,0.255717"/>
       <path d="m39.459911,6.602912l1.790022,0.767152c0.383576,0.127859 0.255717,0.767152 -0.127859,0.767152l-0.767152,0.255717c-0.639293,0.127859 -1.278587,0.127859 -1.91788,-0.127859l-1.790022,-0.767152c-0.383576,-0.127859 -0.255717,-0.767152 0.127859,-0.767152l0.767152,-0.255717c0.767152,-0.127859 1.406446,-0.127859 1.91788,0.127859"/>
       <path d="m35.879868,8.137217l1.91788,0.639293c0.383576,0.127859 0.383576,0.639293 0,0.767152l-0.767152,0.255717c-0.639293,0.255717 -1.278587,0.255717 -1.91788,0l-1.91788,-0.639293c-0.383576,-0.127859 -0.383576,-0.639293 0,-0.767152l0.767152,-0.255717c0.767152,-0.127859 1.406446,-0.127859 1.91788,0"/>
       <path d="m32.427683,9.927239l1.91788,0.511435c0.383576,0.127859 0.383576,0.639293 0,0.767152l-0.639293,0.383576c-0.639293,0.255717 -1.278587,0.383576 -1.91788,0.127859l-1.91788,-0.511435c-0.383576,-0.127859 -0.383576,-0.639293 0,-0.767152l0.639293,-0.383576c0.767152,-0.255717 1.406446,-0.255717 1.91788,-0.127859"/>
       <path d="m29.103357,11.972978l1.91788,0.383576c0.383576,0.127859 0.383576,0.639293 0.127859,0.767152l-0.639293,0.383576c-0.511435,0.255717 -1.278587,0.383576 -1.790022,0.255717l-1.91788,-0.383576c-0.383576,-0.127859 -0.383576,-0.639293 -0.127859,-0.767152l0.639293,-0.383576c0.511435,-0.255717 1.278587,-0.383576 1.790022,-0.255717"/>
       <path d="m26.034748,14.146575l2.045739,0.255717c0.383576,0 0.511435,0.639293 0.127859,0.767152l-0.639293,0.383576c-0.511435,0.383576 -1.150728,0.511435 -1.790022,0.383576l-2.045739,-0.255717c-0.383576,0 -0.511435,-0.639293 -0.127859,-0.767152l0.639293,-0.383576c0.511435,-0.255717 1.150728,-0.383576 1.790022,-0.383576"/>
       <path d="m22.96614,16.575891l2.045739,0.127859c0.383576,0 0.511435,0.511435 0.255717,0.767152l-0.639293,0.511435c-0.511435,0.383576 -1.150728,0.639293 -1.790022,0.511435l-2.045739,-0.127859c-0.383576,0 -0.511435,-0.511435 -0.255717,-0.767152l0.639293,-0.511435c0.511435,-0.255717 1.150728,-0.511435 1.790022,-0.511435"/>
       <path d="m20.153249,19.260923l2.045739,0c0.383576,0 0.511435,0.511435 0.255717,0.767152l-0.639293,0.511435c-0.511435,0.383576 -1.150728,0.639293 -1.790022,0.639293l-1.91788,0c-0.383576,0 -0.511435,-0.511435 -0.255717,-0.767152l0.639293,-0.511435c0.383576,-0.383576 1.02287,-0.639293 1.662163,-0.639293"/>
       <path d="m17.468216,22.073814l2.045739,-0.127859c0.383576,0 0.639293,0.511435 0.255717,0.767152l-0.511435,0.511435c-0.511435,0.511435 -1.02287,0.767152 -1.662163,0.767152l-2.045739,0.255717c-0.383576,0 -0.639293,-0.511435 -0.255717,-0.767152l0.511435,-0.511435c0.383576,-0.511435 1.02287,-0.767152 1.662163,-0.895011"/>
       <path d="m15.038901,25.142423l2.045739,-0.255717c0.383576,0 0.639293,0.383576 0.383576,0.767152l-0.511435,0.639293c-0.383576,0.511435 -1.02287,0.767152 -1.662163,0.895011l-2.045739,0.255717c-0.383576,0 -0.639293,-0.383576 -0.383576,-0.767152l0.511435,-0.639293c0.511435,-0.511435 1.02287,-0.767152 1.662163,-0.895011"/>
       <path d="m12.865303,28.33889l1.91788,-0.383576c0.383576,-0.127859 0.639293,0.383576 0.383576,0.767152l-0.511435,0.639293c-0.383576,0.511435 -0.895011,0.895011 -1.534304,1.02287l-1.91788,0.383576c-0.383576,0.127859 -0.639293,-0.383576 -0.383576,-0.767152l0.511435,-0.639293c0.255717,-0.511435 0.895011,-0.895011 1.534304,-1.02287"/>
       <path d="m10.819564,31.663216l1.91788,-0.511435c0.383576,-0.127859 0.639293,0.383576 0.511435,0.639293l-0.383576,0.639293c-0.383576,0.511435 -0.895011,0.895011 -1.534304,1.150728l-1.91788,0.511435c-0.383576,0.127859 -0.639293,-0.383576 -0.511435,-0.639293l0.383576,-0.639293c0.383576,-0.639293 0.895011,-1.02287 1.534304,-1.150728"/>
       <path d="m9.029542,35.115401l1.91788,-0.639293c0.383576,-0.127859 0.767152,0.255717 0.511435,0.639293l-0.383576,0.639293c-0.383576,0.511435 -0.767152,1.02287 -1.406446,1.278587l-1.91788,0.639293c-0.383576,0.127859 -0.767152,-0.255717 -0.511435,-0.639293l0.383576,-0.639293c0.383576,-0.639293 0.895011,-1.02287 1.406446,-1.278587"/>
       <path d="m7.495238,38.695445l1.790022,-0.767152c0.383576,-0.127859 0.767152,0.255717 0.511435,0.639293l-0.383576,0.639293c-0.255717,0.639293 -0.767152,1.02287 -1.278587,1.278587l-1.790022,0.767152c-0.383576,0.127859 -0.767152,-0.255717 -0.511435,-0.639293l0.383576,-0.639293c0.255717,-0.511435 0.767152,-1.02287 1.278587,-1.278587"/>
       <path d="m6.34451,42.403347l1.790022,-0.895011c0.383576,-0.127859 0.767152,0.255717 0.639293,0.511435l-0.255717,0.767152c-0.255717,0.639293 -0.639293,1.150728 -1.278587,1.406446l-1.790022,0.895011c-0.383576,0.127859 -0.767152,-0.255717 -0.639293,-0.511435l0.255717,-0.767152c0.255717,-0.639293 0.639293,-1.150728 1.278587,-1.406446"/>
       <path d="m5.32164,46.111249l1.662163,-1.02287c0.383576,-0.255717 0.767152,0.127859 0.639293,0.511435l-0.255717,0.767152c-0.255717,0.639293 -0.639293,1.150728 -1.150728,1.534304l-1.662163,1.02287c-0.383576,0.255717 -0.767152,-0.127859 -0.639293,-0.511435l0.255717,-0.767152c0.127859,-0.639293 0.639293,-1.150728 1.150728,-1.534304"/>
       <path d="m4.554488,49.94701l1.662163,-1.150728c0.255717,-0.255717 0.767152,0.127859 0.639293,0.511435l-0.127859,0.767152c-0.127859,0.639293 -0.511435,1.150728 -1.02287,1.534304l-1.662163,1.150728c-0.255717,0.255717 -0.767152,-0.127859 -0.639293,-0.511435l0.127859,-0.767152c0.127859,-0.639293 0.511435,-1.150728 1.02287,-1.534304"/>
       <path d="m4.043053,53.78277l1.534304,-1.278587c0.255717,-0.255717 0.767152,0 0.639293,0.383576l-0.127859,0.767152c-0.127859,0.639293 -0.383576,1.278587 -0.895011,1.662163l-1.534304,1.278587c-0.255717,0.255717 -0.767152,0 -0.639293,-0.383576l0.127859,-0.767152c0.127859,-0.767152 0.511435,-1.278587 0.895011,-1.662163"/>
       <path d="m3.915194,57.618531l1.406446,-1.406446c0.255717,-0.255717 0.767152,0 0.767152,0.383576l-0.127859,0.767152c0,0.639293 -0.383576,1.278587 -0.767152,1.662163l-1.406446,1.406446c-0.255717,0.255717 -0.767152,0 -0.767152,-0.383576l0.127859,-0.767152c0,-0.639293 0.255717,-1.150728 0.767152,-1.662163"/>
       <path d="m3.915194,61.454292l1.406446,-1.534304c0.255717,-0.255717 0.767152,-0.127859 0.767152,0.383576l0,0.767152c0,0.639293 -0.255717,1.278587 -0.639293,1.790022l-1.406446,1.534304c-0.255717,0.255717 -0.767152,0 -0.767152,-0.383576l0,-0.767152c0,-0.639293 0.255717,-1.278587 0.639293,-1.790022"/>
       <path d="m4.298771,65.417912l1.278587,-1.534304c0.255717,-0.255717 0.767152,-0.127859 0.767152,0.255717l0,0.767152c0,0.639293 -0.127859,1.278587 -0.511435,1.790022l-1.278587,1.534304c-0.255717,0.255717 -0.767152,0.127859 -0.767152,-0.255717l0,-0.767152c-0.127859,-0.639293 0.127859,-1.278587 0.511435,-1.790022"/>
       <path d="m4.938064,69.253672l1.150728,-1.662163c0.255717,-0.383576 0.767152,-0.127859 0.767152,0.255717l0.127859,0.767152c0.127859,0.639293 -0.127859,1.278587 -0.383576,1.790022l-1.150728,1.662163c-0.255717,0.383576 -0.767152,0.127859 -0.767152,-0.255717l-0.127859,-0.767152c-0.127859,-0.639293 0,-1.278587 0.383576,-1.790022"/>
       <path d="m5.833075,72.961575l1.02287,-1.790022c0.255717,-0.383576 0.767152,-0.255717 0.767152,0.127859l0.127859,0.767152c0.127859,0.639293 0,1.278587 -0.255717,1.790022l-1.02287,1.790022c-0.255717,0.383576 -0.767152,0.255717 -0.767152,-0.127859l-0.127859,-0.767152c-0.255717,-0.511435 -0.127859,-1.150728 0.255717,-1.790022"/>
       <path d="m6.983803,76.669477l0.895011,-1.790022c0.127859,-0.383576 0.767152,-0.255717 0.767152,0.127859l0.255717,0.767152c0.127859,0.639293 0.127859,1.278587 -0.127859,1.91788l-0.895011,1.790022c-0.127859,0.383576 -0.767152,0.255717 -0.767152,-0.127859l-0.255717,-0.767152c-0.255717,-0.639293 -0.255717,-1.278587 0.127859,-1.91788"/>
       <path d="m8.26239,80.377379l0.767152,-1.91788c0.127859,-0.383576 0.639293,-0.383576 0.767152,0l0.255717,0.767152c0.255717,0.639293 0.255717,1.278587 0,1.91788l-0.767152,1.91788c-0.127859,0.383576 -0.639293,0.383576 -0.767152,0l-0.255717,-0.767152c-0.127859,-0.767152 -0.127859,-1.406446 0,-1.91788"/>
       <path d="m9.924553,83.829563l0.639293,-1.91788c0.127859,-0.383576 0.639293,-0.383576 0.767152,0l0.255717,0.767152c0.255717,0.639293 0.255717,1.278587 0.127859,1.91788l-0.639293,1.91788c-0.127859,0.383576 -0.639293,0.383576 -0.767152,0l-0.255717,-0.767152c-0.255717,-0.639293 -0.255717,-1.278587 -0.127859,-1.91788"/>
       <path d="m11.842433,87.281748l0.511435,-1.91788c0.127859,-0.383576 0.639293,-0.383576 0.767152,0l0.383576,0.639293c0.255717,0.639293 0.383576,1.278587 0.255717,1.91788l-0.511435,1.91788c-0.127859,0.383576 -0.639293,0.383576 -0.767152,0l-0.383576,-0.639293c-0.255717,-0.639293 -0.383576,-1.406446 -0.255717,-1.91788"/>
       <path d="m14.016031,90.478216l0.383576,-2.045739c0.127859,-0.383576 0.639293,-0.511435 0.767152,-0.127859l0.383576,0.639293c0.383576,0.511435 0.511435,1.150728 0.383576,1.790022l-0.383576,2.045739c-0.127859,0.383576 -0.639293,0.511435 -0.767152,0.127859l-0.383576,-0.639293c-0.383576,-0.511435 -0.511435,-1.150728 -0.383576,-1.790022"/>
       <path d="m16.317488,93.546824l0.255717,-2.045739c0,-0.383576 0.639293,-0.511435 0.767152,-0.127859l0.383576,0.639293c0.383576,0.511435 0.511435,1.150728 0.511435,1.790022l-0.255717,2.045739c0,0.383576 -0.639293,0.511435 -0.767152,0.127859l-0.383576,-0.639293c-0.383576,-0.511435 -0.639293,-1.150728 -0.511435,-1.790022"/>
       <path d="m18.874662,96.487574l0.127859,-2.045739c0,-0.383576 0.511435,-0.511435 0.767152,-0.255717l0.511435,0.639293c0.383576,0.511435 0.639293,1.150728 0.639293,1.790022l-0.127859,2.045739c0,0.383576 -0.511435,0.511435 -0.767152,0.255717l-0.511435,-0.639293c-0.511435,-0.511435 -0.639293,-1.150728 -0.639293,-1.790022"/>
       <path d="m21.559694,99.300465l-0.127859,-2.045739c0,-0.383576 0.511435,-0.639293 0.767152,-0.255717l0.511435,0.511435c0.383576,0.511435 0.639293,1.150728 0.767152,1.662163l0.127859,2.045739c0,0.383576 -0.511435,0.639293 -0.767152,0.255717l-0.511435,-0.511435c-0.383576,-0.511435 -0.639293,-1.02287 -0.767152,-1.662163"/>
       <path d="m24.500444,101.729781l-0.255717,-2.045739c0,-0.383576 0.511435,-0.639293 0.767152,-0.383576l0.511435,0.511435c0.511435,0.383576 0.767152,1.02287 0.895011,1.662163l0.255717,2.045739c0,0.383576 -0.511435,0.639293 -0.767152,0.383576l-0.511435,-0.511435c-0.511435,-0.383576 -0.767152,-1.02287 -0.895011,-1.662163"/>
       <path d="m27.696912,104.159096l-0.383576,-2.045739c-0.127859,-0.383576 0.383576,-0.639293 0.767152,-0.383576l0.639293,0.511435c0.511435,0.383576 0.895011,1.02287 0.895011,1.662163l0.383576,2.045739c0.127859,0.383576 -0.383576,0.639293 -0.767152,0.383576l-0.639293,-0.511435c-0.511435,-0.511435 -0.895011,-1.02287 -0.895011,-1.662163"/>
       <path d="m30.893379,106.204835l-0.511435,-1.91788c-0.127859,-0.383576 0.383576,-0.639293 0.639293,-0.383576l0.639293,0.383576c0.511435,0.383576 0.895011,0.895011 1.02287,1.534304l0.511435,1.91788c0.127859,0.383576 -0.383576,0.639293 -0.639293,0.383576l-0.639293,-0.383576c-0.511435,-0.383576 -0.895011,-0.895011 -1.02287,-1.534304"/>
       <path d="m34.345564,108.122715l-0.639293,-1.91788c-0.127859,-0.383576 0.383576,-0.639293 0.639293,-0.511435l0.639293,0.383576c0.511435,0.383576 1.02287,0.895011 1.150728,1.406446l0.639293,1.91788c0.127859,0.383576 -0.383576,0.639293 -0.639293,0.511435l-0.639293,-0.383576c-0.639293,-0.255717 -1.02287,-0.767152 -1.150728,-1.406446"/>
       <path d="m37.797748,109.784878l-0.767152,-1.91788c-0.127859,-0.383576 0.255717,-0.767152 0.639293,-0.511435l0.639293,0.383576c0.639293,0.255717 1.02287,0.767152 1.278587,1.406446l0.767152,1.91788c0.127859,0.383576 -0.255717,0.767152 -0.639293,0.511435l-0.639293,-0.383576c-0.511435,-0.383576 -1.02287,-0.895011 -1.278587,-1.406446"/>
       <path d="m41.50565,111.191324l-0.895011,-1.790022c-0.127859,-0.383576 0.255717,-0.767152 0.639293,-0.639293l0.767152,0.255717c0.639293,0.255717 1.02287,0.767152 1.406446,1.278587l0.895011,1.790022c0.127859,0.383576 -0.255717,0.767152 -0.639293,0.511435l-0.767152,-0.255717c-0.767152,-0.127859 -1.150728,-0.639293 -1.406446,-1.150728"/>
       <path d="m45.213553,112.214193l-1.02287,-1.790022c-0.255717,-0.383576 0.127859,-0.767152 0.511435,-0.639293l0.767152,0.255717c0.639293,0.255717 1.150728,0.639293 1.406446,1.150728l1.02287,1.790022c0.255717,0.383576 -0.127859,0.767152 -0.511435,0.639293l-0.767152,-0.255717c-0.639293,-0.127859 -1.150728,-0.511435 -1.406446,-1.150728"/>
       <path d="m48.921455,113.109204l-1.150728,-1.662163c-0.255717,-0.383576 0.127859,-0.767152 0.511435,-0.639293l0.767152,0.255717c0.639293,0.127859 1.150728,0.511435 1.534304,1.02287l1.150728,1.662163c0.255717,0.383576 -0.127859,0.767152 -0.511435,0.639293l-0.767152,-0.255717c-0.639293,-0.127859 -1.150728,-0.511435 -1.534304,-1.02287"/>
       <path d="m52.757215,113.748498l-1.278587,-1.534304c-0.255717,-0.255717 0.127859,-0.767152 0.511435,-0.639293l0.767152,0.127859c0.639293,0.127859 1.150728,0.511435 1.662163,1.02287l1.278587,1.534304c0.255717,0.255717 -0.127859,0.767152 -0.511435,0.639293l-0.767152,-0.127859c-0.639293,-0.255717 -1.278587,-0.511435 -1.662163,-1.02287"/>
       <path d="m56.592976,114.132074l-1.406446,-1.534304c-0.255717,-0.255717 0,-0.767152 0.383576,-0.767152l0.767152,0.127859c0.639293,0.127859 1.278587,0.383576 1.662163,0.895011l1.406446,1.534304c0.255717,0.255717 0,0.767152 -0.383576,0.767152l-0.767152,-0.127859c-0.639293,-0.127859 -1.150728,-0.511435 -1.662163,-0.895011"/>
       <path d="m60.556596,114.132074l-1.406446,-1.406446c-0.255717,-0.255717 0,-0.767152 0.383576,-0.767152l0.767152,0c0.639293,0 1.278587,0.255717 1.662163,0.767152l1.406446,1.406446c0.255717,0.255717 0,0.767152 -0.383576,0.767152l-0.767152,0c-0.639293,-0.127859 -1.278587,-0.383576 -1.662163,-0.767152"/>
       <path d="m64.392357,113.876357l-1.534304,-1.278587c-0.255717,-0.255717 -0.127859,-0.767152 0.255717,-0.767152l0.767152,0c0.639293,0 1.278587,0.255717 1.790022,0.639293l1.534304,1.278587c0.255717,0.255717 0.127859,0.767152 -0.255717,0.767152l-0.767152,0c-0.639293,0 -1.278587,-0.127859 -1.790022,-0.639293"/>
       <path d="m68.228117,113.49278l-1.662163,-1.150728c-0.255717,-0.255717 -0.127859,-0.767152 0.255717,-0.767152l0.767152,0c0.639293,0 1.278587,0.127859 1.790022,0.511435l1.662163,1.150728c0.255717,0.255717 0.127859,0.767152 -0.255717,0.767152l-0.767152,0.127859c-0.639293,-0.127859 -1.278587,-0.255717 -1.790022,-0.639293"/>
       <path d="m72.063878,112.725628l-1.662163,-1.02287c-0.383576,-0.255717 -0.255717,-0.767152 0.255717,-0.767152l0.767152,-0.127859c0.639293,-0.127859 1.278587,0 1.790022,0.383576l1.662163,1.02287c0.383576,0.255717 0.255717,0.767152 -0.255717,0.767152l-0.767152,0.127859c-0.639293,0 -1.278587,-0.127859 -1.790022,-0.383576"/>
       <path d="m75.77178,111.702759l-1.790022,-0.895011c-0.383576,-0.127859 -0.255717,-0.767152 0.127859,-0.767152l0.767152,-0.127859c0.639293,-0.127859 1.278587,0 1.91788,0.255717l1.790022,0.895011c0.383576,0.127859 0.255717,0.767152 -0.127859,0.767152l-0.767152,0.127859c-0.639293,0.127859 -1.278587,0 -1.91788,-0.255717"/>
       <path d="m79.479682,110.424172l-1.790022,-0.767152c-0.383576,-0.127859 -0.255717,-0.767152 0.127859,-0.767152l0.767152,-0.255717c0.639293,-0.127859 1.278587,-0.127859 1.91788,0.127859l1.790022,0.767152c0.383576,0.127859 0.255717,0.767152 -0.127859,0.767152l-0.767152,0.255717c-0.639293,0.127859 -1.278587,0.127859 -1.91788,-0.127859"/>
       <path d="m83.059726,108.889867l-1.91788,-0.639293c-0.383576,-0.127859 -0.383576,-0.639293 0,-0.767152l0.767152,-0.255717c0.639293,-0.255717 1.278587,-0.255717 1.91788,0l1.91788,0.639293c0.383576,0.127859 0.383576,0.639293 0,0.767152l-0.767152,0.255717c-0.639293,0.255717 -1.278587,0.255717 -1.91788,0"/>
       <path d="m86.511911,107.099846l-1.91788,-0.511435c-0.383576,-0.127859 -0.383576,-0.639293 0,-0.767152l0.639293,-0.383576c0.639293,-0.255717 1.278587,-0.383576 1.91788,-0.127859l1.91788,0.511435c0.383576,0.127859 0.383576,0.639293 0,0.767152l-0.639293,0.383576c-0.639293,0.255717 -1.278587,0.383576 -1.91788,0.127859"/>
       <path d="m89.836237,105.181965l-1.91788,-0.383576c-0.383576,-0.127859 -0.383576,-0.639293 -0.127859,-0.767152l0.639293,-0.383576c0.511435,-0.255717 1.278587,-0.383576 1.790022,-0.255717l1.91788,0.383576c0.383576,0.127859 0.383576,0.639293 0.127859,0.767152l-0.639293,0.383576c-0.511435,0.255717 -1.150728,0.383576 -1.790022,0.255717"/>
       <path d="m93.032704,102.880509l-2.045739,-0.255717c-0.383576,0 -0.511435,-0.639293 -0.127859,-0.767152l0.639293,-0.383576c0.511435,-0.383576 1.150728,-0.511435 1.790022,-0.383576l2.045739,0.255717c0.383576,0 0.511435,0.639293 0.127859,0.767152l-0.639293,0.383576c-0.511435,0.383576 -1.150728,0.511435 -1.790022,0.383576"/>
       <path d="m95.973454,100.451194l-2.045739,-0.127859c-0.383576,0 -0.511435,-0.511435 -0.255717,-0.767152l0.639293,-0.511435c0.511435,-0.383576 1.150728,-0.639293 1.790022,-0.511435l2.045739,0.127859c0.383576,0 0.511435,0.511435 0.255717,0.767152l-0.639293,0.511435c-0.511435,0.383576 -1.150728,0.511435 -1.790022,0.511435"/>
      </g>
     </g>
     <polygon points="54.291523100282575,15.297302920174616 57.487987807026,12.99586257882197 56.20940192432863,9.160101181387063 59.405870380414854,11.461543397411106 62.73018392713675,9.160101181387063 61.45159804443938,12.867957498701571 64.6480665005256,15.297302920174616 60.684456263112224,15.169476576252919 59.53371547105053,19.005237973687827 58.25512958835316,15.297302920174616 "/>
     <polygon points="38.18132073184461,20.539480293571387 40.22706714258311,17.215181744220672 37.66989537718837,14.146543381398942 41.50565302528048,15.04157149613252 43.551380689305006,11.7172766961246 43.8071121133471,15.680864437481205 47.77072235076048,16.575892552214782 44.06282479067522,17.982308528176645 44.31854121734614,22.07380134965365 41.7613657026086,19.005237973687827 "/>
     <polygon points="25.26760556620684,31.66320296856952 25.906898507555525,27.699615227212917 22.326851662120134,25.909562747088557 26.162611184883644,25.270269805739872 26.801906000903728,21.306682064383267 28.591919112928736,24.886704539090488 32.55554809705609,24.247415347084598 29.742659904990433,27.06032228586423 31.532671142344043,30.640348509914247 28.0804918836011,28.722465936525396 "/>
     <polygon points="17.468215184644578,46.75050588623867 16.573207691296375,42.91474823814656 12.609581519176118,42.65909929964596 16.06176171525476,40.61331164613671 15.038908193935185,36.6497239047801 18.107508125993263,39.206895670174845 21.43184416877193,37.16111176600839 19.89752311268967,40.869043070178805 22.96614460346882,43.42621858491634 19.002515619341466,43.04265706760975 "/>
     <polygon points="16.189629301947207,63.755785110866555 13.888168339209187,60.55931290543754 10.05240694177428,61.70999370801451 12.481734553869046,58.51352900127108 10.05240694177428,55.317064294527654 13.888168339209187,56.595650177225025 16.189629301947207,53.39917797179601 16.189629301947207,57.36284819869411 20.025390699382115,58.51352900127108 16.189629301947207,59.79211488396845 "/>
     <polygon points="21.43184416877193,79.86594623653377 18.107508125993263,77.82023731922322 15.038908193935185,80.37740908461797 16.06176171525476,76.54165143652585 12.609581519176118,74.4958675323594 16.573207691296375,74.2401323589745 17.468215184644578,70.2765446176179 19.002515619341466,73.98447967113111 22.96614460346882,73.60083941762582 19.89752311268967,76.28591626314096 "/>
     <polygon points="32.55554809705609,92.77964265545756 28.591919112928736,92.14034971410888 26.801906000903728,95.7204546743576 26.290458150190716,91.88469702626548 22.326851662120134,91.2454040849168 25.77903092086308,89.45534785544965 25.139737979514393,85.49176011409304 27.95262617158005,88.30459206601677 31.532671142344043,86.51461082340552 29.742659904990433,89.96681070353384 "/>
     <polygon points="47.77072235076048,100.57907053044778 43.93496095332557,101.47409864518136 43.551380689305006,105.43768638653796 41.50565302528048,101.98548650640964 37.66989537718837,103.00833721572212 40.22706714258311,99.9397775890991 38.053475641208934,96.61540780223527 41.7613657026086,98.14972135963194 44.31854121734614,95.08116173300891 44.06282479067522,99.04474947436552 "/>
     <polygon points="64.6480665005256,101.85765641314515 61.45159804443938,104.15910050384059 62.73018392713675,107.9948656506183 59.53371547105053,105.56550898111686 56.3372507643071,107.9948656506183 57.487987807026,104.15910050384059 54.291523100282575,101.85765641314515 58.25512958835316,101.85765641314515 59.53371547105053,98.02189876505304 60.684456263112224,101.85765641314515 "/>
     <polygon points="80.88613270631322,96.48757770897078 78.84038629557472,99.9397775890991 81.39756555965505,103.00833721572212 77.56180041287735,101.98548650640964 75.38820891150317,105.43768638653796 75.13249623417505,101.47409864518136 71.29673108739735,100.57907053044778 74.87676106079016,99.04474947436552 74.62104838346204,95.08116173300891 77.17822014885678,98.14972135963194 "/>
     <polygon points="93.79985162129378,85.49176011409304 93.1605586799451,89.45534785544965 96.74061114939468,91.2454040849168 92.77697841592453,91.75679194614509 92.13768547457585,95.7204546743576 90.34767423722224,92.26825479422928 86.38404900243768,92.90754773557796 89.32480103185299,90.09464079679833 87.40692220780693,86.51461082340552 90.98696717857092,88.30459206601677 "/>
     <polygon points="101.4713744161636,70.2765446176179 102.366387533526,74.11230226571001 106.33001276831055,74.4958675323594 103.00568047487468,76.54165143652585 103.90070109092267,80.37740908461797 100.95994906150736,77.82023731922322 97.50777167743581,79.86594623653377 99.0420702374613,76.28591626314096 95.97345062135355,73.72874449774622 99.93707585613811,73.98447967113111 "/>
     <polygon points="102.74996029886097,53.39917797179601 105.05142688561318,56.595650177225025 108.8871845337053,55.317064294527654 106.58572544563867,58.51352900127108 108.8871845337053,61.70999370801451 105.17929447230563,60.55931290543754 102.74996029886097,63.755785110866555 102.87782788555342,59.79211488396845 99.0420702374613,58.51352900127108 102.74996029886097,57.36284819869411 "/>
     <polygon points="97.50777167743581,37.16111176600839 100.83208147481491,39.206895670174845 103.90070109092267,36.6497239047801 103.00568047487468,40.48548530221501 106.33001276831055,42.531190470182764 102.366387533526,42.91474823814656 101.4713744161636,46.75050588623867 99.93707585613811,43.04265706760975 95.97345062135355,43.42621858491634 99.0420702374613,40.869043070178805 "/>
     <polygon points="86.38404900243768,24.247415347084598 90.34767423722224,24.886704539090488 92.13768547457585,21.306682064383267 92.77697841592453,25.270269805739872 96.74061114939468,25.909562747088557 93.1605586799451,27.699615227212917 93.79985162129378,31.66320296856952 90.98696717857092,28.722465936525396 87.40692220780693,30.640348509914247 89.32480103185299,27.06032228586423 "/>
     <polygon points="71.29673108739735,16.575892552214782 75.13249623417505,15.680864437481205 75.38820891150317,11.7172766961246 77.4339328261849,15.04157149613252 81.39756555965505,14.146543381398942 78.84038629557472,17.08735914964177 80.88613270631322,20.539480293571387 77.17822014885678,19.005237973687827 74.62104838346204,22.07380134965365 75.0046286474826,18.110213608297045 "/>
     <g>
      <path d="m59.533726,96.231857c-20.840967,0 -37.718315,-16.877348 -37.718315,-37.718315c0,-20.840967 16.877348,-37.718315 37.718315,-37.718315s37.718315,16.877348 37.718315,37.718315c0,20.840967 -17.005206,37.718315 -37.718315,37.718315m0,-74.285901c-20.201674,0 -36.695445,16.493771 -36.695445,36.695445c0,20.201674 16.493771,36.695445 36.695445,36.695445c20.201674,0 36.695445,-16.493771 36.695445,-36.695445c-0.127859,-20.329532 -16.493771,-36.695445 -36.695445,-36.695445"/>
      <path d="m44.4464,37.16114c-2.94075,2.301456 -4.85863,1.534304 -5.242206,0.895011c-0.511435,-0.895011 0,-2.557174 1.278587,-4.091478c2.301456,-2.557174 5.370065,-3.068609 5.370065,-3.068609c0.511435,-0.127859 1.662163,0 2.173598,0.767152l0,0c0,0 0,0.127859 0.127859,0.255717c0.127859,0.511435 0.255717,1.02287 -0.255717,2.301456l-1.150728,-1.91788c-0.127859,-0.383576 -0.383576,-0.639293 -0.767152,-0.767152c-1.150728,-0.255717 -3.324326,1.150728 -4.219337,2.045739c-0.127859,0.127859 -0.255717,0.255717 -0.255717,0.511435c0,0.127859 0.127859,0.383576 0.127859,0.511435l2.812891,2.557174z"/>
      <path d="m45.852846,32.686086c0,0 -0.127859,0 -0.127859,0c-0.767152,-0.127859 -2.173598,0.639293 -3.068609,1.406446c0,0 0,0 0,0c0,0 0,0 0,0l2.557174,2.429315c0.255717,-0.255717 0.383576,-0.511435 0.639293,-0.895011c0.511435,-1.02287 0.767152,-1.91788 0.511435,-2.685033c-0.255717,-0.127859 -0.383576,-0.255717 -0.511435,-0.255717"/>
      <path d="m78.328954,83.318129c-4.091478,-6.137217 -8.566532,-12.402293 -12.913728,-18.283793c-0.127859,0.127859 -0.255717,0.127859 -0.383576,0.255717c0,0 0,0 0,0c0,0 0,0 0,0c-0.639293,0.383576 -1.278587,0.767152 -1.91788,1.02287c3.580043,5.114348 7.287946,11.123706 11.123706,18.028076c0.127859,0.255717 0.383576,0.383576 0.767152,0.383576c0.767152,0 2.045739,-0.255717 3.324326,-0.895011c0,0 0.127859,-0.255717 0,-0.511435z"/>
      <path d="m82.548291,76.925194c0,-0.127859 -0.127859,-0.255717 -0.255717,-0.383576c-1.534304,-1.534304 -8.566532,-8.310815 -14.064456,-14.448032c-0.639293,0.383576 -1.150728,0.767152 -1.534304,1.406446c-0.127859,0.255717 -0.383576,0.511435 -0.511435,0.767152c0,0 0,0.127859 0,0.127859c4.475054,6.009359 9.205826,12.658011 13.553022,19.050945c0.127859,0.127859 0.255717,0.255717 0.383576,0.127859c1.02287,-1.02287 3.452185,-3.196467 2.429315,-6.648652z"/>
      <path d="m58.127281,48.156988c-3.452185,-5.497924 -7.671522,-12.274435 -9.077967,-14.70375c-0.127859,1.278587 -0.639293,2.685033 -2.173598,4.85863c0,0.127859 0,0.127859 0,0.255717c0.895011,1.150728 4.347196,5.497924 8.310815,10.612272c1.02287,-0.511435 1.790022,-0.767152 2.94075,-1.02287z"/>
      <path d="m54.419379,49.691292c-3.96362,-4.986489 -7.671522,-9.717261 -8.438674,-10.612272c-0.255717,-0.255717 -0.255717,-0.639293 0,-0.895011c0.895011,-1.150728 1.406446,-2.173598 1.790022,-2.94075l-0.639293,-1.150728c0,0.639293 -0.255717,1.406446 -0.639293,2.173598c-0.895011,1.534304 -2.429315,2.685033 -4.219337,3.068609c-0.639293,0.127859 -1.02287,0.127859 -1.534304,0.127859c1.662163,1.406446 6.392935,6.137217 11.379424,12.018717c0.767152,-0.639293 1.534304,-1.278587 2.301456,-1.790022z"/>
      <path d="m81.269704,38.311869c-0.127859,0 -0.127859,-0.127859 -0.255717,-0.127859c0.127859,-0.127859 0.255717,-0.255717 0.383576,-0.383576c0.639293,-0.895011 1.02287,-2.045739 0.895011,-3.196467c-0.127859,-1.150728 -0.767152,-2.173598 -1.534304,-2.812891c-1.790022,-1.406446 -4.475054,-1.150728 -6.009359,0.767152c-0.127859,0.127859 -0.255717,0.255717 -0.383576,0.511435c-0.127859,-0.127859 -0.127859,-0.127859 -0.255717,-0.255717c-1.02287,-0.767152 -2.301456,-1.150728 -3.580043,-1.02287c-1.278587,0.127859 -2.429315,0.767152 -3.324326,1.790022c-0.767152,1.02287 -1.150728,2.301456 -1.02287,3.580043c0.127859,1.278587 0.767152,2.429315 1.790022,3.324326c0.639293,0.511435 1.278587,0.767152 2.045739,0.895011c0,0 0,0.127859 0,0.127859c-0.127859,0 -0.383576,0.127859 -0.383576,0.255717c-0.127859,0.255717 -0.255717,0.383576 -0.127859,0.639293c-0.639293,-0.127859 -1.406446,0 -1.790022,0.511435c-0.255717,0.383576 -0.383576,0.767152 -0.383576,1.278587c0,0.383576 0.255717,0.767152 0.511435,1.02287l-3.068609,3.96362c0.895011,0.511435 1.662163,1.406446 2.173598,2.301456c0.127859,0 0.127859,0 0.127859,0l3.324326,-4.091478c0.639293,0.383576 1.662163,0.255717 2.173598,-0.383576c0.255717,-0.383576 0.383576,-0.767152 0.383576,-1.278587c0,-0.255717 -0.127859,-0.383576 -0.255717,-0.639293l0,0c0.255717,0 0.511435,-0.127859 0.639293,-0.383576c0.127859,-0.127859 0.127859,-0.255717 0.127859,-0.511435c0,0 0.127859,0 0.127859,0c0.383576,0.639293 0.767152,1.278587 1.406446,1.790022c1.02287,0.767152 2.301456,1.150728 3.580043,1.02287c1.278587,-0.127859 2.429315,-0.767152 3.324326,-1.790022c1.790022,-2.045739 1.406446,-5.114348 -0.639293,-6.904369zm-1.278587,6.009359c-0.895011,0.767152 -2.045739,0.895011 -3.068609,0.383576c-1.150728,-0.639293 -1.790022,-1.91788 -1.406446,-3.068609c0.127859,-0.639293 0.511435,-1.150728 0.639293,-1.278587c0.255717,-0.127859 0.511435,-0.255717 0.639293,-0.383576c0.511435,-0.639293 0.255717,-1.662163 -0.639293,-2.301456c-0.895011,-0.639293 -1.91788,-0.639293 -2.429315,0c-0.127859,0.127859 -0.255717,0.383576 -0.255717,0.639293c-0.255717,0.255717 -0.639293,0.767152 -1.278587,1.150728c-1.150728,0.511435 -2.429315,0.127859 -3.196467,-0.767152c-0.767152,-0.895011 -0.895011,-2.045739 -0.255717,-3.068609c0.383576,-0.767152 1.02287,-1.278587 1.91788,-1.406446c0.767152,-0.127859 1.662163,0 2.301456,0.511435l0.383576,0.511435l0.255717,1.02287c0.127859,0.511435 0.639293,0.895011 1.150728,0.767152l1.150728,-0.127859c0.511435,-0.127859 0.895011,-0.511435 0.767152,-1.150728l-0.127859,-1.278587c0,-0.127859 0.127859,-0.255717 0.255717,-0.383576c0.767152,-0.895011 2.045739,-1.02287 2.94075,-0.383576c0.895011,0.767152 1.02287,2.045739 0.383576,2.94075c-0.127859,0.127859 -0.127859,0.255717 -0.255717,0.255717l-1.278587,0.127859c0,0 0,0 0,0c-0.511435,0 -0.895011,0.511435 -0.895011,1.02287l0.127859,1.150728c0,0.511435 0.511435,0.895011 1.02287,0.895011l1.02287,0l0.511435,0.255717c0.639293,0.511435 1.02287,1.278587 1.02287,2.045739c-0.383576,0.639293 -0.767152,1.406446 -1.406446,1.91788z"/>
      <path d="m52.885074,64.395042l-8.310815,10.356554l-0.767152,-0.639293l2.173598,-2.812891l-0.511435,-0.383576l-1.91788,0.895011l0.383576,-2.045739l-3.324326,-2.685033l-1.662163,2.173598l2.429315,1.91788l-1.02287,1.278587l-2.429315,-1.91788l-1.91788,2.301456l2.429315,1.91788l-1.02287,1.278587l-2.429315,-1.91788l-1.662163,2.173598l5.497924,4.347196l2.045739,-2.557174l0.767152,0.639293l-3.580043,4.602913l2.557174,2.045739l15.087326,-19.050945c-1.150728,-0.383576 -2.045739,-1.150728 -2.812891,-1.91788z"/>
      <g>
       <path d="m61.835183,60.175705c-0.383576,0.639293 -1.02287,1.150728 -1.662163,1.534304c-0.639293,0.383576 -1.278587,0.511435 -1.91788,0.511435c-0.127859,0 -0.127859,0 -0.255717,0c-1.150728,0 -2.173598,-0.383576 -2.94075,-1.150728c-0.895011,-0.767152 -1.534304,-2.045739 -1.534304,-3.452185c0,-0.895011 0.255717,-1.662163 0.639293,-2.429315c0.511435,-0.767152 1.150728,-1.406446 1.91788,-1.790022c0.127859,-0.127859 0.383576,-0.127859 0.511435,-0.255717c0.383576,-0.127859 0.895011,-0.255717 1.406446,-0.255717c1.662163,0 3.068609,0.895011 3.835761,2.173598c-0.639293,-0.767152 -1.662163,-1.150728 -2.685033,-1.150728c-0.511435,0 -1.02287,0.127859 -1.534304,0.383576c-0.127859,0.127859 -0.383576,0.127859 -0.511435,0.255717c-0.767152,0.511435 -1.278587,1.278587 -1.534304,2.173598c-0.127859,0.255717 -0.127859,0.639293 -0.127859,0.895011c0,0.767152 0.255717,1.534304 0.767152,2.173598c0.639293,0.895011 1.662163,1.406446 2.94075,1.406446l0,0c0.255717,0 0.511435,0 0.639293,-0.127859c0.767152,0 1.534304,-0.383576 2.045739,-0.895011"/>
       <polygon points="64.9037941752249,58.002141140042795 65.67093970589485,59.024991849355274 64.13664114586936,58.51352900127108 63.11376044181452,59.92001996408885 63.11376044181452,58.25779382788619 61.57946188178903,57.7464059666579 63.11376044181452,57.23494311857371 63.11376044181452,55.572791969226955 63.497340705835086,56.08426231599674 64.13664114586936,56.851377851924326 65.67093970589485,56.33991500384013 64.6480665005256,57.7464059666579 "/>
       <g>
        <g>
         <polygon points="67.71668611663335,59.024991849355274 67.71668611663335,58.38569890800659 68.86740441263828,58.38569890800659 68.86740441263828,59.15282194261977 "/>
        </g>
        <g>
         <polygon points="67.33310585261279,60.43140782531714 67.46097343930523,59.79211488396845 68.61169173531016,60.175672651932246 68.35597905798204,60.94287817208692 "/>
        </g>
        <g>
         <polygon points="66.56594532457166,61.83789878813491 66.94952558859222,61.326435940050715 67.97239879396147,61.83789878813491 67.58881852994091,62.47719172948359 "/>
        </g>
        <g>
         <polygon points="65.67093970589485,63.11649216951787 66.05451996991542,62.605021822748085 66.94952558859222,63.24431476409677 66.43810023393598,63.883607705445456 "/>
        </g>
        <g>
         <polygon points="64.52021391120434,64.13934287883035 65.03164676454617,63.627880030746155 65.7988072925873,64.52290064679414 65.15951435123861,65.03437099356393 "/>
        </g>
        <g>
         <polygon points="63.241628028506966,64.90646591344353 63.753060881848796,64.65073074005863 64.39235382319748,65.54575885479221 63.753060881848796,65.929316622756 "/>
        </g>
        <g>
         <polygon points="61.835178308459945,65.41792876152772 62.47447124980863,65.29002368140732 62.858051513829196,66.3129568762613 62.090890985788064,66.56860956410469 "/>
        </g>
        <g>
         <polygon points="60.30087599909166,65.80148652949151 60.940168940440344,65.67366393491261 61.19588536711126,66.82434473748958 60.428743585784105,66.82434473748958 "/>
        </g>
        <g>
         <polygon points="58.76657743906617,65.80148652949151 59.405870380414854,65.80148652949151 59.405870380414854,66.95224981760998 58.63870985237372,66.82434473748958 "/>
        </g>
        <g>
         <path d="m57.23227,65.417912c0,0 0.639293,0.255717 0.639293,0.255717l-0.255717,1.150728c0,0 -0.767152,-0.255717 -0.767152,-0.255717l0.383576,-1.150728z"/>
        </g>
        <g>
         <path d="m55.825824,64.906477c0,0 0.639293,0.383576 0.639293,0.255717l-0.383576,1.02287c0,0 -0.639293,-0.383576 -0.639293,-0.383576l0.383576,-0.895011z"/>
        </g>
        <g>
         <path d="m54.419379,64.139325c0,0 0.511435,0.383576 0.511435,0.383576l-0.639293,0.895011c0,0 -0.639293,-0.383576 -0.639293,-0.383576l0.767152,-0.895011z"/>
        </g>
        <g>
         <path d="m53.396509,63.116455c0,0 0.383576,0.511435 0.511435,0.511435l-0.767152,0.767152c0,0 -0.511435,-0.511435 -0.511435,-0.511435l0.767152,-0.767152z"/>
        </g>
        <g>
         <path d="m52.373639,61.837868c0,0 0.383576,0.511435 0.383576,0.511435l-0.895011,0.639293c0,0 -0.511435,-0.639293 -0.383576,-0.639293l0.895011,-0.511435z"/>
        </g>
        <g>
         <path d="m51.734346,60.431423c0,0 0.255717,0.639293 0.255717,0.639293l-1.02287,0.511435c0,0 -0.383576,-0.639293 -0.255717,-0.639293l1.02287,-0.511435z"/>
        </g>
        <g>
         <path d="m51.35077,59.024977c0,0 0.127859,0.639293 0.127859,0.639293l-1.150728,0.255717c0,0 -0.255717,-0.767152 -0.255717,-0.767152l1.278587,-0.127859z"/>
        </g>
        <g>
         <polygon points="51.09505464419635,57.4906782919586 51.222899734832026,58.12997123330729 50.0721814388271,58.25779382788619 49.944313852134655,57.4906782919586 "/>
        </g>
        <g>
         <polygon points="51.35076732152447,55.95635723587634 51.222899734832026,56.595650177225025 50.0721814388271,56.46782008396053 50.20004902551955,55.70061456380586 "/>
        </g>
        <g>
         <polygon points="51.73434758554504,54.422028681108486 51.47863490821692,55.06132912114276 50.45576170284767,54.80567643329937 50.71147438017579,54.03847841183028 "/>
        </g>
        <g>
         <polygon points="52.37364052689372,53.143442798411115 52.1179278495656,53.6549131451809 51.09505464419635,53.143442798411115 51.47863490821692,52.50415735574802 "/>
        </g>
        <g>
         <polygon points="53.396513732262974,51.864856915713744 52.88506963089276,52.37632726248353 51.99006026287316,51.73702682244925 52.50148936687219,51.09774137978616 "/>
        </g>
        <g>
         <polygon points="54.41936819091825,50.842006206401265 53.90794283626201,51.22557147305065 53.14078230822088,50.45844093975188 53.78007524956956,49.94697809166769 "/>
        </g>
        <g>
         <polygon points="55.825821660308065,50.07488317178809 55.18652871895938,50.33061834517298 54.547235777610695,49.307685150319 55.314396305651826,49.05203246247561 "/>
        </g>
        <g>
         <polygon points="57.23227512969788,49.4355902304394 56.5929821883492,49.691325403824294 56.20940192432863,48.66839220897032 56.84869486567732,48.41273952112692 "/>
        </g>
        <g>
         <polygon points="58.76657743906617,49.17985505705451 57.99941691102504,49.307685150319 57.87156807104657,48.15700434774203 58.63870985237372,48.02909926762163 "/>
        </g>
        <g>
         <polygon points="60.30087599909166,49.17985505705451 59.53371547105053,49.17985505705451 59.66158305774297,48.02909926762163 60.428743585784105,48.02909926762163 "/>
        </g>
        <g>
         <path d="m61.835183,49.435575c0,0 -0.639293,-0.255717 -0.639293,-0.255717l0.255717,-1.150728c0,0 0.767152,0.255717 0.767152,0.255717l-0.383576,1.150728z"/>
        </g>
        <g>
         <path d="m63.241628,50.074868c0,0 -0.639293,-0.383576 -0.639293,-0.255717l0.383576,-1.02287c0,0 0.639293,0.383576 0.639293,0.383576l-0.383576,0.895011z"/>
        </g>
        <g>
         <path d="m64.520215,50.842021c0,0 -0.511435,-0.383576 -0.511435,-0.383576l0.639293,-0.895011c0,0 0.639293,0.383576 0.639293,0.383576l-0.767152,0.895011z"/>
        </g>
        <g>
         <path d="m65.670944,51.86489c0,0 -0.383576,-0.511435 -0.511435,-0.511435l0.767152,-0.767152c0,0 0.511435,0.511435 0.511435,0.511435l-0.767152,0.767152z"/>
        </g>
        <g>
         <path d="m66.565954,53.143477c0,0 -0.383576,-0.511435 -0.383576,-0.511435l0.895011,-0.639293c0,0 0.511435,0.639293 0.383576,0.639293l-0.895011,0.511435z"/>
        </g>
        <g>
         <path d="m67.333107,54.422064c0,0 -0.255717,-0.639293 -0.255717,-0.639293l1.02287,-0.511435c0,0 0.383576,0.639293 0.255717,0.639293l-1.02287,0.511435z"/>
        </g>
        <g>
         <path d="m67.716683,55.956368c0,0 -0.127859,-0.639293 -0.127859,-0.639293l1.150728,-0.255717c0,0 0.255717,0.767152 0.255717,0.767152l-1.278587,0.127859z"/>
        </g>
        <g>
         <polygon points="67.84453120726903,57.4906782919586 67.84453120726903,56.851377851924326 68.86740441263828,56.723555257345424 68.99527199933073,57.4906782919586 "/>
        </g>
       </g>
       <path d="m59.533726,47.517694c-5.497924,0 -9.972978,4.475054 -9.972978,9.972978c0,5.497924 4.475054,9.972978 9.972978,9.972978c5.497924,0 9.972978,-4.475054 9.972978,-9.972978c0,-5.497924 -4.475054,-9.972978 -9.972978,-9.972978zm0,19.178804c-5.114348,0 -9.205826,-4.091478 -9.205826,-9.205826c0,-5.114348 4.091478,-9.205826 9.205826,-9.205826c5.114348,0 9.205826,4.091478 9.205826,9.205826c0,5.114348 -4.091478,9.205826 -9.205826,9.205826z"/>
      </g>
     </g>
    </g>
    <g>
     <path d="m129.728149,27.316021c1.02287,-0.127859 2.557174,-0.255717 4.091478,-0.255717c2.045739,0 3.452185,0.255717 4.475054,1.02287c0.767152,0.639293 1.278587,1.662163 1.278587,2.94075c0,1.790022 -1.278587,2.94075 -2.429315,3.452185l0,0c1.02287,0.383576 1.534304,1.278587 1.790022,2.557174c0.383576,1.534304 0.895011,3.324326 1.150728,3.835761l-3.196467,0c-0.255717,-0.383576 -0.511435,-1.534304 -1.02287,-3.196467c-0.383576,-1.662163 -1.02287,-2.173598 -2.173598,-2.173598l-0.895011,0l0,5.370065l-3.068609,0l0,-13.553022zm3.068609,5.8815l1.278587,0c1.534304,0 2.429315,-0.767152 2.429315,-2.045739c0,-1.278587 -0.895011,-1.91788 -2.301456,-1.91788c-0.767152,0 -1.150728,0 -1.406446,0.127859l0,3.835761z"/>
     <path d="m150.057681,35.115401l-5.114348,0l0,3.324326l5.625783,0l0,2.557174l-8.82225,0l0,-13.808739l8.566532,0l0,2.557174l-5.370065,0l0,2.812891l5.114348,0l0,2.557174z"/>
     <path d="m152.742714,27.316021c1.02287,-0.127859 2.301456,-0.255717 4.219337,-0.255717c1.91788,0 3.324326,0.383576 4.219337,1.150728c0.895011,0.639293 1.534304,1.790022 1.534304,3.196467c0,1.406446 -0.511435,2.557174 -1.278587,3.324326c-1.02287,1.02287 -2.685033,1.406446 -4.475054,1.406446c-0.383576,0 -0.767152,0 -1.02287,0l0,4.986489l-3.068609,0l0,-13.808739l-0.127859,0zm3.068609,6.265076c0.255717,0 0.639293,0.127859 1.02287,0.127859c1.662163,0 2.685033,-0.895011 2.685033,-2.301456c0,-1.278587 -0.895011,-2.045739 -2.429315,-2.045739c-0.639293,0 -1.02287,0 -1.278587,0.127859l0,4.091478z"/>
     <path d="m167.702181,27.060303l0,7.927239c0,2.429315 0.895011,3.580043 2.557174,3.580043c1.662163,0 2.557174,-1.150728 2.557174,-3.580043l0,-7.927239l3.068609,0l0,7.79938c0,4.219337 -2.173598,6.265076 -5.753641,6.265076c-3.452185,0 -5.497924,-1.91788 -5.497924,-6.265076l0,-7.671522l3.068609,0l0,-0.127859z"/>
     <path d="m178.57017,27.316021c0.767152,-0.127859 2.429315,-0.255717 4.091478,-0.255717c1.91788,0 3.068609,0.127859 4.091478,0.767152c1.02287,0.511435 1.662163,1.406446 1.662163,2.685033c0,1.278587 -0.767152,2.429315 -2.301456,2.94075l0,0c1.534304,0.383576 2.685033,1.662163 2.685033,3.452185c0,1.278587 -0.511435,2.173598 -1.406446,2.94075c-1.02287,0.767152 -2.685033,1.278587 -5.370065,1.278587c-1.534304,0 -2.685033,-0.127859 -3.324326,-0.255717l0,-13.553022l-0.127859,0zm3.068609,5.242206l1.02287,0c1.662163,0 2.557174,-0.639293 2.557174,-1.662163c0,-1.02287 -0.767152,-1.534304 -2.173598,-1.534304c-0.639293,0 -1.02287,0 -1.278587,0.127859l0,3.068609l-0.127859,0zm0,6.137217c0.255717,0 0.639293,0 1.150728,0c1.406446,0 2.685033,-0.511435 2.685033,-2.045739c0,-1.406446 -1.278587,-1.91788 -2.812891,-1.91788l-1.02287,0l0,3.96362z"/>
     <path d="m190.972463,27.060303l3.068609,0l0,11.123706l5.497924,0l0,2.557174l-8.566532,0l0,-13.68088z"/>
     <path d="m204.525485,27.060303l0,13.808739l-3.068609,0l0,-13.808739l3.068609,0z"/>
     <path d="m217.311354,40.485466c-0.511435,0.255717 -1.91788,0.639293 -3.580043,0.639293c-4.730772,0 -7.287946,-2.94075 -7.287946,-6.904369c0,-4.730772 3.324326,-7.287946 7.543663,-7.287946c1.662163,0 2.812891,0.383576 3.452185,0.639293l-0.639293,2.429315c-0.639293,-0.255717 -1.534304,-0.511435 -2.557174,-0.511435c-2.429315,0 -4.347196,1.534304 -4.347196,4.602913c0,2.812891 1.662163,4.475054 4.475054,4.475054c0.895011,0 2.045739,-0.255717 2.557174,-0.511435l0.383576,2.429315z"/>
     <path d="m236.106582,33.836814c0,4.475054 -2.685033,7.287946 -6.776511,7.287946c-4.091478,0 -6.520793,-3.068609 -6.520793,-7.032228c0,-4.091478 2.685033,-7.287946 6.648652,-7.287946c4.347196,0.127859 6.648652,3.196467 6.648652,7.032228zm-9.972978,0.255717c0,2.685033 1.278587,4.602913 3.324326,4.602913c2.045739,0 3.324326,-2.045739 3.324326,-4.730772c0,-2.429315 -1.150728,-4.602913 -3.324326,-4.602913c-2.045739,0 -3.324326,2.045739 -3.324326,4.730772z"/>
     <path d="m238.152321,27.060303l8.438674,0l0,2.557174l-5.242206,0l0,3.196467l4.986489,0l0,2.557174l-4.986489,0l0,5.497924l-3.068609,0l0,-13.808739l-0.127859,0z"/>
     <path d="m255.029669,29.745336l-3.707902,0l0,-2.557174l10.612272,0l0,2.557174l-3.707902,0l0,11.123706l-3.068609,0l0,-11.123706l-0.127859,0z"/>
     <path d="m266.66481,27.060303l0,7.927239c0,2.429315 0.895011,3.580043 2.557174,3.580043c1.662163,0 2.557174,-1.150728 2.557174,-3.580043l0,-7.927239l3.068609,0l0,7.79938c0,4.219337 -2.173598,6.265076 -5.753641,6.265076c-3.452185,0 -5.497924,-1.91788 -5.497924,-6.265076l0,-7.671522l3.068609,0l0,-0.127859z"/>
     <path d="m277.532799,27.316021c1.02287,-0.127859 2.557174,-0.255717 4.091478,-0.255717c2.045739,0 3.452185,0.255717 4.475054,1.02287c0.767152,0.639293 1.278587,1.662163 1.278587,2.94075c0,1.790022 -1.278587,2.94075 -2.429315,3.452185l0,0c1.02287,0.383576 1.534304,1.278587 1.790022,2.557174c0.383576,1.534304 0.895011,3.324326 1.150728,3.835761l-3.196467,0c-0.255717,-0.383576 -0.511435,-1.534304 -1.02287,-3.196467c-0.383576,-1.662163 -1.02287,-2.173598 -2.173598,-2.173598l-0.895011,0l0,5.370065l-3.068609,0l0,-13.553022zm3.068609,5.8815l1.278587,0c1.534304,0 2.429315,-0.767152 2.429315,-2.045739c0,-1.278587 -0.895011,-1.91788 -2.301456,-1.91788c-0.767152,0 -1.150728,0 -1.406446,0.127859l0,3.835761z"/>
     <path d="m289.551516,27.060303l3.068609,0l0,6.137217l0,0c0.255717,-0.511435 0.639293,-1.02287 0.895011,-1.534304l3.068609,-4.602913l3.835761,0l-4.602913,5.8815l4.85863,7.927239l-3.580043,0l-3.324326,-6.009359l-1.150728,1.406446l0,4.475054l-3.068609,0l0,-13.68088z"/>
     <path d="m310.392483,35.115401l-5.114348,0l0,3.324326l5.625783,0l0,2.557174l-8.82225,0l0,-13.808739l8.566532,0l0,2.557174l-5.370065,0l0,2.812891l5.114348,0l0,2.557174z"/>
     <path d="m316.273983,40.869042l0,-5.625783l-4.347196,-8.182956l3.580043,0l1.406446,3.324326c0.383576,1.02287 0.767152,1.790022 1.02287,2.685033l0,0c0.255717,-0.895011 0.639293,-1.662163 1.02287,-2.685033l1.406446,-3.324326l3.452185,0l-4.602913,8.055098l0,5.753641l-2.94075,0z"/>
     <path d="m141.36329,60.175705c0,-1.662163 -0.127859,-3.707902 -0.127859,-5.625783l0,0c-0.383576,1.790022 -1.02287,3.707902 -1.534304,5.370065l-1.662163,5.370065l-2.429315,0l-1.534304,-5.370065c-0.511435,-1.662163 -0.895011,-3.580043 -1.278587,-5.370065l0,0c-0.127859,1.91788 -0.127859,3.96362 -0.255717,5.753641l-0.255717,5.242206l-2.94075,0l0.895011,-13.808739l4.091478,0l1.406446,4.602913c0.383576,1.534304 0.895011,3.324326 1.150728,4.986489l0,0c0.383576,-1.534304 0.895011,-3.452185 1.278587,-4.986489l1.534304,-4.602913l4.091478,0l0.767152,13.808739l-3.068609,0l-0.127859,-5.370065z"/>
     <path d="m150.18554,51.609173l0,13.808739l-3.068609,0l0,-13.808739l3.068609,0z"/>
     <path d="m152.870573,65.417912l0,-13.808739l3.580043,0l2.812891,5.114348c0.767152,1.406446 1.662163,3.196467 2.301456,4.730772l0,0c-0.255717,-1.790022 -0.255717,-3.707902 -0.255717,-5.753641l0,-4.091478l2.812891,0l0,13.808739l-3.324326,0l-2.94075,-5.370065c-0.767152,-1.534304 -1.662163,-3.196467 -2.429315,-4.85863l0,0c0.127859,1.790022 0.127859,3.707902 0.127859,6.009359l0,4.091478l-2.685033,0l0,0.127859z"/>
     <path d="m170.131496,51.609173l0,13.808739l-3.068609,0l0,-13.808739l3.068609,0z"/>
     <path d="m172.944388,62.221444c0.895011,0.383576 2.173598,0.895011 3.452185,0.895011c1.406446,0 2.173598,-0.639293 2.173598,-1.534304c0,-0.895011 -0.639293,-1.406446 -2.301456,-1.91788c-2.301456,-0.767152 -3.835761,-2.045739 -3.835761,-4.091478c0,-2.301456 1.91788,-4.091478 5.242206,-4.091478c1.534304,0 2.685033,0.383576 3.580043,0.639293l-0.639293,2.557174c-0.511435,-0.255717 -1.534304,-0.639293 -2.94075,-0.639293c-1.406446,0 -2.045739,0.639293 -2.045739,1.278587c0,0.895011 0.767152,1.278587 2.557174,1.91788c2.429315,0.895011 3.580043,2.173598 3.580043,4.091478c0,2.301456 -1.790022,4.219337 -5.625783,4.219337c-1.534304,0 -3.068609,-0.383576 -3.96362,-0.895011l0.767152,-2.429315z"/>
     <path d="m186.497409,54.294205l-3.707902,0l0,-2.557174l10.612272,0l0,2.557174l-3.707902,0l0,11.123706l-3.068609,0l0,-11.123706l-0.127859,0z"/>
     <path d="m195.063942,51.86489c1.02287,-0.127859 2.557174,-0.255717 4.091478,-0.255717c2.045739,0 3.452185,0.255717 4.475054,1.02287c0.767152,0.639293 1.278587,1.662163 1.278587,2.94075c0,1.790022 -1.278587,2.94075 -2.429315,3.452185l0,0c1.02287,0.383576 1.534304,1.278587 1.790022,2.557174c0.383576,1.534304 0.895011,3.324326 1.150728,3.835761l-3.196467,0c-0.255717,-0.383576 -0.511435,-1.534304 -1.02287,-3.196467c-0.383576,-1.662163 -1.02287,-2.173598 -2.173598,-2.173598l-0.895011,0l0,5.370065l-3.068609,0l0,-13.553022zm3.068609,5.8815l1.278587,0c1.534304,0 2.429315,-0.767152 2.429315,-2.045739c0,-1.278587 -0.895011,-1.91788 -2.301456,-1.91788c-0.767152,0 -1.150728,0 -1.406446,0.127859l0,3.835761z"/>
     <path d="m210.023409,65.417912l0,-5.625783l-4.347196,-8.182956l3.580043,0l1.406446,3.324326c0.383576,1.02287 0.767152,1.790022 1.02287,2.685033l0,0c0.255717,-0.895011 0.639293,-1.662163 1.02287,-2.685033l1.406446,-3.324326l3.452185,0l-4.602913,8.055098l0,5.753641l-2.94075,0z"/>
     <path d="m235.850865,58.385683c0,4.475054 -2.685033,7.287946 -6.776511,7.287946c-4.091478,0 -6.520793,-3.068609 -6.520793,-7.032228c0,-4.091478 2.685033,-7.287946 6.648652,-7.287946c4.347196,0.127859 6.648652,3.196467 6.648652,7.032228zm-9.972978,0.255717c0,2.685033 1.278587,4.602913 3.324326,4.602913c2.045739,0 3.324326,-2.045739 3.324326,-4.730772c0,-2.429315 -1.150728,-4.602913 -3.324326,-4.602913c-2.045739,0 -3.324326,2.045739 -3.324326,4.730772z"/>
     <path d="m237.896604,51.609173l8.438674,0l0,2.557174l-5.242206,0l0,3.196467l4.986489,0l0,2.557174l-4.986489,0l0,5.497924l-3.068609,0l0,-13.808739l-0.127859,0z"/>
     <path d="m254.646093,54.294205l-3.707902,0l0,-2.557174l10.612272,0l0,2.557174l-3.707902,0l0,11.123706l-3.196467,0l0,-11.123706z"/>
     <path d="m263.212625,51.86489c1.02287,-0.127859 2.557174,-0.255717 4.091478,-0.255717c2.045739,0 3.452185,0.255717 4.475054,1.02287c0.767152,0.639293 1.278587,1.662163 1.278587,2.94075c0,1.790022 -1.278587,2.94075 -2.429315,3.452185l0,0c1.02287,0.383576 1.534304,1.278587 1.790022,2.557174c0.383576,1.534304 0.895011,3.324326 1.150728,3.835761l-3.196467,0c-0.255717,-0.383576 -0.511435,-1.534304 -1.02287,-3.196467c-0.383576,-1.662163 -1.02287,-2.173598 -2.173598,-2.173598l-0.895011,0l0,5.370065l-3.068609,0l0,-13.553022zm3.068609,5.8815l1.278587,0c1.534304,0 2.429315,-0.767152 2.429315,-2.045739c0,-1.278587 -0.895011,-1.91788 -2.301456,-1.91788c-0.767152,0 -1.150728,0 -1.406446,0.127859l0,3.835761z"/>
     <path d="m283.542158,59.66427l-5.114348,0l0,3.324326l5.625783,0l0,2.557174l-8.82225,0l0,-13.808739l8.566532,0l0,2.557174l-5.370065,0l0,2.812891l5.114348,0l0,2.557174z"/>
     <path d="m289.551516,61.965727l-1.02287,3.580043l-3.196467,0l4.219337,-13.808739l4.091478,0l4.219337,13.808739l-3.324326,0l-1.02287,-3.580043l-3.96362,0zm3.452185,-2.429315l-0.895011,-2.94075c-0.255717,-0.767152 -0.511435,-1.790022 -0.639293,-2.685033l0,0c-0.255717,0.767152 -0.383576,1.91788 -0.639293,2.685033l-0.767152,2.94075l2.94075,0z"/>
     <path d="m299.780212,62.221444c0.895011,0.383576 2.173598,0.895011 3.452185,0.895011c1.406446,0 2.173598,-0.639293 2.173598,-1.534304c0,-0.895011 -0.639293,-1.406446 -2.301456,-1.91788c-2.301456,-0.767152 -3.835761,-2.045739 -3.835761,-4.091478c0,-2.301456 1.91788,-4.091478 5.242206,-4.091478c1.534304,0 2.685033,0.383576 3.580043,0.639293l-0.639293,2.557174c-0.511435,-0.255717 -1.534304,-0.639293 -2.94075,-0.639293c-1.406446,0 -2.045739,0.639293 -2.045739,1.278587c0,0.895011 0.767152,1.278587 2.557174,1.91788c2.429315,0.895011 3.580043,2.173598 3.580043,4.091478c0,2.301456 -1.790022,4.219337 -5.625783,4.219337c-1.534304,0 -3.068609,-0.383576 -3.96362,-0.895011l0.767152,-2.429315z"/>
     <path d="m313.844668,51.609173l0,7.927239c0,2.429315 0.895011,3.580043 2.557174,3.580043c1.662163,0 2.557174,-1.150728 2.557174,-3.580043l0,-7.927239l3.068609,0l0,7.79938c0,4.219337 -2.173598,6.265076 -5.753641,6.265076c-3.452185,0 -5.497924,-1.91788 -5.497924,-6.265076l0,-7.671522l3.068609,0l0,-0.127859z"/>
     <path d="m324.712657,51.86489c1.02287,-0.127859 2.557174,-0.255717 4.091478,-0.255717c2.045739,0 3.452185,0.255717 4.475054,1.02287c0.767152,0.639293 1.278587,1.662163 1.278587,2.94075c0,1.790022 -1.278587,2.94075 -2.429315,3.452185l0,0c1.02287,0.383576 1.534304,1.278587 1.790022,2.557174c0.383576,1.534304 0.895011,3.324326 1.150728,3.835761l-3.196467,0c-0.255717,-0.383576 -0.511435,-1.534304 -1.02287,-3.196467c-0.383576,-1.662163 -1.02287,-2.173598 -2.173598,-2.173598l-0.895011,0l0,5.370065l-3.068609,0l0,-13.553022zm3.068609,5.8815l1.278587,0c1.534304,0 2.429315,-0.767152 2.429315,-2.045739c0,-1.278587 -0.895011,-1.91788 -2.301456,-1.91788c-0.767152,0 -1.150728,0 -1.406446,0.127859l0,3.835761z"/>
     <path d="m339.672124,65.417912l0,-5.625783l-4.347196,-8.182956l3.580043,0l1.406446,3.324326c0.383576,1.02287 0.767152,1.790022 1.02287,2.685033l0,0c0.255717,-0.895011 0.639293,-1.662163 1.02287,-2.685033l1.406446,-3.324326l3.452185,0l-4.602913,8.055098l0,5.753641l-2.94075,0z"/>
     <path d="m132.924616,86.514596l-1.02287,3.580043l-3.196467,0l4.219337,-13.808739l4.091478,0l4.219337,13.808739l-3.324326,0l-1.02287,-3.580043l-3.96362,0zm3.452185,-2.429315l-0.895011,-2.94075c-0.255717,-0.767152 -0.511435,-1.790022 -0.639293,-2.685033l0,0c-0.255717,0.767152 -0.383576,1.91788 -0.639293,2.685033l-0.767152,2.94075l2.94075,0z"/>
     <path d="m143.153312,89.966781l0,-13.808739l3.580043,0l2.812891,5.114348c0.767152,1.406446 1.662163,3.196467 2.301456,4.730772l0,0c-0.255717,-1.790022 -0.255717,-3.707902 -0.255717,-5.753641l0,-4.091478l2.812891,0l0,13.808739l-3.324326,0l-2.94075,-5.370065c-0.767152,-1.534304 -1.662163,-3.196467 -2.429315,-4.85863l0,0c0.127859,1.790022 0.127859,3.707902 0.127859,6.009359l0,4.091478l-2.685033,0l0,0.127859z"/>
     <path d="m157.217768,76.413759c1.150728,-0.127859 2.685033,-0.255717 4.219337,-0.255717c2.557174,0 4.347196,0.511435 5.625783,1.534304c1.406446,1.02287 2.301456,2.812891 2.301456,5.242206c0,2.685033 -1.02287,4.475054 -2.301456,5.625783c-1.406446,1.150728 -3.707902,1.790022 -6.392935,1.790022c-1.662163,0 -2.812891,-0.127859 -3.580043,-0.255717l0,-13.68088l0.127859,0zm3.196467,11.251565c0.255717,0 0.639293,0 1.02287,0c2.812891,0 4.602913,-1.534304 4.602913,-4.85863c0,-2.812891 -1.662163,-4.347196 -4.347196,-4.347196c-0.639293,0 -1.150728,0 -1.406446,0.127859l0,9.077967l0.127859,0z"/>
     <path d="m175.62942,76.158042l8.438674,0l0,2.557174l-5.242206,0l0,3.196467l4.986489,0l0,2.557174l-4.986489,0l0,5.497924l-3.068609,0l0,-13.808739l-0.127859,0z"/>
     <path d="m189.566018,76.158042l0,13.808739l-3.068609,0l0,-13.808739l3.068609,0z"/>
     <path d="m192.25105,89.966781l0,-13.808739l3.580043,0l2.812891,5.114348c0.767152,1.406446 1.662163,3.196467 2.301456,4.730772l0,0c-0.255717,-1.790022 -0.255717,-3.707902 -0.255717,-5.753641l0,-4.091478l2.812891,0l0,13.808739l-3.324326,0l-2.94075,-5.370065c-0.767152,-1.534304 -1.662163,-3.196467 -2.429315,-4.85863l0,0c0.127859,1.790022 0.127859,3.707902 0.127859,6.009359l0,4.091478l-2.685033,0l0,0.127859z"/>
     <path d="m209.511974,86.514596l-1.02287,3.580043l-3.196467,0l4.219337,-13.808739l4.091478,0l4.219337,13.808739l-3.324326,0l-1.02287,-3.580043l-3.96362,0zm3.580043,-2.429315l-0.895011,-2.94075c-0.255717,-0.767152 -0.511435,-1.790022 -0.639293,-2.685033l0,0c-0.255717,0.767152 -0.383576,1.91788 -0.639293,2.685033l-0.767152,2.94075l2.94075,0z"/>
     <path d="m219.740669,89.966781l0,-13.808739l3.580043,0l2.812891,5.114348c0.767152,1.406446 1.662163,3.196467 2.301456,4.730772l0,0c-0.255717,-1.790022 -0.255717,-3.707902 -0.255717,-5.753641l0,-4.091478l2.812891,0l0,13.808739l-3.324326,0l-2.94075,-5.370065c-0.767152,-1.534304 -1.662163,-3.196467 -2.429315,-4.85863l0,0c0.127859,1.790022 0.127859,3.707902 0.127859,6.009359l0,4.091478l-2.685033,0l0,0.127859z"/>
     <path d="m244.033821,89.583205c-0.511435,0.255717 -1.91788,0.639293 -3.580043,0.639293c-4.730772,0 -7.287946,-2.94075 -7.287946,-6.904369c0,-4.730772 3.324326,-7.287946 7.543663,-7.287946c1.662163,0 2.812891,0.383576 3.452185,0.639293l-0.639293,2.429315c-0.639293,-0.255717 -1.534304,-0.511435 -2.557174,-0.511435c-2.429315,0 -4.347196,1.534304 -4.347196,4.602913c0,2.812891 1.662163,4.475054 4.475054,4.475054c0.895011,0 2.045739,-0.255717 2.557174,-0.511435l0.383576,2.429315z"/>
     <path d="m254.262517,84.21314l-5.114348,0l0,3.324326l5.625783,0l0,2.557174l-8.82225,0l0,-13.808739l8.566532,0l0,2.557174l-5.370065,0l0,2.812891l5.114348,0l0,2.557174z"/>
    </g>
   </g>
   
  </g>
 </g>
</svg>