<svg width="210" height="210" xmlns="http://www.w3.org/2000/svg">
 <g fill="#003773">
  <g>
   <g>
    <g>
     <g>
      <g>
       <path d="m174.971037,174.443209l-3.645249,0c-0.683484,0 -0.911312,-0.911312 -0.455656,-1.366968l1.13914,-0.911312c0.911312,-0.683484 2.050452,-1.13914 3.189593,-1.13914l3.645249,0c0.683484,0 0.911312,0.911312 0.455656,1.366968l-1.13914,0.911312c-0.911312,0.683484 -2.050452,1.13914 -3.189593,1.13914"/>
       <path d="m179.755426,169.430992l-3.645249,0.227828c-0.683484,0 -1.13914,-0.911312 -0.455656,-1.366968l0.911312,-0.911312c0.911312,-0.911312 1.822624,-1.366968 2.961765,-1.366968l3.645249,-0.227828c0.683484,0 1.13914,0.911312 0.455656,1.366968l-0.911312,0.911312c-0.911312,0.683484 -1.822624,1.366968 -2.961765,1.366968"/>
       <path d="m184.084159,163.963119l-3.645249,0.455656c-0.683484,0 -1.13914,-0.683484 -0.683484,-1.366968l0.911312,-1.13914c0.683484,-0.911312 1.822624,-1.366968 2.961765,-1.594796l3.645249,-0.455656c0.683484,0 1.13914,0.683484 0.683484,1.366968l-0.911312,1.13914c-0.911312,0.911312 -1.822624,1.594796 -2.961765,1.594796"/>
       <path d="m187.957236,158.267418l-3.417421,0.683484c-0.683484,0.227828 -1.13914,-0.683484 -0.683484,-1.366968l0.911312,-1.13914c0.683484,-0.911312 1.594796,-1.594796 2.733937,-1.822624l3.417421,-0.683484c0.683484,-0.227828 1.13914,0.683484 0.683484,1.366968l-0.911312,1.13914c-0.683484,1.13914 -1.594796,1.594796 -2.733937,1.822624"/>
       <path d="m191.602485,152.343888l-3.417421,0.911312c-0.683484,0.227828 -1.13914,-0.683484 -0.911312,-1.13914l0.683484,-1.13914c0.683484,-0.911312 1.594796,-1.594796 2.733937,-2.050452l3.417421,-0.911312c0.683484,-0.227828 1.13914,0.683484 0.911312,1.13914l-0.683484,1.13914c-0.683484,1.13914 -1.594796,1.822624 -2.733937,2.050452"/>
       <path d="m194.792078,146.192531l-3.417421,1.13914c-0.683484,0.227828 -1.366968,-0.455656 -0.911312,-1.13914l0.683484,-1.13914c0.683484,-0.911312 1.366968,-1.822624 2.506109,-2.27828l3.417421,-1.13914c0.683484,-0.227828 1.366968,0.455656 0.911312,1.13914l-0.683484,1.13914c-0.683484,1.13914 -1.594796,2.050452 -2.506109,2.27828"/>
       <path d="m197.298186,139.813346l-3.189593,1.366968c-0.683484,0.227828 -1.366968,-0.455656 -0.911312,-1.13914l0.683484,-1.13914c0.455656,-1.13914 1.366968,-1.822624 2.27828,-2.27828l3.189593,-1.366968c0.683484,-0.227828 1.366968,0.455656 0.911312,1.13914l-0.683484,1.13914c-0.227828,1.13914 -1.13914,1.822624 -2.27828,2.27828"/>
       <path d="m199.576467,133.43416l-3.189593,1.594796c-0.683484,0.227828 -1.366968,-0.455656 -1.13914,-0.911312l0.455656,-1.366968c0.455656,-1.13914 1.13914,-2.050452 2.27828,-2.506109l3.189593,-1.594796c0.683484,-0.227828 1.366968,0.455656 1.13914,0.911312l-0.455656,1.366968c-0.455656,1.13914 -1.13914,1.822624 -2.27828,2.506109"/>
       <path d="m201.399091,126.599319l-2.961765,1.822624c-0.683484,0.455656 -1.366968,-0.227828 -1.13914,-0.911312l0.455656,-1.366968c0.455656,-1.13914 1.13914,-2.050452 2.050452,-2.733937l2.961765,-1.822624c0.683484,-0.455656 1.366968,0.227828 1.13914,0.911312l-0.455656,1.366968c-0.455656,1.366968 -1.13914,2.27828 -2.050452,2.733937"/>
       <path d="m202.766059,119.992305l-2.961765,2.050452c-0.455656,0.455656 -1.366968,-0.227828 -1.13914,-0.911312l0.227828,-1.366968c0.227828,-1.13914 0.911312,-2.050452 1.822624,-2.733937l2.961765,-2.050452c0.455656,-0.455656 1.366968,0.227828 1.13914,0.911312l-0.227828,1.366968c-0.227828,0.911312 -0.911312,2.050452 -1.822624,2.733937"/>
       <path d="m203.449544,112.929636l-2.733937,2.27828c-0.455656,0.455656 -1.366968,0 -1.366968,-0.683484l0.227828,-1.366968c0.227828,-1.13914 0.683484,-2.27828 1.594796,-2.961765l2.733937,-2.27828c0.455656,-0.455656 1.366968,0 1.13914,0.683484l-0.227828,1.366968c0.227828,1.366968 -0.455656,2.27828 -1.366968,2.961765"/>
       <path d="m203.9052,106.094794l-2.506109,2.506109c-0.455656,0.455656 -1.366968,0 -1.366968,-0.683484l0.227828,-1.366968c0,-1.13914 0.683484,-2.27828 1.366968,-2.961765l2.506109,-2.506109c0.455656,-0.455656 1.366968,0 1.366968,0.683484l-0.227828,1.366968c0,1.13914 -0.455656,2.27828 -1.366968,2.961765"/>
       <path d="m203.677372,99.259953l-2.506109,2.733937c-0.455656,0.455656 -1.366968,0.227828 -1.366968,-0.683484l0,-1.366968c0,-1.13914 0.455656,-2.27828 1.13914,-3.189593l2.506109,-2.733937c0.455656,-0.455656 1.366968,-0.227828 1.366968,0.683484l0,1.366968c0.227828,1.13914 -0.227828,2.27828 -1.13914,3.189593"/>
       <path d="m203.221716,92.425111l-2.27828,2.733937c-0.455656,0.455656 -1.366968,0.227828 -1.366968,-0.455656l0,-1.366968c0,-1.13914 0.227828,-2.27828 0.911312,-3.189593l2.27828,-2.733937c0.455656,-0.455656 1.366968,-0.227828 1.366968,0.455656l0,1.366968c0,1.13914 -0.227828,2.27828 -0.911312,3.189593"/>
       <path d="m202.082575,85.59027l-2.050452,2.961765c-0.455656,0.683484 -1.366968,0.227828 -1.366968,-0.455656l-0.227828,-1.366968c-0.227828,-1.13914 0.227828,-2.27828 0.683484,-3.189593l2.050452,-2.961765c0.455656,-0.683484 1.366968,-0.227828 1.366968,0.455656l0.227828,1.366968c0.227828,0.911312 0,2.050452 -0.683484,3.189593"/>
       <path d="m200.487779,78.755428l-1.822624,3.189593c-0.455656,0.683484 -1.366968,0.455656 -1.366968,-0.227828l-0.227828,-1.366968c-0.227828,-1.13914 0,-2.27828 0.455656,-3.189593l1.822624,-3.189593c0.455656,-0.683484 1.366968,-0.455656 1.366968,0.227828l0.227828,1.366968c0.227828,1.13914 0.227828,2.27828 -0.455656,3.189593"/>
       <path d="m198.437326,72.148415l-1.594796,3.189593c-0.227828,0.683484 -1.366968,0.455656 -1.366968,-0.227828l-0.455656,-1.366968c-0.227828,-1.13914 -0.227828,-2.27828 0.227828,-3.417421l1.594796,-3.189593c0.227828,-0.683484 1.366968,-0.455656 1.366968,0.227828l0.455656,1.366968c0.455656,1.13914 0.227828,2.506109 -0.227828,3.417421"/>
       <path d="m195.931218,65.76923l-1.366968,3.417421c-0.227828,0.683484 -1.13914,0.683484 -1.366968,0l-0.455656,-1.366968c-0.455656,-1.13914 -0.455656,-2.27828 0,-3.417421l1.366968,-3.417421c0.227828,-0.683484 1.13914,-0.683484 1.366968,0l0.455656,1.366968c0.455656,1.13914 0.455656,2.27828 0,3.417421"/>
       <path d="m192.969453,59.390044l-1.13914,3.417421c-0.227828,0.683484 -1.13914,0.683484 -1.366968,0l-0.455656,-1.366968c-0.455656,-1.13914 -0.455656,-2.27828 -0.227828,-3.417421l1.13914,-3.417421c0.227828,-0.683484 1.13914,-0.683484 1.366968,0l0.455656,1.366968c0.683484,1.13914 0.683484,2.27828 0.227828,3.417421"/>
       <path d="m189.779861,53.466515l-0.911312,3.417421c-0.227828,0.683484 -1.13914,0.683484 -1.366968,0l-0.683484,-1.13914c-0.455656,-1.13914 -0.683484,-2.27828 -0.455656,-3.189593l0.911312,-3.417421c0.227828,-0.683484 1.13914,-0.683484 1.366968,0l0.683484,1.13914c0.455656,0.911312 0.683484,2.050452 0.455656,3.189593"/>
       <path d="m185.906784,47.542986l-0.683484,3.645249c-0.227828,0.683484 -1.13914,0.911312 -1.366968,0.227828l-0.683484,-1.13914c-0.683484,-0.911312 -0.911312,-2.050452 -0.683484,-3.189593l0.683484,-3.645249c0.227828,-0.683484 1.13914,-0.911312 1.366968,-0.227828l0.683484,1.13914c0.683484,0.911312 0.911312,2.050452 0.683484,3.189593"/>
       <path d="m181.805879,42.075112l-0.455656,3.645249c0,0.683484 -1.13914,0.911312 -1.366968,0.227828l-0.683484,-1.13914c-0.683484,-0.911312 -0.911312,-2.050452 -0.911312,-3.189593l0.455656,-3.645249c0,-0.683484 1.13914,-0.911312 1.366968,-0.227828l0.683484,1.13914c0.683484,0.911312 0.911312,2.050452 0.911312,3.189593"/>
       <path d="m177.249318,36.835067l-0.227828,3.645249c0,0.683484 -0.911312,0.911312 -1.366968,0.455656l-0.911312,-1.13914c-0.683484,-0.911312 -1.13914,-2.050452 -1.13914,-3.189593l0.227828,-3.645249c0,-0.683484 0.911312,-0.911312 1.366968,-0.455656l0.911312,1.13914c0.683484,0.911312 1.13914,2.050452 1.13914,3.189593"/>
       <path d="m172.237101,32.050678l0.227828,3.645249c0,0.683484 -0.911312,1.13914 -1.366968,0.455656l-0.911312,-0.911312c-0.683484,-0.911312 -1.13914,-2.050452 -1.366968,-2.961765l-0.227828,-3.645249c0,-0.683484 0.911312,-1.13914 1.366968,-0.455656l0.911312,0.911312c0.911312,0.683484 1.366968,1.822624 1.366968,2.961765"/>
       <path d="m167.224884,27.494117l0.455656,3.645249c0,0.683484 -0.911312,1.13914 -1.366968,0.683484l-0.911312,-0.911312c-0.911312,-0.683484 -1.366968,-1.822624 -1.594796,-2.961765l-0.455656,-3.645249c0,-0.683484 0.911312,-1.13914 1.366968,-0.683484l0.911312,0.911312c0.911312,0.683484 1.366968,1.822624 1.594796,2.961765"/>
       <path d="m161.529182,23.393212l0.683484,3.645249c0.227828,0.683484 -0.683484,1.13914 -1.366968,0.683484l-1.13914,-0.911312c-0.911312,-0.683484 -1.594796,-1.822624 -1.594796,-2.961765l-0.683484,-3.645249c-0.227828,-0.683484 0.683484,-1.13914 1.366968,-0.683484l1.13914,0.911312c0.911312,0.683484 1.366968,1.822624 1.594796,2.961765"/>
       <path d="m155.833481,19.520135l0.911312,3.417421c0.227828,0.683484 -0.683484,1.13914 -1.13914,0.683484l-1.13914,-0.683484c-0.911312,-0.683484 -1.594796,-1.594796 -1.822624,-2.733937l-0.911312,-3.417421c-0.227828,-0.683484 0.683484,-1.13914 1.13914,-0.683484l1.13914,0.683484c0.911312,0.683484 1.594796,1.594796 1.822624,2.733937"/>
       <path d="m149.682124,16.102715l1.13914,3.417421c0.227828,0.683484 -0.683484,1.13914 -1.13914,0.911312l-1.13914,-0.683484c-0.911312,-0.683484 -1.822624,-1.594796 -2.050452,-2.506109l-1.13914,-3.417421c-0.227828,-0.683484 0.683484,-1.13914 1.13914,-0.911312l1.13914,0.683484c0.911312,0.683484 1.822624,1.594796 2.050452,2.506109"/>
       <path d="m143.530767,13.368778l1.366968,3.417421c0.227828,0.683484 -0.455656,1.366968 -1.13914,0.911312l-1.13914,-0.683484c-1.13914,-0.455656 -1.822624,-1.366968 -2.27828,-2.506109l-1.366968,-3.417421c-0.227828,-0.683484 0.455656,-1.366968 1.13914,-0.911312l1.13914,0.683484c0.911312,0.455656 1.822624,1.366968 2.27828,2.506109"/>
       <path d="m136.923753,10.86267l1.594796,3.189593c0.227828,0.683484 -0.455656,1.366968 -1.13914,1.13914l-1.366968,-0.455656c-1.13914,-0.455656 -1.822624,-1.366968 -2.506109,-2.27828l-1.594796,-3.189593c-0.227828,-0.683484 0.455656,-1.366968 1.13914,-0.911312l1.366968,0.455656c1.13914,0.227828 2.050452,0.911312 2.506109,2.050452"/>
       <path d="m130.31674,8.812217l1.822624,3.189593c0.455656,0.683484 -0.227828,1.366968 -0.911312,1.13914l-1.366968,-0.455656c-1.13914,-0.455656 -2.050452,-1.13914 -2.506109,-2.050452l-1.822624,-3.189593c-0.455656,-0.683484 0.227828,-1.366968 0.911312,-1.13914l1.366968,0.455656c1.13914,0.227828 2.050452,1.13914 2.506109,2.050452"/>
       <path d="m123.709726,7.217421l2.050452,2.961765c0.455656,0.683484 -0.227828,1.366968 -0.911312,1.13914l-1.366968,-0.455656c-1.13914,-0.227828 -2.050452,-0.911312 -2.733937,-1.822624l-2.050452,-2.961765c-0.455656,-0.683484 0.227828,-1.366968 0.911312,-1.13914l1.366968,0.455656c1.13914,0.227828 2.050452,0.911312 2.733937,1.822624"/>
       <path d="m116.874885,6.078281l2.27828,2.733937c0.455656,0.455656 -0.227828,1.366968 -0.911312,1.13914l-1.366968,-0.227828c-1.13914,-0.227828 -2.050452,-0.911312 -2.961765,-1.822624l-2.27828,-2.733937c-0.455656,-0.455656 0.227828,-1.366968 0.911312,-1.13914l1.366968,0.227828c1.13914,0.455656 2.27828,0.911312 2.961765,1.822624"/>
       <path d="m109.812215,5.622624l2.506109,2.733937c0.455656,0.455656 0,1.366968 -0.683484,1.366968l-1.366968,-0.227828c-1.13914,-0.227828 -2.27828,-0.683484 -2.961765,-1.594796l-2.506109,-2.733937c-0.455656,-0.455656 0,-1.366968 0.683484,-1.366968l1.366968,0.227828c1.366968,0.227828 2.27828,0.683484 2.961765,1.594796"/>
       <path d="m102.977374,5.394796l2.506109,2.506109c0.455656,0.455656 0,1.366968 -0.683484,1.366968l-1.366968,0c-1.13914,0 -2.27828,-0.455656 -2.961765,-1.366968l-2.506109,-2.506109c-0.455656,-0.455656 0,-1.366968 0.683484,-1.366968l1.366968,0c1.13914,0.227828 2.27828,0.683484 2.961765,1.366968"/>
       <path d="m96.142532,5.850453l2.733937,2.27828c0.455656,0.455656 0.227828,1.366968 -0.455656,1.366968l-1.366968,0c-1.13914,0 -2.27828,-0.455656 -3.189593,-1.13914l-2.733937,-2.27828c-0.455656,-0.455656 -0.227828,-1.366968 0.455656,-1.366968l1.366968,0c1.13914,0 2.27828,0.455656 3.189593,1.13914"/>
       <path d="m89.307691,6.761765l2.961765,2.050452c0.455656,0.455656 0.227828,1.366968 -0.455656,1.366968l-1.366968,0c-1.13914,0 -2.27828,-0.227828 -3.189593,-0.911312l-2.961765,-2.050452c-0.455656,-0.455656 -0.227828,-1.366968 0.455656,-1.366968l1.366968,0c1.13914,-0.227828 2.27828,0.227828 3.189593,0.911312"/>
       <path d="m82.472849,7.900905l2.961765,1.822624c0.683484,0.455656 0.455656,1.366968 -0.455656,1.366968l-1.366968,0.227828c-1.13914,0.227828 -2.27828,0 -3.189593,-0.683484l-2.961765,-1.822624c-0.683484,-0.455656 -0.455656,-1.366968 0.455656,-1.366968l1.366968,-0.227828c1.13914,0 2.27828,0.227828 3.189593,0.683484"/>
       <path d="m75.865836,9.723529l3.189593,1.594796c0.683484,0.227828 0.455656,1.366968 -0.227828,1.366968l-1.366968,0.227828c-1.13914,0.227828 -2.27828,0 -3.189593,-0.455656l-3.189593,-1.594796c-0.683484,-0.227828 -0.455656,-1.366968 0.227828,-1.366968l1.366968,-0.227828c0.911312,-0.227828 2.050452,0 3.189593,0.455656"/>
       <path d="m69.258822,12.00181l3.189593,1.366968c0.683484,0.227828 0.455656,1.366968 -0.227828,1.366968l-1.366968,0.455656c-1.13914,0.227828 -2.27828,0.227828 -3.417421,-0.227828l-3.189593,-1.366968c-0.683484,-0.227828 -0.455656,-1.366968 0.227828,-1.366968l1.366968,-0.455656c1.13914,-0.227828 2.27828,-0.227828 3.417421,0.227828"/>
       <path d="m62.879637,14.735746l3.417421,1.13914c0.683484,0.227828 0.683484,1.13914 0,1.366968l-1.366968,0.455656c-1.13914,0.455656 -2.27828,0.455656 -3.417421,0l-3.417421,-1.13914c-0.683484,-0.227828 -0.683484,-1.13914 0,-1.366968l1.366968,-0.455656c1.13914,-0.227828 2.27828,-0.455656 3.417421,0"/>
       <path d="m56.72828,17.925339l3.417421,0.911312c0.683484,0.227828 0.683484,1.13914 0,1.366968l-1.13914,0.683484c-1.13914,0.455656 -2.27828,0.683484 -3.417421,0.227828l-3.417421,-0.911312c-0.683484,-0.227828 -0.683484,-1.13914 0,-1.366968l1.13914,-0.683484c1.13914,-0.455656 2.27828,-0.455656 3.417421,-0.227828"/>
       <path d="m50.80475,21.570588l3.417421,0.683484c0.683484,0.227828 0.683484,1.13914 0.227828,1.366968l-1.13914,0.683484c-0.911312,0.455656 -2.27828,0.683484 -3.189593,0.455656l-3.417421,-0.683484c-0.683484,-0.227828 -0.683484,-1.13914 -0.227828,-1.366968l1.13914,-0.683484c0.911312,-0.683484 2.050452,-0.683484 3.189593,-0.455656"/>
       <path d="m45.109049,25.443665l3.645249,0.455656c0.683484,0 0.911312,1.13914 0.227828,1.366968l-1.13914,0.683484c-0.911312,0.683484 -2.050452,0.911312 -3.189593,0.683484l-3.645249,-0.455656c-0.683484,0 -0.911312,-1.13914 -0.227828,-1.366968l1.13914,-0.683484c0.911312,-0.683484 2.050452,-0.911312 3.189593,-0.683484"/>
       <path d="m39.641176,29.772398l3.645249,0.227828c0.683484,0 0.911312,0.911312 0.455656,1.366968l-1.13914,0.911312c-0.911312,0.683484 -2.050452,1.13914 -3.189593,0.911312l-3.645249,-0.227828c-0.683484,0 -0.911312,-0.911312 -0.455656,-1.366968l1.13914,-0.911312c0.911312,-0.683484 2.050452,-0.911312 3.189593,-0.911312"/>
       <path d="m34.628959,34.556787l3.645249,0c0.683484,0 0.911312,0.911312 0.455656,1.366968l-1.13914,0.911312c-0.911312,0.683484 -2.050452,1.13914 -3.189593,1.13914l-3.645249,0c-0.683484,0 -0.911312,-0.911312 -0.455656,-1.366968l1.13914,-0.911312c0.911312,-0.683484 2.050452,-1.13914 3.189593,-1.13914"/>
       <path d="m30.072398,39.569004l3.645249,-0.227828c0.683484,0 1.13914,0.911312 0.455656,1.366968l-0.911312,0.911312c-0.911312,0.911312 -1.822624,1.366968 -2.961765,1.366968l-3.645249,0.227828c-0.683484,0 -1.13914,-0.911312 -0.455656,-1.366968l0.911312,-0.911312c0.683484,-0.683484 1.822624,-1.366968 2.961765,-1.366968"/>
       <path d="m25.515837,45.036877l3.645249,-0.455656c0.683484,0 1.13914,0.683484 0.683484,1.366968l-0.911312,1.13914c-0.683484,0.911312 -1.822624,1.366968 -2.961765,1.594796l-3.645249,0.455656c-0.683484,0 -1.13914,-0.683484 -0.683484,-1.366968l0.911312,-1.13914c0.911312,-0.911312 2.050452,-1.594796 2.961765,-1.594796"/>
       <path d="m21.64276,50.732578l3.417421,-0.683484c0.683484,-0.227828 1.13914,0.683484 0.683484,1.366968l-0.911312,1.13914c-0.683484,0.911312 -1.594796,1.594796 -2.733937,1.822624l-3.417421,0.683484c-0.683484,0.227828 -1.13914,-0.683484 -0.683484,-1.366968l0.911312,-1.13914c0.683484,-1.13914 1.594796,-1.594796 2.733937,-1.822624"/>
       <path d="m17.997511,56.656108l3.417421,-0.911312c0.683484,-0.227828 1.13914,0.683484 0.911312,1.13914l-0.683484,1.13914c-0.683484,0.911312 -1.594796,1.594796 -2.733937,2.050452l-3.417421,0.911312c-0.683484,0.227828 -1.13914,-0.683484 -0.911312,-1.13914l0.683484,-1.13914c0.911312,-1.13914 1.822624,-1.822624 2.733937,-2.050452"/>
       <path d="m15.035747,62.807465l3.417421,-1.13914c0.683484,-0.227828 1.366968,0.455656 0.911312,1.13914l-0.683484,1.13914c-0.683484,0.911312 -1.366968,1.822624 -2.506109,2.27828l-3.417421,1.13914c-0.683484,0.227828 -1.366968,-0.455656 -0.911312,-1.13914l0.683484,-1.13914c0.455656,-1.13914 1.366968,-2.050452 2.506109,-2.27828"/>
       <path d="m12.30181,69.18665l3.189593,-1.366968c0.683484,-0.227828 1.366968,0.455656 0.911312,1.13914l-0.683484,1.13914c-0.455656,1.13914 -1.366968,1.822624 -2.27828,2.27828l-3.189593,1.366968c-0.683484,0.227828 -1.366968,-0.455656 -0.911312,-1.13914l0.683484,-1.13914c0.455656,-1.13914 1.13914,-1.822624 2.27828,-2.27828"/>
       <path d="m10.023529,75.565836l3.189593,-1.594796c0.683484,-0.227828 1.366968,0.455656 1.13914,0.911312l-0.455656,1.366968c-0.455656,1.13914 -1.13914,2.050452 -2.27828,2.506109l-3.189593,1.594796c-0.683484,0.227828 -1.366968,-0.455656 -1.13914,-0.911312l0.455656,-1.366968c0.455656,-0.911312 1.366968,-1.822624 2.27828,-2.506109"/>
       <path d="m8.200905,82.400677l2.961765,-1.822624c0.683484,-0.455656 1.366968,0.227828 1.13914,0.911312l-0.455656,1.366968c-0.455656,1.13914 -1.13914,2.050452 -2.050452,2.733937l-2.961765,1.822624c-0.683484,0.455656 -1.366968,-0.227828 -1.13914,-0.911312l0.455656,-1.366968c0.455656,-1.366968 1.13914,-2.27828 2.050452,-2.733937"/>
       <path d="m6.833937,89.007691l2.961765,-2.050452c0.455656,-0.455656 1.366968,0.227828 1.13914,0.911312l-0.227828,1.366968c-0.227828,1.13914 -0.911312,2.050452 -1.822624,2.733937l-2.961765,2.050452c-0.455656,0.455656 -1.366968,-0.227828 -1.13914,-0.911312l0.227828,-1.366968c0.455656,-0.911312 0.911312,-2.050452 1.822624,-2.733937"/>
       <path d="m6.150453,96.07036l2.733937,-2.27828c0.455656,-0.455656 1.366968,0 1.13914,0.683484l-0.227828,1.366968c-0.227828,1.13914 -0.683484,2.27828 -1.594796,2.961765l-2.733937,2.27828c-0.455656,0.455656 -1.366968,0 -1.13914,-0.683484l0.227828,-1.366968c0,-1.366968 0.683484,-2.27828 1.594796,-2.961765"/>
       <path d="m5.694796,102.905202l2.506109,-2.506109c0.455656,-0.455656 1.366968,0 1.366968,0.683484l-0.227828,1.366968c0,1.13914 -0.683484,2.27828 -1.366968,2.961765l-2.506109,2.506109c-0.455656,0.455656 -1.366968,0 -1.366968,-0.683484l0.227828,-1.366968c0,-1.13914 0.683484,-2.27828 1.366968,-2.961765"/>
       <path d="m5.922625,109.740043l2.506109,-2.733937c0.455656,-0.455656 1.366968,-0.227828 1.366968,0.683484l0,1.366968c0,1.13914 -0.455656,2.27828 -1.13914,3.189593l-2.506109,2.733937c-0.455656,0.455656 -1.366968,0 -1.366968,-0.683484l0,-1.366968c0,-1.13914 0.227828,-2.27828 1.13914,-3.189593"/>
       <path d="m6.378281,116.574885l2.27828,-2.733937c0.455656,-0.455656 1.366968,-0.227828 1.366968,0.455656l0,1.366968c0,1.13914 -0.227828,2.27828 -0.911312,3.189593l-2.27828,2.733937c-0.455656,0.455656 -1.366968,0.227828 -1.366968,-0.455656l0,-1.366968c0,-1.13914 0.227828,-2.27828 0.911312,-3.189593"/>
       <path d="m7.517421,123.409726l2.050452,-2.961765c0.455656,-0.683484 1.366968,-0.227828 1.366968,0.455656l0.227828,1.366968c0.227828,1.13914 -0.227828,2.27828 -0.683484,3.189593l-2.050452,2.961765c-0.455656,0.683484 -1.366968,0.227828 -1.366968,-0.455656l-0.227828,-1.366968c-0.227828,-0.911312 0,-2.050452 0.683484,-3.189593"/>
       <path d="m9.112217,130.244568l1.822624,-3.189593c0.455656,-0.683484 1.366968,-0.455656 1.366968,0.227828l0.227828,1.366968c0.227828,1.13914 0,2.27828 -0.455656,3.189593l-1.822624,3.189593c-0.455656,0.683484 -1.366968,0.455656 -1.366968,-0.227828l-0.227828,-1.366968c-0.227828,-1.13914 0,-2.27828 0.455656,-3.189593"/>
       <path d="m11.16267,136.851581l1.594796,-3.189593c0.227828,-0.683484 1.366968,-0.455656 1.366968,0.227828l0.455656,1.366968c0.227828,1.13914 0.227828,2.27828 -0.227828,3.417421l-1.594796,3.189593c-0.227828,0.683484 -1.366968,0.455656 -1.366968,-0.227828l-0.455656,-1.366968c-0.455656,-1.13914 -0.227828,-2.506109 0.227828,-3.417421"/>
       <path d="m13.668778,143.230766l1.366968,-3.417421c0.227828,-0.683484 1.13914,-0.683484 1.366968,0l0.455656,1.366968c0.455656,1.13914 0.455656,2.27828 0,3.417421l-1.366968,3.417421c-0.227828,0.683484 -1.13914,0.683484 -1.366968,0l-0.455656,-1.366968c-0.455656,-1.13914 -0.455656,-2.27828 0,-3.417421"/>
       <path d="m16.630543,149.609952l1.13914,-3.417421c0.227828,-0.683484 1.13914,-0.683484 1.366968,0l0.455656,1.366968c0.455656,1.13914 0.455656,2.27828 0.227828,3.417421l-1.13914,3.417421c-0.227828,0.683484 -1.13914,0.683484 -1.366968,0l-0.455656,-1.366968c-0.683484,-1.13914 -0.683484,-2.27828 -0.227828,-3.417421"/>
       <path d="m19.820136,155.533481l0.911312,-3.417421c0.227828,-0.683484 1.13914,-0.683484 1.366968,0l0.683484,1.13914c0.455656,1.13914 0.683484,2.27828 0.455656,3.417421l-0.911312,3.417421c-0.227828,0.683484 -1.13914,0.683484 -1.366968,0l-0.683484,-1.13914c-0.455656,-1.13914 -0.683484,-2.27828 -0.455656,-3.417421"/>
       <path d="m23.693212,161.45701l0.683484,-3.645249c0.227828,-0.683484 1.13914,-0.911312 1.366968,-0.227828l0.683484,1.13914c0.683484,0.911312 0.911312,2.050452 0.683484,3.189593l-0.683484,3.645249c-0.227828,0.683484 -1.13914,0.911312 -1.366968,0.227828l-0.683484,-1.13914c-0.683484,-0.911312 -0.911312,-2.050452 -0.683484,-3.189593"/>
       <path d="m27.794117,166.924884l0.455656,-3.645249c0,-0.683484 1.13914,-0.911312 1.366968,-0.227828l0.683484,1.13914c0.683484,0.911312 0.911312,2.050452 0.911312,3.189593l-0.455656,3.645249c0,0.683484 -1.13914,0.911312 -1.366968,0.227828l-0.683484,-1.13914c-0.683484,-0.911312 -0.911312,-2.050452 -0.911312,-3.189593"/>
       <path d="m32.350678,172.164929l0.227828,-3.645249c0,-0.683484 0.911312,-0.911312 1.366968,-0.455656l0.911312,1.13914c0.683484,0.911312 1.13914,2.050452 1.13914,3.189593l-0.227828,3.645249c0,0.683484 -0.911312,0.911312 -1.366968,0.455656l-0.911312,-1.13914c-0.683484,-0.911312 -1.13914,-2.050452 -1.13914,-3.189593"/>
       <path d="m37.362895,176.949318l-0.227828,-3.645249c0,-0.683484 0.911312,-1.13914 1.366968,-0.455656l0.911312,0.911312c0.683484,0.911312 1.13914,2.050452 1.366968,2.961765l0.227828,3.645249c0,0.683484 -0.911312,1.13914 -1.366968,0.455656l-0.911312,-0.911312c-0.911312,-0.683484 -1.366968,-1.822624 -1.366968,-2.961765"/>
       <path d="m42.602941,181.505879l-0.455656,-3.645249c0,-0.683484 0.911312,-1.13914 1.366968,-0.683484l0.911312,0.911312c0.911312,0.683484 1.366968,1.822624 1.594796,2.961765l0.455656,3.645249c0,0.683484 -0.911312,1.13914 -1.366968,0.683484l-0.911312,-0.911312c-0.911312,-0.683484 -1.594796,-1.822624 -1.594796,-2.961765"/>
       <path d="m48.070814,185.606784l-0.683484,-3.645249c-0.227828,-0.683484 0.683484,-1.13914 1.366968,-0.683484l1.13914,0.911312c0.911312,0.683484 1.594796,1.822624 1.594796,2.961765l0.683484,3.645249c0.227828,0.683484 -0.683484,1.13914 -1.366968,0.683484l-1.13914,-0.911312c-0.911312,-0.683484 -1.366968,-1.822624 -1.594796,-2.961765"/>
       <path d="m53.766515,189.479861l-0.911312,-3.417421c-0.227828,-0.683484 0.683484,-1.13914 1.13914,-0.683484l1.13914,0.683484c0.911312,0.683484 1.594796,1.594796 1.822624,2.733937l0.911312,3.417421c0.227828,0.683484 -0.683484,1.13914 -1.13914,0.683484l-1.13914,-0.683484c-0.683484,-0.683484 -1.366968,-1.594796 -1.822624,-2.733937"/>
       <path d="m59.917872,192.897281l-1.13914,-3.417421c-0.227828,-0.683484 0.683484,-1.13914 1.13914,-0.911312l1.13914,0.683484c0.911312,0.683484 1.822624,1.594796 2.050452,2.506109l1.13914,3.417421c0.227828,0.683484 -0.683484,1.13914 -1.13914,0.911312l-1.13914,-0.683484c-0.911312,-0.683484 -1.594796,-1.594796 -2.050452,-2.506109"/>
       <path d="m66.297058,195.631218l-1.366968,-3.417421c-0.227828,-0.683484 0.455656,-1.366968 1.13914,-0.911312l1.13914,0.683484c1.13914,0.455656 1.822624,1.366968 2.27828,2.506109l1.366968,3.417421c0.227828,0.683484 -0.455656,1.366968 -1.13914,0.911312l-1.13914,-0.683484c-1.13914,-0.455656 -2.050452,-1.366968 -2.27828,-2.506109"/>
       <path d="m72.676243,198.137326l-1.594796,-3.189593c-0.227828,-0.683484 0.455656,-1.366968 1.13914,-1.13914l1.366968,0.455656c1.13914,0.455656 1.822624,1.366968 2.506109,2.27828l1.594796,3.189593c0.227828,0.683484 -0.455656,1.366968 -1.13914,0.911312l-1.366968,-0.455656c-1.13914,-0.227828 -2.050452,-0.911312 -2.506109,-2.050452"/>
       <path d="m79.283257,200.187779l-1.822624,-3.189593c-0.455656,-0.683484 0.227828,-1.366968 0.911312,-1.13914l1.366968,0.455656c1.13914,0.455656 2.050452,1.13914 2.506109,2.050452l1.822624,3.189593c0.455656,0.683484 -0.227828,1.366968 -0.911312,1.13914l-1.366968,-0.455656c-1.13914,-0.227828 -2.050452,-1.13914 -2.506109,-2.050452"/>
       <path d="m86.118098,201.782575l-2.050452,-2.961765c-0.455656,-0.683484 0.227828,-1.366968 0.911312,-1.13914l1.366968,0.455656c1.13914,0.227828 2.050452,0.911312 2.733937,1.822624l2.050452,2.961765c0.455656,0.683484 -0.227828,1.366968 -0.911312,1.13914l-1.366968,-0.455656c-1.13914,-0.227828 -2.27828,-0.911312 -2.733937,-1.822624"/>
       <path d="m92.952939,202.921715l-2.27828,-2.733937c-0.455656,-0.455656 0.227828,-1.366968 0.911312,-1.13914l1.366968,0.227828c1.13914,0.227828 2.050452,0.911312 2.961765,1.822624l2.27828,2.733937c0.455656,0.455656 -0.227828,1.366968 -0.911312,1.13914l-1.366968,-0.227828c-1.366968,-0.455656 -2.27828,-0.911312 -2.961765,-1.822624"/>
       <path d="m99.787781,203.377372l-2.506109,-2.733937c-0.455656,-0.455656 0,-1.366968 0.683484,-1.366968l1.366968,0.227828c1.13914,0.227828 2.27828,0.683484 2.961765,1.594796l2.506109,2.733937c0.455656,0.455656 0,1.366968 -0.683484,1.366968l-1.366968,-0.227828c-1.13914,-0.227828 -2.27828,-0.683484 -2.961765,-1.594796"/>
       <path d="m106.622622,203.6052l-2.506109,-2.506109c-0.455656,-0.455656 0,-1.366968 0.683484,-1.366968l1.366968,0c1.13914,0 2.27828,0.455656 2.961765,1.366968l2.506109,2.506109c0.455656,0.455656 0,1.366968 -0.683484,1.366968l-1.366968,0c-1.13914,-0.227828 -2.050452,-0.683484 -2.961765,-1.366968"/>
       <path d="m113.457464,203.149544l-2.733937,-2.27828c-0.455656,-0.455656 -0.227828,-1.366968 0.455656,-1.366968l1.366968,0c1.13914,0 2.27828,0.455656 3.189593,1.13914l2.733937,2.27828c0.455656,0.455656 0.227828,1.366968 -0.455656,1.366968l-1.366968,0c-1.13914,0 -2.27828,-0.455656 -3.189593,-1.13914"/>
       <path d="m120.520133,202.238231l-2.961765,-2.050452c-0.455656,-0.455656 -0.227828,-1.366968 0.455656,-1.366968l1.366968,0c1.13914,0 2.27828,0.227828 3.189593,0.911312l2.961765,2.050452c0.455656,0.455656 0.227828,1.366968 -0.455656,1.366968l-1.366968,0.227828c-1.13914,0 -2.27828,-0.455656 -3.189593,-1.13914"/>
       <path d="m127.127147,201.099091l-2.961765,-1.822624c-0.683484,-0.455656 -0.455656,-1.366968 0.455656,-1.366968l1.366968,-0.227828c1.13914,-0.227828 2.27828,0 3.189593,0.683484l2.961765,1.822624c0.683484,0.455656 0.455656,1.366968 -0.455656,1.366968l-1.366968,0.227828c-0.911312,0 -2.050452,-0.227828 -3.189593,-0.683484"/>
       <path d="m133.961988,199.276467l-3.189593,-1.594796c-0.683484,-0.227828 -0.455656,-1.366968 0.227828,-1.366968l1.366968,-0.227828c1.13914,-0.227828 2.27828,0 3.417421,0.455656l3.189593,1.594796c0.683484,0.227828 0.455656,1.366968 -0.227828,1.366968l-1.366968,0.227828c-1.366968,0.227828 -2.506109,0 -3.417421,-0.455656"/>
       <path d="m140.341174,196.998186l-3.189593,-1.366968c-0.683484,-0.227828 -0.455656,-1.366968 0.227828,-1.366968l1.366968,-0.455656c1.13914,-0.227828 2.27828,-0.227828 3.417421,0.227828l3.189593,1.366968c0.683484,0.227828 0.455656,1.366968 -0.227828,1.366968l-1.366968,0.455656c-1.13914,0.227828 -2.27828,0.227828 -3.417421,-0.227828"/>
       <path d="m146.720359,194.26425l-3.417421,-1.13914c-0.683484,-0.227828 -0.683484,-1.13914 0,-1.366968l1.366968,-0.455656c1.13914,-0.455656 2.27828,-0.455656 3.417421,0l3.417421,1.13914c0.683484,0.227828 0.683484,1.13914 0,1.366968l-1.366968,0.455656c-1.13914,0.455656 -2.27828,0.455656 -3.417421,0"/>
       <path d="m152.871717,191.074657l-3.417421,-0.911312c-0.683484,-0.227828 -0.683484,-1.13914 0,-1.366968l1.13914,-0.683484c1.13914,-0.455656 2.27828,-0.683484 3.417421,-0.227828l3.417421,0.911312c0.683484,0.227828 0.683484,1.13914 0,1.366968l-1.13914,0.683484c-1.13914,0.455656 -2.27828,0.455656 -3.417421,0.227828"/>
       <path d="m158.795246,187.429408l-3.417421,-0.683484c-0.683484,-0.227828 -0.683484,-1.13914 -0.227828,-1.366968l1.13914,-0.683484c0.911312,-0.455656 2.27828,-0.683484 3.189593,-0.455656l3.417421,0.683484c0.683484,0.227828 0.683484,1.13914 0.227828,1.366968l-1.13914,0.683484c-0.911312,0.683484 -2.050452,0.683484 -3.189593,0.455656"/>
       <path d="m164.490947,183.556331l-3.645249,-0.455656c-0.683484,0 -0.911312,-1.13914 -0.227828,-1.366968l1.13914,-0.683484c0.911312,-0.683484 2.050452,-0.911312 3.189593,-0.683484l3.645249,0.455656c0.683484,0 0.911312,1.13914 0.227828,1.366968l-1.13914,0.683484c-0.911312,0.683484 -2.050452,0.911312 -3.189593,0.683484"/>
       <path d="m169.95882,179.227598l-3.645249,-0.227828c-0.683484,0 -0.911312,-0.911312 -0.455656,-1.366968l1.13914,-0.911312c0.911312,-0.683484 2.050452,-1.13914 3.189593,-0.911312l3.645249,0.227828c0.683484,0 0.911312,0.911312 0.455656,1.366968l-1.13914,0.911312c-0.911312,0.683484 -2.050452,0.911312 -3.189593,0.911312"/>
      </g>
     </g>
     <polygon points="95.45907592773438,26.58277702331543 101.38255310058594,22.48189926147461 99.1042709350586,15.647058486938477 104.79997253417969,19.747936248779297 110.49567413330078,15.647058486938477 108.21739196777344,22.254058837890625 114.14093780517578,26.58277702331543 107.0782470703125,26.355005264282227 104.79997253417969,33.18984603881836 102.7495346069336,26.58277702331543 "/>
     <polygon points="66.52488708496094,35.92374038696289 70.17015075683594,30.000198364257812 65.61358642578125,24.532339096069336 72.44842529296875,26.355005264282227 76.09368896484375,20.2036190032959 76.54930877685547,27.26630401611328 83.61199188232422,28.86105728149414 77.00498962402344,31.59502410888672 77.46060180664062,38.65770721435547 72.90404510498047,33.18984603881836 "/>
     <polygon points="43.058624267578125,55.972652435302734 44.1977653503418,48.909969329833984 37.818538665771484,45.72039031982422 44.881221771240234,44.58124923706055 46.020362854003906,37.5185661315918 49.20994186401367,43.89772415161133 56.27262496948242,42.758583068847656 51.260379791259766,47.77082824707031 54.45002746582031,54.149986267089844 48.07080078125,50.96040725708008 "/>
     <polygon points="29.161100387573242,83.31201934814453 27.566274642944336,76.24933624267578 20.503591537475586,75.79364776611328 26.654977798461914,72.14838409423828 24.832380294799805,65.31354522705078 30.30023956298828,69.87010955810547 36.22378158569336,65.9970703125 33.48981857299805,72.60407257080078 38.95767593383789,77.16062927246094 31.894996643066406,76.70494842529297 "/>
     <polygon points="26.8828182220459,113.8409652709961 22.781871795654297,108.145263671875 15.947031021118164,110.1957015991211 20.047977447509766,104.5 15.947031021118164,98.8042984008789 22.554100036621094,101.08258056640625 26.8828182220459,95.1590347290039 26.8828182220459,102.22171783447266 33.48981857299805,104.5 26.8828182220459,106.5504379272461 "/>
     <polygon points="36.22378158569336,143.0029296875 30.30023956298828,139.1298828125 24.832380294799805,143.9142303466797 26.654977798461914,136.8516082763672 20.503591537475586,133.2063446044922 27.566274642944336,132.7506561279297 29.161100387573242,125.68798065185547 31.894996643066406,132.2950439453125 38.95767593383789,131.83937072753906 33.48981857299805,136.3959197998047 "/>
     <polygon points="56.27262496948242,166.2414093017578 49.20994186401367,165.10227966308594 46.020362854003906,171.48143005371094 44.881221771240234,164.4187469482422 37.818538665771484,163.27960205078125 44.1977653503418,160.09002685546875 43.058624267578125,153.02734375 48.07080078125,158.0395965576172 54.45002746582031,154.85000610351562 51.260379791259766,161.2291717529297 "/>
     <polygon points="83.61199188232422,180.13893127441406 76.77714538574219,181.7336883544922 76.09368896484375,188.79637145996094 72.44842529296875,182.87283325195312 65.61358642578125,184.4676513671875 70.17015075683594,178.9998016357422 66.29704284667969,173.0762481689453 72.90404510498047,175.81015014648438 77.46060180664062,170.34228515625 77.00498962402344,177.40496826171875 "/>
     <polygon points="114.14093780517578,182.41722106933594 108.44523620605469,186.51809692382812 110.49567413330078,193.35293579101562 104.79997253417969,189.25205993652344 99.1042709350586,193.35293579101562 101.38255310058594,186.74594116210938 95.45907592773438,182.41722106933594 102.52169036865234,182.64498901367188 104.79997253417969,175.81015014648438 107.0782470703125,182.41722106933594 "/>
     <polygon points="143.30296325683594,173.0762481689453 139.4298553466797,178.9998016357422 144.21426391601562,184.4676513671875 137.37942504882812,182.64498901367188 133.50631713867188,188.79637145996094 133.0507049560547,181.7336883544922 126.21586608886719,180.13893127441406 132.5950164794922,177.40496826171875 132.13934326171875,170.34228515625 136.69589233398438,175.81015014648438 "/>
     <polygon points="166.5413818359375,153.02734375 165.40225219726562,160.09002685546875 171.78147888183594,163.27960205078125 164.7187957763672,164.4187469482422 163.57965087890625,171.48143005371094 160.39007568359375,165.10227966308594 153.327392578125,166.2414093017578 158.56739807128906,161.2291717529297 155.1499786376953,154.85000610351562 161.52920532226562,158.0395965576172 "/>
     <polygon points="180.43890380859375,125.68798065185547 182.0337371826172,132.7506561279297 189.09634399414062,133.2063446044922 183.17288208007812,136.8516082763672 184.7676239013672,143.9142303466797 179.52761840820312,139.1298828125 173.376220703125,143.0029296875 176.11019897460938,136.3959197998047 170.642333984375,131.83937072753906 177.70494079589844,132.2950439453125 "/>
     <polygon points="182.71719360351562,95.1590347290039 187.04591369628906,101.08258056640625 193.6529083251953,98.8042984008789 189.55203247070312,104.5 193.6529083251953,110.1957015991211 187.04591369628906,107.91741943359375 182.94503784179688,113.8409652709961 182.94503784179688,106.77828216552734 176.11019897460938,104.5 182.71719360351562,102.4495620727539 "/>
     <polygon points="173.376220703125,65.9970703125 179.29977416992188,69.87010955810547 184.7676239013672,65.08576965332031 183.17288208007812,72.14838409423828 189.09634399414062,75.79364776611328 182.0337371826172,76.24933624267578 180.43890380859375,83.31201934814453 177.70494079589844,76.70494842529297 170.642333984375,77.16062927246094 176.11019897460938,72.60407257080078 "/>
     <polygon points="153.327392578125,42.758583068847656 160.39007568359375,43.89772415161133 163.57965087890625,37.5185661315918 164.7187957763672,44.58124923706055 171.78147888183594,45.72039031982422 165.40225219726562,48.909969329833984 166.5413818359375,55.972652435302734 161.52920532226562,50.96040725708008 155.1499786376953,54.149986267089844 158.56739807128906,47.77082824707031 "/>
     <polygon points="126.21586608886719,28.86105728149414 133.0507049560547,27.26630401611328 133.50631713867188,20.2036190032959 137.15158081054688,26.12716293334961 144.21426391601562,24.532339096069336 139.4298553466797,30.000198364257812 143.30296325683594,35.92374038696289 136.69589233398438,33.18984603881836 132.13934326171875,38.65770721435547 132.5950164794922,31.59502410888672 "/>
    </g>
    <g>
     <path d="m104.799998,171.709273c-37.135972,0 -67.209275,-30.073303 -67.209275,-67.209275c0,-37.135972 30.073303,-67.209275 67.209275,-67.209275c37.135972,0 67.209275,30.073303 67.209275,67.209275c0,37.135972 -30.073303,67.209275 -67.209275,67.209275m0,-132.595925c-35.996832,0 -65.38665,29.389818 -65.38665,65.38665c0,35.996832 29.389818,65.38665 65.38665,65.38665c35.996832,0 65.38665,-29.389818 65.38665,-65.38665c0,-35.996832 -29.389818,-65.38665 -65.38665,-65.38665"/>
     <path d="m78.144116,66.452714c-5.240045,4.100905 -8.657466,2.733937 -9.34095,1.594796c-0.911312,-1.594796 0,-4.556561 2.27828,-7.290498c4.100905,-4.556561 9.568778,-5.467873 9.568778,-5.467873c0.911312,-0.227828 2.961765,0 3.873077,1.366968l0,0c0,0 0,0.227828 0.227828,0.455656c0.227828,0.911312 0.455656,1.822624 -0.455656,4.100905l-2.050452,-3.417421c-0.227828,-0.683484 -0.683484,-1.13914 -1.366968,-1.366968c-2.050452,-0.455656 -5.923529,2.050452 -7.518326,3.645249c-0.227828,0.227828 -0.455656,0.455656 -0.455656,0.911312c0,0.227828 0.227828,0.683484 0.227828,0.911312l5.012217,4.556561z"/>
     <path d="m80.422397,58.250904c0,0 -0.227828,0 -0.227828,0c-1.366968,-0.227828 -3.873077,1.13914 -5.467873,2.506109c0,0 0,0 0,0c0,0 0,0 0,0l4.556561,4.328733c0.455656,-0.455656 0.683484,-0.911312 1.13914,-1.594796c0.911312,-1.822624 1.366968,-3.417421 0.911312,-4.784389c-0.227828,0 -0.455656,-0.227828 -0.911312,-0.455656"/>
     <path d="m138.290721,148.69864c-7.290498,-10.935746 -15.264479,-22.099321 -23.010633,-32.579411c-0.227828,0.227828 -0.455656,0.227828 -0.683484,0.455656c0,0 0,0 0,0c0,0 0,0 0,0c-1.13914,0.683484 -2.27828,1.366968 -3.417421,1.822624c6.379185,9.113122 12.986199,19.82104 19.82104,32.123755c0.227828,0.455656 0.683484,0.683484 1.366968,0.683484c1.366968,0 3.645249,-0.455656 5.923529,-1.594796c0.227828,-0.227828 0.227828,-0.683484 0,-0.911312z"/>
     <path d="m146.036875,137.079409c0,-0.227828 -0.227828,-0.455656 -0.455656,-0.683484c-2.733937,-2.733937 -15.264479,-14.808823 -25.061085,-25.74457c-1.13914,0.683484 -2.050452,1.366968 -2.733937,2.506109c-0.227828,0.455656 -0.683484,0.911312 -0.911312,1.366968c0,0 0,0.227828 0,0.227828c7.973982,10.707918 16.40362,22.554977 24.149773,33.946379c0.227828,0.227828 0.455656,0.455656 0.683484,0.227828c1.822624,-1.594796 5.923529,-5.467873 4.328733,-11.847059z"/>
     <path d="m102.521718,86.045926c-6.151357,-9.796606 -13.669683,-21.871493 -16.175792,-26.200226c-0.227828,2.27828 -1.13914,4.784389 -3.873077,8.657466c0,0.227828 0,0.227828 0,0.455656c1.594796,2.050452 7.746154,9.796606 14.808823,18.909728c1.822624,-0.911312 3.189593,-1.366968 5.240045,-1.822624z"/>
     <path d="m95.686876,88.779863c-7.06267,-8.885294 -13.669683,-17.314932 -15.036651,-18.909728c-0.455656,-0.455656 -0.455656,-1.13914 0,-1.594796c1.594796,-2.050452 2.506109,-3.873077 3.189593,-5.240045l-1.13914,-2.050452c0,1.13914 -0.455656,2.506109 -1.13914,3.873077c-1.594796,2.733937 -4.328733,4.784389 -7.518326,5.467873c-1.13914,0.227828 -1.822624,0.227828 -2.733937,0.227828c2.961765,2.506109 11.391402,10.935746 20.276696,21.415837c1.366968,-1.13914 2.733937,-2.27828 4.100905,-3.189593z"/>
     <path d="m143.530767,68.503166c-0.227828,0 -0.227828,-0.227828 -0.455656,-0.227828c0.227828,-0.227828 0.455656,-0.455656 0.683484,-0.683484c1.13914,-1.594796 1.822624,-3.645249 1.594796,-5.695701c-0.227828,-2.050452 -1.366968,-3.873077 -2.733937,-5.012217c-3.189593,-2.506109 -7.973982,-2.050452 -10.707918,1.366968c-0.227828,0.227828 -0.455656,0.455656 -0.683484,0.911312c-0.227828,-0.227828 -0.227828,-0.227828 -0.455656,-0.455656c-1.822624,-1.366968 -4.100905,-2.050452 -6.379185,-1.822624c-2.27828,0.227828 -4.328733,1.366968 -5.923529,3.189593c-1.366968,1.822624 -2.050452,4.100905 -1.822624,6.379185c0.227828,2.27828 1.366968,4.328733 3.189593,5.923529c1.13914,0.911312 2.27828,1.366968 3.645249,1.594796c0,0 0,0.227828 0,0.227828c-0.227828,0 -0.683484,0.227828 -0.683484,0.455656c-0.227828,0.455656 -0.455656,0.683484 -0.227828,1.13914c-1.13914,-0.227828 -2.506109,0 -3.189593,0.911312c-0.455656,0.683484 -0.683484,1.366968 -0.683484,2.27828c0,0.683484 0.455656,1.366968 0.911312,1.822624l-5.467873,7.06267c1.594796,0.911312 2.961765,2.506109 3.873077,4.100905c0.227828,0 0.227828,0 0.227828,0l5.923529,-7.290498c1.13914,0.683484 2.961765,0.455656 3.873077,-0.683484c0.455656,-0.683484 0.683484,-1.366968 0.683484,-2.27828c0,-0.455656 -0.227828,-0.683484 -0.455656,-1.13914l0,0c0.455656,0 0.911312,-0.227828 1.13914,-0.683484c0.227828,-0.227828 0.227828,-0.455656 0.227828,-0.911312c0,0 0.227828,0 0.227828,0c0.683484,1.13914 1.366968,2.27828 2.506109,3.189593c1.822624,1.366968 4.100905,2.050452 6.379185,1.822624c2.27828,-0.227828 4.328733,-1.366968 5.923529,-3.189593c3.417421,-3.645249 2.733937,-9.34095 -1.13914,-12.302715zm-2.27828,10.707918c-1.594796,1.366968 -3.645249,1.594796 -5.467873,0.683484c-2.050452,-1.13914 -3.189593,-3.417421 -2.506109,-5.467873c0.227828,-1.13914 0.911312,-2.050452 1.13914,-2.27828c0.455656,-0.227828 0.911312,-0.455656 1.13914,-0.683484c0.911312,-1.13914 0.455656,-2.961765 -1.13914,-4.100905c-1.594796,-1.13914 -3.417421,-1.13914 -4.328733,0c-0.227828,0.227828 -0.455656,0.683484 -0.455656,1.13914c-0.455656,0.455656 -1.13914,1.366968 -2.27828,2.050452c-2.050452,0.911312 -4.328733,0.227828 -5.695701,-1.366968c-1.366968,-1.594796 -1.594796,-3.645249 -0.455656,-5.467873c0.683484,-1.366968 1.822624,-2.27828 3.417421,-2.506109c1.366968,-0.227828 2.961765,0 4.100905,0.911312l0.683484,0.911312l0.455656,1.822624c0.227828,0.911312 1.13914,1.594796 2.050452,1.366968l2.050452,-0.227828c0.911312,-0.227828 1.594796,-0.911312 1.366968,-2.050452l-0.227828,-2.27828c0,-0.227828 0.227828,-0.455656 0.455656,-0.683484c1.366968,-1.594796 3.645249,-1.822624 5.240045,-0.683484c1.594796,1.366968 1.822624,3.645249 0.683484,5.240045c-0.227828,0.227828 -0.227828,0.455656 -0.455656,0.455656l-2.27828,0.227828c0,0 0,0 0,0c-0.911312,0 -1.594796,0.911312 -1.594796,1.822624l0.227828,2.050452c0,0.911312 0.911312,1.594796 1.822624,1.594796l1.822624,0l0.911312,0.455656c1.13914,0.911312 1.822624,2.27828 1.822624,3.645249c-0.683484,0.911312 -1.366968,2.506109 -2.506109,3.417421z"/>
     <path d="m92.952939,114.980088l-14.808823,18.454072l-1.366968,-1.13914l3.873077,-5.012217l-0.911312,-0.683484l-3.417421,1.594796l0.683484,-3.645249l-5.923529,-4.784389l-2.961765,3.873077l4.328733,3.417421l-1.822624,2.27828l-4.328733,-3.417421l-3.189593,3.873077l4.328733,3.417421l-1.822624,2.27828l-4.328733,-3.417421l-2.961765,3.873077l9.796606,7.746154l3.645249,-4.556561l1.366968,1.13914l-6.379185,8.20181l4.556561,3.645249l26.88371,-33.946379c-2.27828,-0.455656 -3.645249,-1.822624 -5.240045,-3.189593z"/>
     <g>
      <path d="m108.900903,107.233935c-0.683484,1.13914 -1.822624,2.050452 -2.961765,2.733937c-1.13914,0.683484 -2.27828,0.911312 -3.417421,0.911312c-0.227828,0 -0.227828,0 -0.455656,0c-2.050452,0 -3.873077,-0.683484 -5.240045,-2.050452c-1.594796,-1.366968 -2.733937,-3.645249 -2.733937,-6.151357c0,-1.594796 0.455656,-2.961765 1.13914,-4.328733c0.911312,-1.366968 2.050452,-2.506109 3.417421,-3.189593c0.227828,-0.227828 0.683484,-0.227828 0.911312,-0.455656c0.683484,-0.227828 1.594796,-0.455656 2.506109,-0.455656c2.961765,0 5.467873,1.594796 6.834841,3.873077c-1.13914,-1.366968 -2.961765,-2.050452 -4.784389,-2.050452c-0.911312,0 -1.822624,0.227828 -2.733937,0.683484c-0.227828,0.227828 -0.683484,0.227828 -0.911312,0.455656c-1.366968,0.911312 -2.27828,2.27828 -2.733937,3.873077c-0.227828,0.455656 -0.227828,1.13914 -0.227828,1.594796c0,1.366968 0.455656,2.733937 1.366968,3.873077c1.13914,1.594796 2.961765,2.506109 5.240045,2.506109l0,0c0.455656,0 0.911312,0 1.13914,-0.227828c1.594796,0.227828 2.733937,-0.455656 3.645249,-1.594796"/>
      <polygon points="114.59661865234375,103.58869934082031 115.73575592041016,105.41129302978516 113.00179290771484,104.5 111.17919921875,106.77828216552734 111.17919921875,103.81654357910156 108.44523620605469,102.9051742553711 111.17919921875,101.9938735961914 111.17919921875,99.25997924804688 112.09049224853516,100.17127990722656 113.00179290771484,101.53826141357422 115.73575592041016,100.62689208984375 114.14093780517578,102.9051742553711 "/>
      <g>
       <g>
        <polygon points="119.38101959228516,105.41129302978516 119.60879516601562,104.0443115234375 121.6593017578125,104.27215576171875 121.43145751953125,105.6391372680664 "/>
       </g>
       <g>
        <polygon points="118.69749450683594,107.91741943359375 119.1531753540039,106.77828216552734 120.97577667236328,107.46173858642578 120.5201644897461,108.60087585449219 "/>
       </g>
       <g>
        <polygon points="117.55835723876953,110.42353820800781 118.0140380859375,109.2844009399414 119.83663177490234,110.1957015991211 119.1531753540039,111.56268310546875 "/>
       </g>
       <g>
        <polygon points="115.73575592041016,112.70182037353516 116.64705657958984,111.56268310546875 118.24188232421875,112.9296646118164 117.33051300048828,113.8409652709961 "/>
       </g>
       <g>
        <polygon points="113.68531799316406,114.52442169189453 114.59661865234375,113.61312103271484 115.9636001586914,115.20794677734375 115.05223083496094,116.1192398071289 "/>
       </g>
       <g>
        <polygon points="111.40703582763672,115.89140319824219 112.54618072509766,115.20794677734375 113.45748138427734,117.0305404663086 112.3183364868164,117.71399688720703 "/>
       </g>
       <g>
        <polygon points="108.90091705322266,116.80269622802734 110.04005432128906,116.57485961914062 110.7235107421875,118.39752197265625 109.35652923583984,118.85313415527344 "/>
       </g>
       <g>
        <polygon points="106.16695404052734,117.25838470458984 107.30609130859375,117.25838470458984 107.76177978515625,119.30882263183594 106.39479064941406,119.30882263183594 "/>
       </g>
       <g>
        <polygon points="103.43305969238281,117.25838470458984 104.57219696044922,117.48622131347656 104.57219696044922,119.53666687011719 103.20521545410156,119.30882263183594 "/>
       </g>
       <g>
        <path d="m100.699093,116.802713c0,0 1.13914,0.455656 1.13914,0.455656l-0.455656,2.050452c0,0 -1.366968,-0.455656 -1.366968,-0.455656l0.683484,-2.050452z"/>
       </g>
       <g>
        <path d="m98.192985,115.8914c0,0 1.13914,0.683484 1.13914,0.455656l-0.683484,1.822624c0,0 -1.13914,-0.683484 -1.13914,-0.683484l0.683484,-1.594796z"/>
       </g>
       <g>
        <path d="m95.914704,114.524432c0,0 0.911312,0.683484 0.911312,0.683484l-1.13914,1.594796c0,0 -1.13914,-0.683484 -1.13914,-0.683484l1.366968,-1.594796z"/>
       </g>
       <g>
        <path d="m93.864252,112.701808c0,0 0.683484,0.911312 0.911312,0.911312l-1.366968,1.366968c0,0 -0.911312,-0.911312 -0.911312,-0.911312l1.366968,-1.366968z"/>
       </g>
       <g>
        <path d="m92.269455,110.423527c0,0 0.683484,0.911312 0.683484,0.911312l-1.594796,1.13914c0,0 -0.911312,-1.13914 -0.683484,-1.13914l1.594796,-0.911312z"/>
       </g>
       <g>
        <path d="m90.902487,107.917419c0,0 0.455656,1.13914 0.455656,1.13914l-1.822624,0.911312c0,0 -0.683484,-1.13914 -0.455656,-1.13914l1.822624,-0.911312z"/>
       </g>
       <g>
        <path d="m90.219003,105.41131c0,0 0.227828,1.13914 0.227828,1.13914l-2.050452,0.455656c0,0 -0.455656,-1.366968 -0.455656,-1.366968l2.27828,-0.227828z"/>
       </g>
       <g>
        <polygon points="89.99114990234375,102.67739868164062 89.99114990234375,103.81654357910156 87.94071197509766,104.0443115234375 87.94071197509766,102.67739868164062 "/>
       </g>
       <g>
        <polygon points="90.21898651123047,99.94343566894531 89.99114990234375,101.08258056640625 88.16854858398438,100.854736328125 88.16854858398438,99.48775482177734 "/>
       </g>
       <g>
        <polygon points="90.90251159667969,97.20947265625 90.67467498779297,98.3486099243164 88.62423706054688,97.89299774169922 89.07984924316406,96.52601623535156 "/>
       </g>
       <g>
        <polygon points="92.26942443847656,94.70342254638672 91.58596801757812,95.84255981445312 89.76337432861328,94.93119049072266 90.44683074951172,93.79205322265625 "/>
       </g>
       <g>
        <polygon points="93.86425018310547,92.65290832519531 93.18079376220703,93.56427764892578 91.58596801757812,92.19729614257812 92.26942443847656,91.28599548339844 "/>
       </g>
       <g>
        <polygon points="95.91468811035156,90.83031463623047 95.0033950805664,91.5137710571289 93.63641357421875,89.91901397705078 94.77555084228516,89.23548889160156 "/>
       </g>
       <g>
        <polygon points="98.1929702758789,89.23548889160156 97.0538330078125,89.91901397705078 96.14253234863281,88.09635162353516 97.28166961669922,87.41289520263672 "/>
       </g>
       <g>
        <polygon points="100.6990966796875,88.3241958618164 99.55995178222656,88.77987670898438 98.87649536132812,86.72943878173828 100.243408203125,86.27375030517578 "/>
       </g>
       <g>
        <polygon points="103.43305969238281,87.86857604980469 102.29391479492188,87.86857604980469 101.8382339477539,86.04591369628906 103.20521545410156,85.81806945800781 "/>
       </g>
       <g>
        <polygon points="106.16695404052734,87.86857604980469 105.0278091430664,87.64073944091797 105.0278091430664,85.59030151367188 106.39479064941406,85.81806945800781 "/>
       </g>
       <g>
        <path d="m108.900903,88.324206c0,0 -1.13914,-0.455656 -1.13914,-0.455656l0.455656,-2.050452c0,0 1.366968,0.455656 1.366968,0.455656l-0.683484,2.050452z"/>
       </g>
       <g>
        <path d="m111.407012,89.235519c0,0 -1.13914,-0.683484 -1.13914,-0.455656l0.683484,-1.822624c0,0 1.13914,0.683484 1.13914,0.683484l-0.683484,1.594796z"/>
       </g>
       <g>
        <path d="m113.685292,90.830315c0,0 -0.911312,-0.683484 -0.911312,-0.683484l1.13914,-1.594796c0,0 1.13914,0.683484 1.13914,0.683484l-1.366968,1.594796z"/>
       </g>
       <g>
        <path d="m115.735744,92.652939c0,0 -0.683484,-0.911312 -0.911312,-0.911312l1.366968,-1.366968c0,0 0.911312,0.911312 0.911312,0.911312l-1.366968,1.366968z"/>
       </g>
       <g>
        <path d="m117.558369,94.703392c0,0 -0.683484,-0.911312 -0.683484,-0.911312l1.594796,-1.13914c0,0 0.911312,1.13914 0.683484,1.13914l-1.594796,0.911312z"/>
       </g>
       <g>
        <path d="m118.697509,97.2095c0,0 -0.455656,-1.13914 -0.455656,-1.13914l1.822624,-0.911312c0,0 0.683484,1.13914 0.455656,1.13914l-1.822624,0.911312z"/>
       </g>
       <g>
        <path d="m119.380993,99.943437c0,0 -0.227828,-1.13914 -0.227828,-1.13914l2.050452,-0.455656c0,0 0.455656,1.366968 0.455656,1.366968l-2.27828,0.227828z"/>
       </g>
       <g>
        <polygon points="119.83663177490234,102.67739868164062 119.60879516601562,101.31041717529297 121.6593017578125,101.31041717529297 121.6593017578125,102.67739868164062 "/>
       </g>
      </g>
      <path d="m104.799998,84.678958c-9.796606,0 -17.770588,7.973982 -17.770588,17.770588c0,9.796606 7.973982,17.770588 17.770588,17.770588c9.796606,0 17.770588,-7.973982 17.770588,-17.770588c0,-9.796606 -7.973982,-17.770588 -17.770588,-17.770588zm0,34.402035c-9.113122,0 -16.40362,-7.290498 -16.40362,-16.40362c0,-9.113122 7.290498,-16.40362 16.40362,-16.40362c9.113122,0 16.40362,7.290498 16.40362,16.40362c0,8.885294 -7.290498,16.40362 -16.40362,16.40362z"/>
     </g>
    </g>
   </g>
  </g>
 </g>
</svg>