<svg width="350" height="120" xmlns="http://www.w3.org/2000/svg">
 <g fill="#003773">
  <g>
   <g>
    <g>
     <g>
      <g>
       <g>
        <path d="m101.31548,99.610609l-2.093685,0c-0.392566,0 -0.523421,-0.523421 -0.261711,-0.785132l0.654276,-0.523421c0.523421,-0.392566 1.177698,-0.654276 1.831974,-0.654276l2.093685,0c0.392566,0 0.523421,0.523421 0.261711,0.785132l-0.654276,0.523421c-0.523421,0.523421 -1.177698,0.654276 -1.831974,0.654276"/>
        <path d="m104.063441,96.731793l-2.093685,0.130855c-0.392566,0 -0.654276,-0.523421 -0.261711,-0.785132l0.523421,-0.523421c0.523421,-0.523421 1.046842,-0.785132 1.701119,-0.785132l2.093685,-0.130855c0.392566,0 0.654276,0.523421 0.261711,0.785132l-0.523421,0.523421c-0.392566,0.523421 -1.046842,0.785132 -1.701119,0.785132"/>
        <path d="m106.549692,93.722121l-2.093685,0.261711c-0.392566,0 -0.654276,-0.392566 -0.392566,-0.785132l0.523421,-0.654276c0.392566,-0.523421 1.046842,-0.785132 1.701119,-0.915987l2.093685,-0.261711c0.392566,0 0.654276,0.392566 0.392566,0.785132l-0.523421,0.654276c-0.392566,0.392566 -1.046842,0.785132 -1.701119,0.915987"/>
        <path d="m108.905087,90.450739l-1.962829,0.392566c-0.392566,0.130855 -0.654276,-0.392566 -0.392566,-0.785132l0.523421,-0.654276c0.392566,-0.523421 0.915987,-0.915987 1.570263,-1.046842l1.962829,-0.392566c0.392566,-0.130855 0.654276,0.392566 0.392566,0.785132l-0.523421,0.654276c-0.392566,0.523421 -1.046842,0.915987 -1.570263,1.046842"/>
        <path d="m110.867916,87.048502l-1.962829,0.523421c-0.392566,0.130855 -0.654276,-0.392566 -0.523421,-0.654276l0.392566,-0.654276c0.392566,-0.523421 0.915987,-0.915987 1.570263,-1.177698l1.962829,-0.523421c0.392566,-0.130855 0.654276,0.392566 0.523421,0.654276l-0.392566,0.654276c-0.392566,0.523421 -0.915987,0.915987 -1.570263,1.177698"/>
        <path d="m112.69989,83.515409l-1.962829,0.654276c-0.392566,0.130855 -0.785132,-0.261711 -0.523421,-0.654276l0.392566,-0.654276c0.392566,-0.523421 0.785132,-1.046842 1.439408,-1.308553l1.962829,-0.654276c0.392566,-0.130855 0.785132,0.261711 0.523421,0.654276l-0.392566,0.654276c-0.261711,0.654276 -0.785132,1.046842 -1.439408,1.308553"/>
        <path d="m114.270153,79.851461l-1.831974,0.785132c-0.392566,0.130855 -0.785132,-0.261711 -0.523421,-0.654276l0.392566,-0.654276c0.261711,-0.654276 0.785132,-1.046842 1.308553,-1.308553l1.831974,-0.785132c0.392566,-0.130855 0.785132,0.261711 0.523421,0.654276l-0.392566,0.654276c-0.261711,0.523421 -0.785132,1.046842 -1.308553,1.308553"/>
        <path d="m115.578706,76.056658l-1.831974,0.915987c-0.392566,0.130855 -0.785132,-0.261711 -0.654276,-0.523421l0.261711,-0.785132c0.261711,-0.654276 0.654276,-1.177698 1.308553,-1.439408l1.831974,-0.915987c0.392566,-0.130855 0.785132,0.261711 0.654276,0.523421l-0.261711,0.785132c-0.392566,0.654276 -0.785132,1.177698 -1.308553,1.439408"/>
        <path d="m116.494693,72.261855l-1.701119,1.046842c-0.392566,0.261711 -0.785132,-0.130855 -0.654276,-0.523421l0.261711,-0.785132c0.261711,-0.654276 0.654276,-1.177698 1.177698,-1.570263l1.701119,-1.046842c0.392566,-0.261711 0.785132,0.130855 0.654276,0.523421l-0.261711,0.785132c-0.130855,0.654276 -0.523421,1.177698 -1.177698,1.570263"/>
        <path d="m117.279825,68.336196l-1.701119,1.177698c-0.261711,0.261711 -0.785132,-0.130855 -0.654276,-0.523421l0.130855,-0.785132c0.130855,-0.654276 0.523421,-1.177698 1.046842,-1.570263l1.701119,-1.177698c0.261711,-0.261711 0.785132,0.130855 0.654276,0.523421l-0.130855,0.785132c-0.130855,0.654276 -0.523421,1.177698 -1.046842,1.570263"/>
        <path d="m117.803246,64.410537l-1.570263,1.308553c-0.261711,0.261711 -0.785132,0 -0.785132,-0.392566l0.130855,-0.785132c0.130855,-0.654276 0.392566,-1.308553 0.915987,-1.701119l1.570263,-1.308553c0.261711,-0.261711 0.785132,0 0.654276,0.392566l-0.130855,0.785132c0,0.654276 -0.261711,1.177698 -0.785132,1.701119"/>
        <path d="m117.934101,60.354023l-1.439408,1.439408c-0.261711,0.261711 -0.785132,0 -0.785132,-0.392566l0.130855,-0.785132c0,-0.654276 0.392566,-1.308553 0.785132,-1.701119l1.439408,-1.439408c0.261711,-0.261711 0.785132,0 0.785132,0.392566l-0.130855,0.785132c0,0.654276 -0.261711,1.308553 -0.785132,1.701119"/>
        <path d="m117.934101,56.428365l-1.439408,1.570263c-0.261711,0.261711 -0.785132,0.130855 -0.785132,-0.392566l0,-0.785132c0,-0.654276 0.261711,-1.308553 0.654276,-1.831974l1.439408,-1.570263c0.261711,-0.261711 0.785132,-0.130855 0.785132,0.392566l0,0.785132c0,0.785132 -0.261711,1.308553 -0.654276,1.831974"/>
        <path d="m117.541536,52.502706l-1.308553,1.570263c-0.261711,0.261711 -0.785132,0.130855 -0.785132,-0.261711l0,-0.785132c0,-0.654276 0.130855,-1.308553 0.523421,-1.831974l1.308553,-1.570263c0.261711,-0.261711 0.785132,-0.130855 0.785132,0.261711l0,0.785132c0.130855,0.654276 -0.130855,1.308553 -0.523421,1.831974"/>
        <path d="m116.887259,48.577048l-1.177698,1.701119c-0.261711,0.392566 -0.785132,0.130855 -0.785132,-0.261711l-0.130855,-0.785132c-0.130855,-0.654276 0.130855,-1.308553 0.392566,-1.831974l1.177698,-1.701119c0.261711,-0.392566 0.785132,-0.130855 0.785132,0.261711l0.130855,0.785132c0.130855,0.654276 0,1.308553 -0.392566,1.831974"/>
        <path d="m116.102127,44.651389l-1.046842,1.831974c-0.261711,0.392566 -0.785132,0.261711 -0.785132,-0.130855l-0.130855,-0.785132c-0.130855,-0.654276 0,-1.308553 0.261711,-1.831974l1.046842,-1.831974c0.261711,-0.392566 0.785132,-0.261711 0.785132,0.130855l0.130855,0.785132c0.130855,0.654276 0,1.308553 -0.261711,1.831974"/>
        <path d="m114.92443,40.856586l-0.915987,1.831974c-0.130855,0.392566 -0.785132,0.261711 -0.785132,-0.130855l-0.261711,-0.785132c-0.130855,-0.654276 -0.130855,-1.308553 0.130855,-1.962829l0.915987,-1.831974c0.130855,-0.392566 0.785132,-0.261711 0.785132,0.130855l0.261711,0.785132c0.130855,0.785132 0.130855,1.439408 -0.130855,1.962829"/>
        <path d="m113.485022,37.192638l-0.785132,1.962829c-0.130855,0.392566 -0.654276,0.392566 -0.785132,0l-0.261711,-0.785132c-0.261711,-0.654276 -0.261711,-1.308553 0,-1.962829l0.785132,-1.962829c0.130855,-0.392566 0.654276,-0.392566 0.785132,0l0.261711,0.785132c0.261711,0.654276 0.261711,1.308553 0,1.962829"/>
        <path d="m111.783903,33.52869l-0.654276,1.962829c-0.130855,0.392566 -0.654276,0.392566 -0.785132,0l-0.261711,-0.785132c-0.261711,-0.654276 -0.261711,-1.308553 -0.130855,-1.962829l0.654276,-1.962829c0.130855,-0.392566 0.654276,-0.392566 0.785132,0l0.261711,0.785132c0.261711,0.785132 0.261711,1.439408 0.130855,1.962829"/>
        <path d="m109.821074,30.126452l-0.523421,1.962829c-0.130855,0.392566 -0.654276,0.392566 -0.785132,0l-0.392566,-0.654276c-0.261711,-0.654276 -0.392566,-1.308553 -0.261711,-1.831974l0.523421,-1.962829c0.130855,-0.392566 0.654276,-0.392566 0.785132,0l0.392566,0.654276c0.392566,0.523421 0.392566,1.177698 0.261711,1.831974"/>
        <path d="m107.727389,26.724215l-0.392566,2.093685c-0.130855,0.392566 -0.654276,0.523421 -0.785132,0.130855l-0.392566,-0.654276c-0.392566,-0.523421 -0.523421,-1.177698 -0.392566,-1.831974l0.392566,-2.093685c0.130855,-0.392566 0.654276,-0.523421 0.785132,-0.130855l0.392566,0.654276c0.261711,0.654276 0.392566,1.308553 0.392566,1.831974"/>
        <path d="m105.241139,23.583688l-0.261711,2.093685c0,0.392566 -0.654276,0.523421 -0.785132,0.130855l-0.392566,-0.654276c-0.392566,-0.523421 -0.523421,-1.177698 -0.523421,-1.831974l0.261711,-2.093685c0,-0.392566 0.654276,-0.523421 0.785132,-0.130855l0.392566,0.654276c0.523421,0.523421 0.654276,1.177698 0.523421,1.831974"/>
        <path d="m102.624033,20.574017l-0.130855,2.093685c0,0.392566 -0.523421,0.523421 -0.785132,0.261711l-0.523421,-0.654276c-0.392566,-0.523421 -0.654276,-1.177698 -0.654276,-1.831974l0.130855,-2.093685c0,-0.392566 0.523421,-0.523421 0.785132,-0.261711l0.523421,0.654276c0.523421,0.654276 0.785132,1.177698 0.654276,1.831974"/>
        <path d="m99.876072,17.826056l0.130855,2.093685c0,0.392566 -0.523421,0.654276 -0.785132,0.261711l-0.523421,-0.523421c-0.392566,-0.523421 -0.654276,-1.177698 -0.785132,-1.701119l-0.130855,-2.093685c0,-0.392566 0.523421,-0.654276 0.785132,-0.261711l0.523421,0.523421c0.523421,0.392566 0.785132,1.046842 0.785132,1.701119"/>
        <path d="m96.8664,15.20895l0.261711,2.093685c0,0.392566 -0.523421,0.654276 -0.785132,0.392566l-0.523421,-0.523421c-0.523421,-0.392566 -0.785132,-1.046842 -0.915987,-1.701119l-0.261711,-2.093685c0,-0.392566 0.523421,-0.654276 0.785132,-0.392566l0.523421,0.523421c0.523421,0.523421 0.785132,1.046842 0.915987,1.701119"/>
        <path d="m93.725874,12.853555l0.392566,2.093685c0.130855,0.392566 -0.392566,0.654276 -0.785132,0.392566l-0.654276,-0.523421c-0.523421,-0.392566 -0.915987,-1.046842 -0.915987,-1.701119l-0.392566,-2.093685c-0.130855,-0.392566 0.392566,-0.654276 0.785132,-0.392566l0.654276,0.523421c0.392566,0.392566 0.785132,1.046842 0.915987,1.701119"/>
        <path d="m90.323636,10.629015l0.523421,1.962829c0.130855,0.392566 -0.392566,0.654276 -0.654276,0.392566l-0.654276,-0.392566c-0.523421,-0.392566 -0.915987,-0.915987 -1.046842,-1.570263l-0.523421,-1.962829c-0.130855,-0.392566 0.392566,-0.654276 0.654276,-0.392566l0.654276,0.392566c0.523421,0.392566 0.915987,1.046842 1.046842,1.570263"/>
        <path d="m86.921399,8.797041l0.654276,1.962829c0.130855,0.392566 -0.392566,0.654276 -0.654276,0.523421l-0.654276,-0.392566c-0.523421,-0.392566 -1.046842,-0.915987 -1.177698,-1.439408l-0.654276,-1.962829c-0.130855,-0.392566 0.392566,-0.654276 0.654276,-0.523421l0.654276,0.392566c0.523421,0.261711 0.915987,0.785132 1.177698,1.439408"/>
        <path d="m83.257451,7.095922l0.785132,1.962829c0.130855,0.392566 -0.261711,0.785132 -0.654276,0.523421l-0.654276,-0.392566c-0.654276,-0.261711 -1.046842,-0.785132 -1.308553,-1.439408l-0.785132,-1.962829c-0.130855,-0.392566 0.261711,-0.785132 0.654276,-0.523421l0.654276,0.392566c0.654276,0.261711 1.046842,0.785132 1.308553,1.439408"/>
        <path d="m79.593503,5.656514l0.915987,1.831974c0.130855,0.392566 -0.261711,0.785132 -0.654276,0.654276l-0.785132,-0.261711c-0.654276,-0.261711 -1.046842,-0.785132 -1.439408,-1.308553l-0.915987,-1.831974c-0.130855,-0.392566 0.261711,-0.785132 0.654276,-0.523421l0.785132,0.261711c0.654276,0.130855 1.177698,0.654276 1.439408,1.177698"/>
        <path d="m75.798699,4.478816l1.046842,1.831974c0.261711,0.392566 -0.130855,0.785132 -0.523421,0.654276l-0.785132,-0.261711c-0.654276,-0.261711 -1.177698,-0.654276 -1.439408,-1.177698l-1.046842,-1.831974c-0.261711,-0.392566 0.130855,-0.785132 0.523421,-0.654276l0.785132,0.261711c0.523421,0.261711 1.046842,0.654276 1.439408,1.177698"/>
        <path d="m71.873041,3.562829l1.177698,1.701119c0.261711,0.392566 -0.130855,0.785132 -0.523421,0.654276l-0.785132,-0.261711c-0.654276,-0.130855 -1.177698,-0.523421 -1.570263,-1.046842l-1.177698,-1.701119c-0.261711,-0.392566 0.130855,-0.785132 0.523421,-0.654276l0.785132,0.261711c0.654276,0.130855 1.177698,0.523421 1.570263,1.046842"/>
        <path d="m67.947382,3.039408l1.308553,1.570263c0.261711,0.261711 -0.130855,0.785132 -0.523421,0.654276l-0.785132,-0.130855c-0.654276,-0.130855 -1.177698,-0.523421 -1.701119,-1.046842l-1.308553,-1.570263c-0.261711,-0.261711 0.130855,-0.785132 0.523421,-0.654276l0.785132,0.130855c0.785132,0.130855 1.308553,0.523421 1.701119,1.046842"/>
        <path d="m64.021724,2.646842l1.439408,1.570263c0.261711,0.261711 0,0.785132 -0.392566,0.785132l-0.785132,-0.130855c-0.654276,-0.130855 -1.308553,-0.392566 -1.701119,-0.915987l-1.439408,-1.570263c-0.261711,-0.261711 0,-0.785132 0.392566,-0.785132l0.785132,0.130855c0.654276,0.130855 1.308553,0.392566 1.701119,0.915987"/>
        <path d="m59.96521,2.646842l1.439408,1.439408c0.261711,0.261711 0,0.785132 -0.392566,0.785132l-0.785132,0c-0.654276,0 -1.308553,-0.261711 -1.701119,-0.785132l-1.439408,-1.439408c-0.261711,-0.261711 0,-0.785132 0.392566,-0.785132l0.785132,0c0.654276,0 1.308553,0.261711 1.701119,0.785132"/>
        <path d="m56.039551,2.777698l1.570263,1.308553c0.261711,0.261711 0.130855,0.785132 -0.261711,0.785132l-0.785132,0c-0.654276,0 -1.308553,-0.261711 -1.831974,-0.654276l-1.570263,-1.308553c-0.261711,-0.261711 -0.130855,-0.785132 0.261711,-0.785132l0.785132,0c0.654276,0 1.308553,0.261711 1.831974,0.654276"/>
        <path d="m52.113893,3.301119l1.701119,1.177698c0.261711,0.261711 0.130855,0.785132 -0.261711,0.785132l-0.785132,0c-0.654276,0 -1.308553,-0.130855 -1.831974,-0.523421l-1.701119,-1.177698c-0.261711,-0.261711 -0.130855,-0.785132 0.261711,-0.785132l0.785132,0c0.654276,0 1.308553,0.130855 1.831974,0.523421"/>
        <path d="m48.188234,4.08625l1.701119,1.046842c0.392566,0.261711 0.261711,0.785132 -0.261711,0.785132l-0.785132,0.130855c-0.654276,0.130855 -1.308553,0 -1.831974,-0.392566l-1.701119,-1.046842c-0.392566,-0.261711 -0.261711,-0.785132 0.261711,-0.785132l0.785132,-0.130855c0.654276,-0.130855 1.308553,0 1.831974,0.392566"/>
        <path d="m44.393431,5.133093l1.831974,0.915987c0.392566,0.130855 0.261711,0.785132 -0.130855,0.785132l-0.785132,0.130855c-0.654276,0.130855 -1.308553,0 -1.831974,-0.261711l-1.831974,-0.915987c-0.392566,-0.130855 -0.261711,-0.785132 0.130855,-0.785132l0.785132,-0.130855c0.523421,-0.130855 1.308553,-0.130855 1.831974,0.261711"/>
        <path d="m40.598627,6.31079l1.831974,0.785132c0.392566,0.130855 0.261711,0.785132 -0.130855,0.785132l-0.785132,0.261711c-0.654276,0.130855 -1.308553,0.130855 -1.962829,-0.130855l-1.831974,-0.785132c-0.392566,-0.130855 -0.261711,-0.785132 0.130855,-0.785132l0.785132,-0.261711c0.785132,-0.130855 1.439408,-0.130855 1.962829,0.130855"/>
        <path d="m36.934679,7.881054l1.962829,0.654276c0.392566,0.130855 0.392566,0.654276 0,0.785132l-0.785132,0.261711c-0.654276,0.261711 -1.308553,0.261711 -1.962829,0l-1.962829,-0.654276c-0.392566,-0.130855 -0.392566,-0.654276 0,-0.785132l0.785132,-0.261711c0.654276,-0.130855 1.439408,-0.130855 1.962829,0"/>
        <path d="m33.401587,9.713028l1.962829,0.523421c0.392566,0.130855 0.392566,0.654276 0,0.785132l-0.654276,0.392566c-0.654276,0.261711 -1.308553,0.392566 -1.962829,0.130855l-1.962829,-0.523421c-0.392566,-0.130855 -0.392566,-0.654276 0,-0.785132l0.654276,-0.392566c0.654276,-0.261711 1.308553,-0.261711 1.962829,-0.130855"/>
        <path d="m29.999349,11.806712l1.962829,0.392566c0.392566,0.130855 0.392566,0.654276 0.130855,0.785132l-0.654276,0.392566c-0.523421,0.261711 -1.308553,0.392566 -1.831974,0.261711l-1.962829,-0.392566c-0.392566,-0.130855 -0.392566,-0.654276 -0.130855,-0.785132l0.654276,-0.392566c0.523421,-0.261711 1.177698,-0.392566 1.831974,-0.261711"/>
        <path d="m26.727967,14.031252l2.093685,0.261711c0.392566,0 0.523421,0.654276 0.130855,0.785132l-0.654276,0.392566c-0.523421,0.392566 -1.177698,0.523421 -1.831974,0.392566l-2.093685,-0.261711c-0.392566,0 -0.523421,-0.654276 -0.130855,-0.785132l0.654276,-0.392566c0.523421,-0.261711 1.177698,-0.392566 1.831974,-0.392566"/>
        <path d="m23.718295,16.517503l2.093685,0.130855c0.392566,0 0.523421,0.523421 0.261711,0.785132l-0.654276,0.523421c-0.523421,0.392566 -1.177698,0.654276 -1.831974,0.523421l-2.093685,-0.130855c-0.392566,0 -0.523421,-0.523421 -0.261711,-0.785132l0.654276,-0.523421c0.523421,-0.261711 1.177698,-0.523421 1.831974,-0.523421"/>
        <path d="m20.839479,19.265464l2.093685,0c0.392566,0 0.523421,0.523421 0.261711,0.785132l-0.654276,0.523421c-0.523421,0.392566 -1.177698,0.654276 -1.831974,0.654276l-2.093685,0c-0.392566,0 -0.523421,-0.523421 -0.261711,-0.785132l0.654276,-0.523421c0.523421,-0.392566 1.177698,-0.654276 1.831974,-0.654276"/>
        <path d="m18.091518,22.14428l2.093685,-0.130855c0.392566,0 0.654276,0.523421 0.261711,0.785132l-0.523421,0.523421c-0.523421,0.523421 -1.046842,0.785132 -1.701119,0.785132l-2.093685,0.130855c-0.392566,0 -0.654276,-0.523421 -0.261711,-0.785132l0.523421,-0.523421c0.392566,-0.392566 1.046842,-0.654276 1.701119,-0.785132"/>
        <path d="m15.605268,25.284807l2.093685,-0.261711c0.392566,0 0.654276,0.392566 0.392566,0.785132l-0.523421,0.654276c-0.392566,0.523421 -1.046842,0.785132 -1.701119,0.915987l-2.093685,0.261711c-0.392566,0 -0.654276,-0.392566 -0.392566,-0.785132l0.523421,-0.654276c0.392566,-0.523421 1.046842,-0.785132 1.701119,-0.915987"/>
        <path d="m13.249873,28.556189l1.962829,-0.392566c0.392566,-0.130855 0.654276,0.392566 0.392566,0.785132l-0.523421,0.654276c-0.392566,0.523421 -0.915987,0.915987 -1.570263,1.046842l-1.962829,0.392566c-0.392566,0.130855 -0.654276,-0.392566 -0.392566,-0.785132l0.523421,-0.654276c0.392566,-0.523421 1.046842,-0.915987 1.570263,-1.046842"/>
        <path d="m11.287043,31.958426l1.962829,-0.523421c0.392566,-0.130855 0.654276,0.392566 0.523421,0.654276l-0.392566,0.654276c-0.392566,0.523421 -0.915987,0.915987 -1.570263,1.177698l-1.962829,0.523421c-0.392566,0.130855 -0.654276,-0.392566 -0.523421,-0.654276l0.392566,-0.654276c0.392566,-0.654276 0.915987,-1.046842 1.570263,-1.177698"/>
        <path d="m9.455069,35.491519l1.962829,-0.654276c0.392566,-0.130855 0.785132,0.261711 0.523421,0.654276l-0.392566,0.654276c-0.392566,0.523421 -0.785132,1.046842 -1.439408,1.308553l-1.962829,0.654276c-0.392566,0.130855 -0.785132,-0.261711 -0.523421,-0.654276l0.392566,-0.654276c0.392566,-0.654276 0.785132,-1.046842 1.439408,-1.308553"/>
        <path d="m7.884806,39.155467l1.831974,-0.785132c0.392566,-0.130855 0.785132,0.261711 0.523421,0.654276l-0.392566,0.654276c-0.261711,0.654276 -0.785132,1.046842 -1.308553,1.308553l-1.831974,0.785132c-0.392566,0.130855 -0.785132,-0.261711 -0.523421,-0.654276l0.392566,-0.654276c0.261711,-0.523421 0.785132,-1.046842 1.308553,-1.308553"/>
        <path d="m6.576253,42.95027l1.831974,-0.915987c0.392566,-0.130855 0.785132,0.261711 0.654276,0.523421l-0.261711,0.785132c-0.261711,0.654276 -0.654276,1.177698 -1.308553,1.439408l-1.831974,0.915987c-0.392566,0.130855 -0.785132,-0.261711 -0.654276,-0.523421l0.261711,-0.785132c0.392566,-0.654276 0.785132,-1.177698 1.308553,-1.439408"/>
        <path d="m5.660266,46.745074l1.701119,-1.046842c0.392566,-0.261711 0.785132,0.130855 0.654276,0.523421l-0.261711,0.785132c-0.261711,0.654276 -0.654276,1.177698 -1.177698,1.570263l-1.701119,1.046842c-0.392566,0.261711 -0.785132,-0.130855 -0.654276,-0.523421l0.261711,-0.785132c0.130855,-0.654276 0.523421,-1.177698 1.177698,-1.570263"/>
        <path d="m4.875134,50.670732l1.701119,-1.177698c0.261711,-0.261711 0.785132,0.130855 0.654276,0.523421l-0.130855,0.785132c-0.130855,0.654276 -0.523421,1.177698 -1.046842,1.570263l-1.701119,1.177698c-0.261711,0.261711 -0.785132,-0.130855 -0.654276,-0.523421l0.130855,-0.785132c0.130855,-0.654276 0.523421,-1.177698 1.046842,-1.570263"/>
        <path d="m4.351713,54.596391l1.570263,-1.308553c0.261711,-0.261711 0.785132,0 0.654276,0.392566l-0.130855,0.785132c-0.130855,0.654276 -0.392566,1.308553 -0.915987,1.701119l-1.570263,1.308553c-0.261711,0.261711 -0.785132,0 -0.654276,-0.392566l0.130855,-0.785132c0.130855,-0.785132 0.392566,-1.308553 0.915987,-1.701119"/>
        <path d="m4.220858,58.522049l1.439408,-1.439408c0.261711,-0.261711 0.785132,0 0.785132,0.392566l-0.130855,0.785132c0,0.654276 -0.392566,1.308553 -0.785132,1.701119l-1.439408,1.439408c-0.261711,0.261711 -0.785132,0 -0.785132,-0.392566l0.130855,-0.785132c0,-0.654276 0.261711,-1.177698 0.785132,-1.701119"/>
        <path d="m4.220858,62.447708l1.439408,-1.570263c0.261711,-0.261711 0.785132,-0.130855 0.785132,0.392566l0,0.785132c0,0.654276 -0.261711,1.308553 -0.654276,1.831974l-1.439408,1.570263c-0.261711,0.261711 -0.785132,0 -0.785132,-0.392566l0,-0.785132c0,-0.654276 0.261711,-1.308553 0.654276,-1.831974"/>
        <path d="m4.613424,66.504222l1.308553,-1.570263c0.261711,-0.261711 0.785132,-0.130855 0.785132,0.261711l0,0.785132c0,0.654276 -0.130855,1.308553 -0.523421,1.831974l-1.308553,1.570263c-0.261711,0.261711 -0.785132,0.130855 -0.785132,-0.261711l0,-0.785132c-0.130855,-0.654276 0.130855,-1.308553 0.523421,-1.831974"/>
        <path d="m5.2677,70.429881l1.177698,-1.701119c0.261711,-0.392566 0.785132,-0.130855 0.785132,0.261711l0.130855,0.785132c0.130855,0.654276 -0.130855,1.308553 -0.392566,1.831974l-1.177698,1.701119c-0.261711,0.392566 -0.785132,0.130855 -0.785132,-0.261711l-0.130855,-0.785132c-0.130855,-0.654276 0,-1.308553 0.392566,-1.831974"/>
        <path d="m6.052832,74.224684l1.046842,-1.831974c0.261711,-0.392566 0.785132,-0.261711 0.785132,0.130855l0.130855,0.785132c0.130855,0.654276 0,1.308553 -0.261711,1.831974l-1.046842,1.831974c-0.261711,0.392566 -0.785132,0.261711 -0.785132,-0.130855l-0.130855,-0.785132c-0.130855,-0.523421 0,-1.177698 0.261711,-1.831974"/>
        <path d="m7.230529,78.019487l0.915987,-1.831974c0.130855,-0.392566 0.785132,-0.261711 0.785132,0.130855l0.261711,0.785132c0.130855,0.654276 0.130855,1.308553 -0.130855,1.962829l-0.915987,1.831974c-0.130855,0.392566 -0.785132,0.261711 -0.785132,-0.130855l-0.261711,-0.785132c-0.130855,-0.654276 -0.130855,-1.308553 0.130855,-1.962829"/>
        <path d="m8.669938,81.81429l0.785132,-1.962829c0.130855,-0.392566 0.654276,-0.392566 0.785132,0l0.261711,0.785132c0.261711,0.654276 0.261711,1.308553 0,1.962829l-0.785132,1.962829c-0.130855,0.392566 -0.654276,0.392566 -0.785132,0l-0.261711,-0.785132c-0.261711,-0.785132 -0.261711,-1.439408 0,-1.962829"/>
        <path d="m10.371056,85.347383l0.654276,-1.962829c0.130855,-0.392566 0.654276,-0.392566 0.785132,0l0.261711,0.785132c0.261711,0.654276 0.261711,1.308553 0.130855,1.962829l-0.654276,1.962829c-0.130855,0.392566 -0.654276,0.392566 -0.785132,0l-0.261711,-0.785132c-0.261711,-0.654276 -0.261711,-1.308553 -0.130855,-1.962829"/>
        <path d="m12.333886,88.880476l0.523421,-1.962829c0.130855,-0.392566 0.654276,-0.392566 0.785132,0l0.392566,0.654276c0.261711,0.654276 0.392566,1.308553 0.261711,1.962829l-0.523421,1.962829c-0.130855,0.392566 -0.654276,0.392566 -0.785132,0l-0.392566,-0.654276c-0.392566,-0.654276 -0.392566,-1.439408 -0.261711,-1.962829"/>
        <path d="m14.42757,92.151858l0.392566,-2.093685c0.130855,-0.392566 0.654276,-0.523421 0.785132,-0.130855l0.392566,0.654276c0.392566,0.523421 0.523421,1.177698 0.392566,1.831974l-0.392566,2.093685c-0.130855,0.392566 -0.654276,0.523421 -0.785132,0.130855l-0.392566,-0.654276c-0.261711,-0.523421 -0.392566,-1.177698 -0.392566,-1.831974"/>
        <path d="m16.913821,95.292385l0.261711,-2.093685c0,-0.392566 0.654276,-0.523421 0.785132,-0.130855l0.392566,0.654276c0.392566,0.523421 0.523421,1.177698 0.523421,1.831974l-0.261711,2.093685c0,0.392566 -0.654276,0.523421 -0.785132,0.130855l-0.392566,-0.654276c-0.392566,-0.523421 -0.654276,-1.177698 -0.523421,-1.831974"/>
        <path d="m19.530926,98.302056l0.130855,-2.093685c0,-0.392566 0.523421,-0.523421 0.785132,-0.261711l0.523421,0.654276c0.392566,0.523421 0.654276,1.177698 0.654276,1.831974l-0.130855,2.093685c0,0.392566 -0.523421,0.523421 -0.785132,0.261711l-0.523421,-0.654276c-0.523421,-0.523421 -0.654276,-1.177698 -0.654276,-1.831974"/>
        <path d="m22.278887,101.180873l-0.130855,-2.093685c0,-0.392566 0.523421,-0.654276 0.785132,-0.261711l0.523421,0.523421c0.392566,0.523421 0.654276,1.177698 0.785132,1.701119l0.130855,2.093685c0,0.392566 -0.523421,0.654276 -0.785132,0.261711l-0.523421,-0.523421c-0.523421,-0.523421 -0.785132,-1.046842 -0.785132,-1.701119"/>
        <path d="m25.288559,103.667123l-0.261711,-2.093685c0,-0.392566 0.523421,-0.654276 0.785132,-0.392566l0.523421,0.523421c0.523421,0.392566 0.785132,1.046842 0.915987,1.701119l0.261711,2.093685c0,0.392566 -0.523421,0.654276 -0.785132,0.392566l-0.523421,-0.523421c-0.523421,-0.392566 -0.785132,-1.046842 -0.915987,-1.701119"/>
        <path d="m28.429086,106.153374l-0.392566,-2.093685c-0.130855,-0.392566 0.392566,-0.654276 0.785132,-0.392566l0.654276,0.523421c0.523421,0.392566 0.915987,1.046842 0.915987,1.701119l0.392566,2.093685c0.130855,0.392566 -0.392566,0.654276 -0.785132,0.392566l-0.654276,-0.523421c-0.392566,-0.523421 -0.785132,-1.046842 -0.915987,-1.701119"/>
        <path d="m31.831323,108.247058l-0.523421,-1.962829c-0.130855,-0.392566 0.392566,-0.654276 0.654276,-0.392566l0.654276,0.392566c0.523421,0.392566 0.915987,0.915987 1.046842,1.570263l0.523421,1.962829c0.130855,0.392566 -0.392566,0.654276 -0.654276,0.392566l-0.654276,-0.392566c-0.523421,-0.392566 -0.915987,-0.915987 -1.046842,-1.570263"/>
        <path d="m35.233561,110.209888l-0.654276,-1.962829c-0.130855,-0.392566 0.392566,-0.654276 0.654276,-0.523421l0.654276,0.392566c0.523421,0.392566 1.046842,0.915987 1.177698,1.439408l0.654276,1.962829c0.130855,0.392566 -0.392566,0.654276 -0.654276,0.523421l-0.654276,-0.392566c-0.523421,-0.261711 -0.915987,-0.785132 -1.177698,-1.439408"/>
        <path d="m38.897509,111.911006l-0.785132,-1.962829c-0.130855,-0.392566 0.261711,-0.785132 0.654276,-0.523421l0.654276,0.392566c0.654276,0.261711 1.046842,0.785132 1.308553,1.439408l0.785132,1.962829c0.130855,0.392566 -0.261711,0.785132 -0.654276,0.523421l-0.654276,-0.392566c-0.654276,-0.392566 -1.046842,-0.915987 -1.308553,-1.439408"/>
        <path d="m42.561457,113.350414l-0.915987,-1.831974c-0.130855,-0.392566 0.261711,-0.785132 0.654276,-0.654276l0.785132,0.261711c0.654276,0.261711 1.046842,0.785132 1.439408,1.308553l0.915987,1.831974c0.130855,0.392566 -0.261711,0.785132 -0.654276,0.523421l-0.785132,-0.261711c-0.654276,-0.130855 -1.046842,-0.654276 -1.439408,-1.177698"/>
        <path d="m46.35626,114.397257l-1.046842,-1.831974c-0.261711,-0.392566 0.130855,-0.785132 0.523421,-0.654276l0.785132,0.261711c0.654276,0.261711 1.177698,0.654276 1.439408,1.177698l1.046842,1.831974c0.261711,0.392566 -0.130855,0.785132 -0.523421,0.654276l-0.785132,-0.261711c-0.523421,-0.130855 -1.046842,-0.523421 -1.439408,-1.177698"/>
        <path d="m50.281919,115.313244l-1.177698,-1.701119c-0.261711,-0.392566 0.130855,-0.785132 0.523421,-0.654276l0.785132,0.261711c0.654276,0.130855 1.177698,0.523421 1.570263,1.046842l1.177698,1.701119c0.261711,0.392566 -0.130855,0.785132 -0.523421,0.654276l-0.785132,-0.261711c-0.654276,-0.130855 -1.177698,-0.523421 -1.570263,-1.046842"/>
        <path d="m54.207577,115.96752l-1.308553,-1.570263c-0.261711,-0.261711 0.130855,-0.785132 0.523421,-0.654276l0.785132,0.130855c0.654276,0.130855 1.177698,0.523421 1.701119,1.046842l1.308553,1.570263c0.261711,0.261711 -0.130855,0.785132 -0.523421,0.654276l-0.785132,-0.130855c-0.785132,-0.261711 -1.308553,-0.523421 -1.701119,-1.046842"/>
        <path d="m58.133236,116.360086l-1.439408,-1.570263c-0.261711,-0.261711 0,-0.785132 0.392566,-0.785132l0.785132,0.130855c0.654276,0.130855 1.308553,0.392566 1.701119,0.915987l1.439408,1.570263c0.261711,0.261711 0,0.785132 -0.392566,0.785132l-0.785132,-0.130855c-0.654276,-0.130855 -1.177698,-0.523421 -1.701119,-0.915987"/>
        <path d="m62.18975,116.360086l-1.439408,-1.439408c-0.261711,-0.261711 0,-0.785132 0.392566,-0.785132l0.785132,0c0.654276,0 1.308553,0.261711 1.701119,0.785132l1.439408,1.439408c0.261711,0.261711 0,0.785132 -0.392566,0.785132l-0.785132,0c-0.654276,-0.130855 -1.308553,-0.392566 -1.701119,-0.785132"/>
        <path d="m66.115408,116.098375l-1.570263,-1.308553c-0.261711,-0.261711 -0.130855,-0.785132 0.261711,-0.785132l0.785132,0c0.654276,0 1.308553,0.261711 1.831974,0.654276l1.570263,1.308553c0.261711,0.261711 0.130855,0.785132 -0.261711,0.785132l-0.785132,0c-0.654276,0 -1.308553,-0.130855 -1.831974,-0.654276"/>
        <path d="m70.041067,115.70581l-1.701119,-1.177698c-0.261711,-0.261711 -0.130855,-0.785132 0.261711,-0.785132l0.785132,0c0.654276,0 1.308553,0.130855 1.831974,0.523421l1.701119,1.177698c0.261711,0.261711 0.130855,0.785132 -0.261711,0.785132l-0.785132,0.130855c-0.654276,-0.130855 -1.308553,-0.261711 -1.831974,-0.654276"/>
        <path d="m73.966725,114.920678l-1.701119,-1.046842c-0.392566,-0.261711 -0.261711,-0.785132 0.261711,-0.785132l0.785132,-0.130855c0.654276,-0.130855 1.308553,0 1.831974,0.392566l1.701119,1.046842c0.392566,0.261711 0.261711,0.785132 -0.261711,0.785132l-0.785132,0.130855c-0.654276,0 -1.308553,-0.130855 -1.831974,-0.392566"/>
        <path d="m77.761529,113.873836l-1.831974,-0.915987c-0.392566,-0.130855 -0.261711,-0.785132 0.130855,-0.785132l0.785132,-0.130855c0.654276,-0.130855 1.308553,0 1.962829,0.261711l1.831974,0.915987c0.392566,0.130855 0.261711,0.785132 -0.130855,0.785132l-0.785132,0.130855c-0.654276,0.130855 -1.308553,0 -1.962829,-0.261711"/>
        <path d="m81.556332,112.565283l-1.831974,-0.785132c-0.392566,-0.130855 -0.261711,-0.785132 0.130855,-0.785132l0.785132,-0.261711c0.654276,-0.130855 1.308553,-0.130855 1.962829,0.130855l1.831974,0.785132c0.392566,0.130855 0.261711,0.785132 -0.130855,0.785132l-0.785132,0.261711c-0.654276,0.130855 -1.439408,0.130855 -1.962829,-0.130855"/>
        <path d="m85.22028,110.995019l-1.962829,-0.654276c-0.392566,-0.130855 -0.392566,-0.654276 0,-0.785132l0.785132,-0.261711c0.654276,-0.261711 1.308553,-0.261711 1.962829,0l1.962829,0.654276c0.392566,0.130855 0.392566,0.654276 0,0.785132l-0.785132,0.261711c-0.654276,0.261711 -1.439408,0.261711 -1.962829,0"/>
        <path d="m88.753373,109.163045l-1.962829,-0.523421c-0.392566,-0.130855 -0.392566,-0.654276 0,-0.785132l0.654276,-0.392566c0.654276,-0.261711 1.308553,-0.392566 1.962829,-0.130855l1.962829,0.523421c0.392566,0.130855 0.392566,0.654276 0,0.785132l-0.654276,0.392566c-0.654276,0.261711 -1.308553,0.392566 -1.962829,0.130855"/>
        <path d="m92.15561,107.200216l-1.962829,-0.392566c-0.392566,-0.130855 -0.392566,-0.654276 -0.130855,-0.785132l0.654276,-0.392566c0.523421,-0.261711 1.308553,-0.392566 1.831974,-0.261711l1.962829,0.392566c0.392566,0.130855 0.392566,0.654276 0.130855,0.785132l-0.654276,0.392566c-0.523421,0.261711 -1.177698,0.392566 -1.831974,0.261711"/>
        <path d="m95.426992,104.844821l-2.093685,-0.261711c-0.392566,0 -0.523421,-0.654276 -0.130855,-0.785132l0.654276,-0.392566c0.523421,-0.392566 1.177698,-0.523421 1.831974,-0.392566l2.093685,0.261711c0.392566,0 0.523421,0.654276 0.130855,0.785132l-0.654276,0.392566c-0.523421,0.392566 -1.177698,0.523421 -1.831974,0.392566"/>
        <path d="m98.436664,102.35857l-2.093685,-0.130855c-0.392566,0 -0.523421,-0.523421 -0.261711,-0.785132l0.654276,-0.523421c0.523421,-0.392566 1.177698,-0.654276 1.831974,-0.523421l2.093685,0.130855c0.392566,0 0.523421,0.523421 0.261711,0.785132l-0.654276,0.523421c-0.523421,0.392566 -1.177698,0.523421 -1.831974,0.523421"/>
       </g>
      </g>
      <polygon points="55.77783203125,14.68549633026123 59.04921340942383,12.330117225646973 57.74066162109375,8.404458999633789 61.01204299926758,10.759838104248047 64.41429138183594,8.404458999633789 63.105735778808594,12.199294090270996 66.37712097167969,14.68549633026123 62.32059860229492,14.68549633026123 61.142906188964844,18.480331420898438 59.834354400634766,14.68549633026123 "/>
      <polygon points="39.02837371826172,20.181434631347656 41.12204360961914,16.648326873779297 38.504940032958984,13.50784683227539 42.430599212646484,14.554673194885254 44.524288177490234,11.021564483642578 44.9168586730957,15.078126907348633 48.8425178527832,15.994049072265625 45.04770278930664,17.564329147338867 45.44027328491211,21.620891571044922 42.82316589355469,18.611154556274414 "/>
      <polygon points="25.681116104125977,31.565860748291016 26.33539390563965,27.50937843322754 22.67146110534668,25.677371978759766 26.59712028503418,25.153919219970703 27.25139617919922,21.097436904907227 29.083362579345703,24.63054656982422 33.13988494873047,23.97627067565918 30.261051177978516,26.8551025390625 32.09303665161133,30.519033432006836 28.55994987487793,28.687028884887695 "/>
      <polygon points="17.698955535888672,47.26849365234375 16.78297233581543,43.34283447265625 12.595588684082031,42.950286865234375 16.12869644165039,40.85655212402344 15.21269416809082,36.9308967590332 18.222370147705078,39.54800033569336 21.75545883178711,37.454349517822266 20.185197830200195,41.118282318115234 23.32573699951172,43.73538589477539 19.269216537475586,43.47365951538086 "/>
      <polygon points="16.259540557861328,64.80313873291016 13.904141426086426,61.53175354003906 9.978482246398926,62.70940399169922 12.464744567871094,59.438018798828125 9.978482246398926,56.1666374206543 13.904141426086426,57.47519302368164 16.259540557861328,54.20380783081055 16.259540557861328,58.260372161865234 20.185197830200195,59.438018798828125 16.259540557861328,60.74657440185547 "/>
      <polygon points="21.75545883178711,81.55259704589844 18.222370147705078,79.32804107666016 15.21269416809082,82.07596588134766 16.12869644165039,78.15030670166016 12.595588684082031,75.92583465576172 16.652109146118164,75.66410827636719 17.698955535888672,71.73844909667969 19.13835334777832,75.40238189697266 23.32573699951172,75.14065551757812 20.185197830200195,77.75775909423828 "/>
      <polygon points="33.13988494873047,94.89984893798828 29.21422576904297,94.24557495117188 27.25139617919922,97.90950775146484 26.727962493896484,93.85294342041016 22.67146110534668,93.19866943359375 26.33539390563965,91.49756622314453 25.681116104125977,87.44108581542969 28.42908477783203,90.31991577148438 32.09303665161133,88.35708618164062 30.261051177978516,92.0210189819336 "/>
      <polygon points="48.8425178527832,102.88198852539062 44.9168586730957,103.7979965209961 44.65513229370117,107.85447692871094 42.430599212646484,104.4522705078125 38.504940032958984,105.36827087402344 41.12204360961914,102.35853576660156 39.02837371826172,98.82550811767578 42.82316589355469,100.39570617675781 45.44027328491211,97.25523376464844 45.04770278930664,101.31171417236328 "/>
      <polygon points="66.37712097167969,104.32136535644531 63.105735778808594,106.67682647705078 64.41429138183594,110.4715805053711 61.142906188964844,108.11620330810547 57.74066162109375,110.4715805053711 59.04921340942383,106.67682647705078 55.77783203125,104.32136535644531 59.834354400634766,104.32136535644531 61.01204299926758,100.39570617675781 62.32059860229492,104.32136535644531 "/>
      <polygon points="83.12660217285156,98.82550811767578 81.03290557861328,102.22771453857422 83.65000915527344,105.36827087402344 79.72435760498047,104.4522705078125 77.63068389892578,107.85447692871094 77.23811340332031,103.7979965209961 73.31245422363281,102.88198852539062 77.10724639892578,101.31171417236328 76.71467590332031,97.25523376464844 79.331787109375,100.39570617675781 "/>
      <polygon points="96.47383117675781,87.44108581542969 95.8195571899414,91.36674499511719 99.48351287841797,93.19866943359375 95.55785369873047,93.85294342041016 94.90357208251953,97.90950775146484 93.07158660888672,94.24557495117188 89.01509094238281,94.89984893798828 91.8938980102539,92.0210189819336 90.06193542480469,88.35708618164062 93.59502410888672,90.31991577148438 "/>
      <polygon points="104.45601654052734,71.73844909667969 105.37200164794922,75.66410827636719 109.55936431884766,75.92583465576172 106.02627563476562,78.01948547363281 106.9422607421875,82.07596588134766 103.93257904052734,79.32804107666016 100.39949035644531,81.55259704589844 101.9697494506836,77.75775909423828 98.82923126220703,75.14065551757812 102.88573455810547,75.533203125 "/>
      <polygon points="105.8954086303711,54.20380783081055 108.25080871582031,57.47519302368164 112.17646789550781,56.1666374206543 109.69022369384766,59.438018798828125 112.17646789550781,62.70940399169922 108.25080871582031,61.53175354003906 105.8954086303711,64.80313873291016 105.8954086303711,60.74657440185547 101.9697494506836,59.438018798828125 105.8954086303711,58.260372161865234 "/>
      <polygon points="100.39949035644531,37.454349517822266 103.93257904052734,39.54800033569336 106.9422607421875,36.9308967590332 106.02627563476562,40.85655212402344 109.55936431884766,42.950286865234375 105.50283813476562,43.212013244628906 104.45601654052734,47.26849365234375 103.0166015625,43.47365951538086 98.96007537841797,43.86629104614258 101.9697494506836,41.249183654785156 "/>
      <polygon points="89.01509094238281,23.97627067565918 92.94074249267578,24.63054656982422 94.90357208251953,21.097436904907227 95.42698669433594,25.023096084594727 99.48351287841797,25.677371978759766 95.8195571899414,27.50937843322754 96.47383117675781,31.565860748291016 93.72586822509766,28.687028884887695 90.06193542480469,30.519033432006836 91.8938980102539,26.985925674438477 "/>
      <polygon points="73.31245422363281,15.994049072265625 77.23811340332031,15.078126907348633 77.63068389892578,11.021564483642578 79.72435760498047,14.554673194885254 83.65000915527344,13.50784683227539 81.03290557861328,16.648326873779297 83.12660217285156,20.05061149597168 79.462646484375,18.480331420898438 76.71467590332031,21.620891571044922 77.10724639892578,17.564329147338867 "/>
     </g>
     <g>
      <path d="m61.142907,98.040346c-21.329412,0 -38.602309,-17.272898 -38.602309,-38.602309c0,-21.329412 17.272898,-38.602309 38.602309,-38.602309s38.602309,17.272898 38.602309,38.602309c0,21.329412 -17.403753,38.602309 -38.602309,38.602309m0,-76.026921c-20.675135,0 -37.555467,16.880332 -37.555467,37.555467c0,20.675135 16.880332,37.555467 37.555467,37.555467c20.675135,0 37.555467,-16.880332 37.555467,-37.555467c-0.130855,-20.80599 -16.880332,-37.555467 -37.555467,-37.555467"/>
      <path d="m45.701984,37.585204c-3.009672,2.355395 -4.972501,1.570263 -5.365067,0.915987c-0.523421,-0.915987 0,-2.617106 1.308553,-4.187369c2.355395,-2.617106 5.495922,-3.140527 5.495922,-3.140527c0.523421,-0.130855 1.701119,0 2.22454,0.785132l0,0c0,0 0,0.130855 0.130855,0.261711c0.130855,0.523421 0.261711,1.046842 -0.261711,2.355395l-1.177698,-1.962829c-0.130855,-0.392566 -0.392566,-0.654276 -0.785132,-0.785132c-1.177698,-0.261711 -3.402237,1.177698 -4.318224,2.093685c-0.130855,0.130855 -0.261711,0.261711 -0.261711,0.523421c0,0.130855 0.130855,0.392566 0.130855,0.523421l2.878816,2.617106z"/>
      <path d="m47.010536,33.005269c0,0 -0.130855,0 -0.130855,0c-0.785132,-0.130855 -2.22454,0.654276 -3.140527,1.439408c0,0 0,0 0,0c0,0 0,0 0,0l2.617106,2.48625c0.261711,-0.261711 0.392566,-0.523421 0.654276,-0.915987c0.523421,-1.046842 0.785132,-1.962829 0.523421,-2.747961c-0.130855,-0.130855 -0.261711,-0.261711 -0.523421,-0.261711"/>
      <path d="m80.378634,84.823962c-4.187369,-6.281054 -8.767304,-12.692963 -13.216384,-18.712306c-0.130855,0.130855 -0.261711,0.130855 -0.392566,0.261711c0,0 0,0 0,0c0,0 0,0 0,0c-0.654276,0.392566 -1.308553,0.785132 -1.962829,1.046842c3.663948,5.234211 7.458751,11.38441 11.38441,18.450595c0.130855,0.261711 0.392566,0.392566 0.785132,0.392566c0.785132,0 2.093685,-0.261711 3.402237,-0.915987c0,0 0.130855,-0.261711 0,-0.523421z"/>
      <path d="m84.696859,78.281198c0,-0.130855 -0.130855,-0.261711 -0.261711,-0.392566c-1.570263,-1.570263 -8.767304,-8.505594 -14.394081,-14.786647c-0.654276,0.392566 -1.177698,0.785132 -1.570263,1.439408c-0.130855,0.261711 -0.392566,0.523421 -0.523421,0.785132c0,0 0,0.130855 0,0.130855c4.579935,6.150198 9.421581,12.954673 13.87066,19.497438c0.130855,0.130855 0.261711,0.261711 0.392566,0.130855c1.046842,-1.046842 3.533093,-3.271382 2.48625,-6.804475z"/>
      <path d="m59.703499,48.838758c-3.533093,-5.626777 -7.851317,-12.562107 -9.290725,-15.048358c-0.130855,1.308553 -0.654276,2.747961 -2.22454,4.972501c0,0.130855 0,0.130855 0,0.261711c0.915987,1.177698 4.44908,5.626777 8.505594,10.860989c1.046842,-0.523421 1.831974,-0.785132 3.009672,-1.046842z"/>
      <path d="m55.777841,50.409022c-4.056514,-5.103356 -7.851317,-9.945002 -8.636449,-10.860989c-0.261711,-0.261711 -0.261711,-0.654276 0,-0.915987c0.915987,-1.177698 1.439408,-2.22454 1.831974,-3.009672l-0.654276,-1.177698c0,0.654276 -0.261711,1.439408 -0.654276,2.22454c-0.915987,1.570263 -2.48625,2.747961 -4.318224,3.140527c-0.654276,0.130855 -1.046842,0.130855 -1.570263,0.130855c1.701119,1.439408 6.542764,6.281054 11.64612,12.300397c0.915987,-0.654276 1.570263,-1.308553 2.355395,-1.831974z"/>
      <path d="m83.257451,38.762901c-0.130855,0 -0.130855,-0.130855 -0.261711,-0.130855c0.130855,-0.130855 0.261711,-0.261711 0.392566,-0.392566c0.654276,-0.915987 1.046842,-2.093685 0.915987,-3.271382c-0.130855,-1.177698 -0.785132,-2.22454 -1.570263,-2.878816c-1.831974,-1.439408 -4.579935,-1.177698 -6.150198,0.785132c-0.130855,0.130855 -0.261711,0.261711 -0.392566,0.523421c-0.130855,-0.130855 -0.130855,-0.130855 -0.261711,-0.261711c-1.046842,-0.785132 -2.355395,-1.177698 -3.663948,-1.046842c-1.308553,0.130855 -2.48625,0.785132 -3.402237,1.831974c-0.785132,1.046842 -1.177698,2.355395 -1.046842,3.663948c0.130855,1.308553 0.785132,2.48625 1.831974,3.402237c0.654276,0.523421 1.308553,0.785132 2.093685,0.915987c0,0 0,0.130855 0,0.130855c-0.130855,0 -0.392566,0.130855 -0.392566,0.261711c-0.130855,0.261711 -0.261711,0.392566 -0.130855,0.654276c-0.654276,-0.130855 -1.439408,0 -1.831974,0.523421c-0.261711,0.392566 -0.392566,0.785132 -0.392566,1.308553c0,0.392566 0.261711,0.785132 0.523421,1.046842l-3.140527,4.056514c0.915987,0.523421 1.701119,1.439408 2.22454,2.355395c0.130855,0 0.130855,0 0.130855,0l3.402237,-4.187369c0.654276,0.392566 1.701119,0.261711 2.22454,-0.392566c0.261711,-0.392566 0.392566,-0.785132 0.392566,-1.308553c0,-0.261711 -0.130855,-0.392566 -0.261711,-0.654276l0,0c0.261711,0 0.523421,-0.130855 0.654276,-0.392566c0.130855,-0.130855 0.130855,-0.261711 0.130855,-0.523421c0,0 0.130855,0 0.130855,0c0.392566,0.654276 0.785132,1.308553 1.439408,1.831974c1.046842,0.785132 2.355395,1.177698 3.663948,1.046842c1.308553,-0.130855 2.48625,-0.785132 3.402237,-1.831974c1.962829,-2.093685 1.570263,-5.234211 -0.654276,-7.066185zm-1.177698,6.150198c-0.915987,0.785132 -2.093685,0.915987 -3.140527,0.392566c-1.177698,-0.654276 -1.831974,-1.962829 -1.439408,-3.140527c0.130855,-0.654276 0.523421,-1.177698 0.654276,-1.308553c0.261711,-0.130855 0.523421,-0.261711 0.654276,-0.392566c0.523421,-0.654276 0.261711,-1.701119 -0.654276,-2.355395c-0.915987,-0.654276 -1.962829,-0.654276 -2.48625,0c-0.130855,0.130855 -0.261711,0.392566 -0.261711,0.654276c-0.261711,0.261711 -0.654276,0.785132 -1.308553,1.177698c-1.177698,0.523421 -2.48625,0.130855 -3.271382,-0.785132c-0.785132,-0.915987 -0.915987,-2.093685 -0.261711,-3.140527c0.392566,-0.785132 1.046842,-1.308553 1.962829,-1.439408c0.785132,-0.130855 1.701119,0 2.355395,0.523421l0.392566,0.523421l0.261711,1.046842c0.130855,0.523421 0.654276,0.915987 1.177698,0.785132l1.177698,-0.130855c0.523421,-0.130855 0.915987,-0.523421 0.785132,-1.177698l-0.130855,-1.308553c0,-0.130855 0.130855,-0.261711 0.261711,-0.392566c0.785132,-0.915987 2.093685,-1.046842 3.009672,-0.392566c0.915987,0.785132 1.046842,2.093685 0.392566,3.009672c-0.130855,0.130855 -0.130855,0.261711 -0.261711,0.261711l-1.308553,0.130855c0,0 0,0 0,0c-0.523421,0 -0.915987,0.523421 -0.915987,1.046842l0.130855,1.177698c0,0.523421 0.523421,0.915987 1.046842,0.915987l1.046842,0l0.523421,0.261711c0.654276,0.523421 1.046842,1.308553 1.046842,2.093685c-0.523421,0.654276 -0.785132,1.439408 -1.439408,1.962829z"/>
      <path d="m54.207577,65.45738l-8.505594,10.599278l-0.785132,-0.654276l2.22454,-2.878816l-0.523421,-0.392566l-1.962829,0.915987l0.392566,-2.093685l-3.402237,-2.747961l-1.701119,2.22454l2.48625,1.962829l-1.046842,1.308553l-2.48625,-1.962829l-1.831974,2.22454l2.48625,1.962829l-1.046842,1.308553l-2.48625,-1.962829l-1.701119,2.22454l5.626777,4.44908l2.093685,-2.617106l0.785132,0.654276l-3.663948,4.71079l2.617106,2.093685l15.440924,-19.497438c-1.177698,-0.261711 -2.093685,-1.046842 -3.009672,-1.831974z"/>
      <g>
       <path d="m63.367447,61.139155c-0.392566,0.654276 -1.046842,1.177698 -1.701119,1.570263c-0.654276,0.392566 -1.308553,0.523421 -1.962829,0.523421c-0.130855,0 -0.130855,0 -0.261711,0c-1.177698,0 -2.22454,-0.392566 -3.009672,-1.177698c-0.915987,-0.785132 -1.570263,-2.093685 -1.570263,-3.533093c0,-0.915987 0.261711,-1.701119 0.654276,-2.48625c0.523421,-0.785132 1.177698,-1.439408 1.962829,-1.831974c0.130855,-0.130855 0.392566,-0.130855 0.523421,-0.261711c0.392566,-0.130855 0.915987,-0.261711 1.439408,-0.261711c1.701119,0 3.140527,0.915987 3.925659,2.22454c-0.654276,-0.785132 -1.701119,-1.177698 -2.747961,-1.177698c-0.523421,0 -1.046842,0.130855 -1.570263,0.392566c-0.130855,0.130855 -0.392566,0.130855 -0.523421,0.261711c-0.785132,0.523421 -1.308553,1.308553 -1.570263,2.22454c-0.130855,0.261711 -0.130855,0.654276 -0.130855,0.915987c0,0.785132 0.261711,1.570263 0.785132,2.22454c0.654276,0.915987 1.701119,1.439408 3.009672,1.439408l0,0c0.261711,0 0.523421,0 0.654276,-0.130855c0.915987,0 1.570263,-0.392566 2.093685,-0.915987"/>
       <polygon points="66.63882446289062,58.91464614868164 67.42396545410156,59.96147537231445 65.72283935546875,59.438018798828125 64.8068618774414,60.87747573852539 64.8068618774414,59.176292419433594 63.23659896850586,58.65291976928711 64.8068618774414,58.12946701049805 64.8068618774414,56.42836380004883 65.19943237304688,56.95181655883789 65.72283935546875,57.73691940307617 67.42396545410156,57.213462829589844 66.37712097167969,58.65291976928711 "/>
       <g>
        <g>
         <polygon points="69.51763916015625,59.96147537231445 69.51763916015625,59.30719757080078 70.69535064697266,59.30719757080078 70.56448364257812,60.0922966003418 "/>
        </g>
        <g>
         <polygon points="68.99422454833984,61.400848388671875 69.25592803955078,60.74657440185547 70.30278015136719,61.139122009277344 70.17191314697266,61.92430114746094 "/>
        </g>
        <g>
         <polygon points="68.33995056152344,62.84030532836914 68.60165405273438,62.31685256958008 69.64849853515625,62.84030532836914 69.25592803955078,63.49458312988281 "/>
        </g>
        <g>
         <polygon points="67.42396545410156,64.14885711669922 67.81653594970703,63.625404357910156 68.7325210571289,64.27967834472656 68.2090835571289,64.9339599609375 "/>
        </g>
        <g>
         <polygon points="66.24625396728516,65.19568634033203 66.76969146728516,64.67223358154297 67.5548095703125,65.5882339477539 66.9005355834961,66.11168670654297 "/>
        </g>
        <g>
         <polygon points="64.93770599365234,65.98078155517578 65.46113586425781,65.71905517578125 66.11540985107422,66.63506317138672 65.46113586425781,67.0276107788086 "/>
        </g>
        <g>
         <polygon points="63.3674430847168,66.50423431396484 64.02172088623047,66.37333679199219 64.54515075683594,67.42024230957031 63.760013580322266,67.681884765625 "/>
        </g>
        <g>
         <polygon points="61.92804718017578,66.89678955078125 62.58232498168945,66.76596069335938 62.713165283203125,67.94361114501953 61.92804718017578,67.94361114501953 "/>
        </g>
        <g>
         <polygon points="60.35776901245117,66.89678955078125 61.01204299926758,66.89678955078125 61.01204299926758,68.07451629638672 60.226924896240234,67.94361114501953 "/>
        </g>
        <g>
         <path d="m58.787512,66.504222c0,0 0.654276,0.261711 0.654276,0.261711l-0.261711,1.177698c0,0 -0.785132,-0.261711 -0.785132,-0.261711l0.392566,-1.177698z"/>
        </g>
        <g>
         <path d="m57.348104,65.980801c0,0 0.654276,0.392566 0.654276,0.261711l-0.392566,1.046842c0,0 -0.654276,-0.392566 -0.654276,-0.392566l0.392566,-0.915987z"/>
        </g>
        <g>
         <path d="m55.908696,65.195669c0,0 0.523421,0.392566 0.523421,0.392566l-0.654276,0.915987c0,0 -0.654276,-0.392566 -0.654276,-0.392566l0.785132,-0.915987z"/>
        </g>
        <g>
         <path d="m54.730998,64.148827c0,0 0.392566,0.523421 0.523421,0.523421l-0.785132,0.785132c0,0 -0.523421,-0.523421 -0.523421,-0.523421l0.785132,-0.785132z"/>
        </g>
        <g>
         <path d="m53.815011,62.840274c0,0 0.392566,0.523421 0.392566,0.523421l-0.915987,0.654276c0,0 -0.523421,-0.654276 -0.392566,-0.654276l0.915987,-0.523421z"/>
        </g>
        <g>
         <path d="m53.160735,61.400866c0,0 0.261711,0.654276 0.261711,0.654276l-1.046842,0.523421c0,0 -0.392566,-0.654276 -0.261711,-0.654276l1.046842,-0.523421z"/>
        </g>
        <g>
         <path d="m52.637314,59.961458c0,0 0.130855,0.654276 0.130855,0.654276l-1.177698,0.261711c0,0 -0.261711,-0.785132 -0.261711,-0.785132l1.308553,-0.130855z"/>
        </g>
        <g>
         <polygon points="52.50645065307617,58.39119338989258 52.63731384277344,59.04547119140625 51.459625244140625,59.176292419433594 51.32876205444336,58.39119338989258 "/>
        </g>
        <g>
         <polygon points="52.63731384277344,56.82091522216797 52.63731384277344,57.47519302368164 51.459625244140625,57.34436798095703 51.59046936035156,56.55918884277344 "/>
        </g>
        <g>
         <polygon points="53.160728454589844,55.25063705444336 52.89902114868164,55.904911041259766 51.8521728515625,55.64326477050781 51.983036041259766,54.85808563232422 "/>
        </g>
        <g>
         <polygon points="53.81500244140625,53.942081451416016 53.55329513549805,54.46553421020508 52.50645065307617,53.942081451416016 52.89902114868164,53.28780746459961 "/>
        </g>
        <g>
         <polygon points="54.73100662231445,52.63352966308594 54.338436126708984,53.156982421875 53.422454833984375,52.50270462036133 53.945865631103516,51.84843063354492 "/>
        </g>
        <g>
         <polygon points="55.908695220947266,51.58670425415039 55.385284423828125,51.979251861572266 54.60014343261719,51.19415283203125 55.25442123413086,50.67070007324219 "/>
        </g>
        <g>
         <polygon points="57.34811019897461,50.801605224609375 56.6938362121582,51.063331604003906 56.03955841064453,50.016422271728516 56.82468032836914,49.75477600097656 "/>
        </g>
        <g>
         <polygon points="58.78750991821289,50.1473274230957 58.13323211669922,50.409053802490234 57.74066162109375,49.36214828491211 58.39493942260742,49.100502014160156 "/>
        </g>
        <g>
         <polygon points="60.35776901245117,49.88560104370117 59.57264709472656,50.016422271728516 59.4417839050293,48.838775634765625 60.226924896240234,48.70787048339844 "/>
        </g>
        <g>
         <polygon points="61.92804718017578,49.88560104370117 61.142906188964844,49.88560104370117 61.142906188964844,48.70787048339844 61.92804718017578,48.70787048339844 "/>
        </g>
        <g>
         <path d="m63.367447,50.147311c0,0 -0.654276,-0.261711 -0.654276,-0.261711l0.261711,-1.177698c0,0 0.785132,0.261711 0.785132,0.261711l-0.392566,1.177698z"/>
        </g>
        <g>
         <path d="m64.937711,50.801588c0,0 -0.654276,-0.392566 -0.654276,-0.261711l0.392566,-1.046842c0,0 0.654276,0.392566 0.654276,0.392566l-0.392566,0.915987z"/>
        </g>
        <g>
         <path d="m66.246263,51.586719c0,0 -0.523421,-0.392566 -0.523421,-0.392566l0.654276,-0.915987c0,0 0.654276,0.392566 0.654276,0.392566l-0.785132,0.915987z"/>
        </g>
        <g>
         <path d="m67.423961,52.633562c0,0 -0.392566,-0.523421 -0.523421,-0.523421l0.785132,-0.785132c0,0 0.523421,0.523421 0.523421,0.523421l-0.785132,0.785132z"/>
        </g>
        <g>
         <path d="m68.339948,53.942114c0,0 -0.392566,-0.523421 -0.392566,-0.523421l0.915987,-0.654276c0,0 0.523421,0.654276 0.392566,0.654276l-0.915987,0.523421z"/>
        </g>
        <g>
         <path d="m68.994224,55.250667c0,0 -0.261711,-0.654276 -0.261711,-0.654276l1.046842,-0.523421c0,0 0.392566,0.654276 0.261711,0.654276l-1.046842,0.523421z"/>
        </g>
        <g>
         <path d="m69.517646,56.820931c0,0 -0.130855,-0.654276 -0.130855,-0.654276l1.177698,-0.261711c0,0 0.261711,0.785132 0.261711,0.785132l-1.308553,0.130855z"/>
        </g>
        <g>
         <polygon points="69.64849853515625,58.39119338989258 69.51763916015625,57.73691940307617 70.69535064697266,57.60609436035156 70.82618713378906,58.39119338989258 "/>
        </g>
       </g>
       <path d="m61.142907,48.184482c-5.626777,0 -10.206712,4.579935 -10.206712,10.206712c0,5.626777 4.579935,10.206712 10.206712,10.206712c5.626777,0 10.206712,-4.579935 10.206712,-10.206712c0,-5.626777 -4.579935,-10.206712 -10.206712,-10.206712zm0,19.628293c-5.234211,0 -9.421581,-4.187369 -9.421581,-9.421581c0,-5.234211 4.187369,-9.421581 9.421581,-9.421581c5.234211,0 9.421581,4.187369 9.421581,9.421581c0,5.234211 -4.318224,9.421581 -9.421581,9.421581z"/>
      </g>
     </g>
    </g>
    <g>
     <path d="m136.122986,43.081126l-4.44908,0l0,-3.140527l12.562107,0l0,3.140527l-4.44908,0l0,13.216384l-3.663948,0l0,-13.216384z"/>
     <path d="m143.974303,54.33468c0,-1.308553 0.915987,-2.22454 2.22454,-2.22454s2.22454,0.915987 2.22454,2.22454c0,1.308553 -0.915987,2.22454 -2.22454,2.22454c-1.308553,0 -2.22454,-0.915987 -2.22454,-2.22454z"/>
     <path d="m163.471741,55.904944c-0.654276,0.392566 -2.22454,0.654276 -4.187369,0.654276c-5.626777,0 -8.505594,-3.533093 -8.505594,-8.243883c0,-5.626777 3.925659,-8.636449 8.898159,-8.636449c1.962829,0 3.402237,0.392566 4.056514,0.785132l-0.785132,2.878816c-0.785132,-0.261711 -1.831974,-0.654276 -3.140527,-0.654276c-2.878816,0 -5.234211,1.831974 -5.234211,5.365067c0,3.271382 1.962829,5.365067 5.234211,5.365067c1.177698,0 2.355395,-0.261711 3.140527,-0.523421l0.523421,3.009672z"/>
     <path d="m165.43457,54.33468c0,-1.308553 0.915987,-2.22454 2.22454,-2.22454s2.22454,0.915987 2.22454,2.22454c0,1.308553 -0.915987,2.22454 -2.22454,2.22454c-1.439408,0 -2.22454,-0.915987 -2.22454,-2.22454z"/>
     <path d="m181.006349,39.940599l0,6.281054l6.150198,0l0,-6.281054l3.663948,0l0,16.356911l-3.663948,0l0,-6.804475l-6.150198,0l0,6.804475l-3.663948,0l0,-16.356911l3.663948,0z"/>
     <path d="m198.148392,52.11014l-1.177698,4.187369l-3.794803,0l4.972501,-16.356911l4.841646,0l5.103356,16.356911l-3.925659,0l-1.308553,-4.187369l-4.71079,0zm4.187369,-2.747961l-1.046842,-3.533093c-0.261711,-0.915987 -0.523421,-2.22454 -0.785132,-3.140527l0,0c-0.261711,0.915987 -0.523421,2.22454 -0.785132,3.140527l-0.915987,3.533093l3.533093,0z"/>
     <path d="m210.187078,54.33468l7.851317,-11.253555l0,-0.130855l-7.066185,0l0,-3.009672l11.907831,0l0,2.093685l-7.589607,11.122699l0,0.130855l7.720462,0l0,3.009672l-12.692963,0l0,-1.962829l-0.130855,0z"/>
     <path d="m229.422805,39.940599l0,16.356911l-3.663948,0l0,-16.356911l3.663948,0zm-3.533093,-2.617106c0,-0.915987 0.785132,-1.701119 1.701119,-1.701119c0.915987,0 1.570263,0.785132 1.570263,1.701119c0,0.915987 -0.654276,1.701119 -1.570263,1.701119c-0.915987,0 -1.701119,-0.785132 -1.701119,-1.701119z"/>
     <path d="m233.217609,56.29751l0,-16.356911l4.318224,0l3.402237,6.019343c0.915987,1.701119 1.962829,3.794803 2.617106,5.626777l0.130855,0c-0.261711,-2.093685 -0.261711,-4.318224 -0.261711,-6.804475l0,-4.841646l3.402237,0l0,16.356911l-3.925659,0l-3.533093,-6.281054c-0.915987,-1.701119 -2.093685,-3.794803 -2.878816,-5.757633l-0.130855,0c0.130855,2.093685 0.130855,4.44908 0.130855,7.197041l0,4.972501l-3.271382,0l0,-0.130855z"/>
     <path d="m260.435508,49.362179l-6.019343,0l0,3.925659l6.67362,0l0,3.009672l-10.468423,0l0,-16.356911l10.075857,0l0,3.009672l-6.411909,0l0,3.402237l6.019343,0l0,3.009672l0.130855,0z"/>
     <path d="m273.651892,56.29751l-5.234211,-16.356911l4.056514,0l1.962829,6.93533c0.523421,1.962829 1.046842,3.794803 1.439408,5.888488l0.130855,0c0.392566,-1.962829 0.915987,-3.925659 1.439408,-5.757633l2.093685,-6.93533l3.925659,0l-5.495922,16.356911l-4.318224,0l0,-0.130855z"/>
     <path d="m295.504725,49.362179l-6.019343,0l0,3.925659l6.67362,0l0,3.009672l-10.468423,0l0,-16.356911l10.075857,0l0,3.009672l-6.281054,0l0,3.402237l6.019343,0l0,3.009672z"/>
     <path d="m146.85312,76.84179c-0.130855,-1.962829 -0.130855,-4.318224 -0.130855,-6.67362l-0.130855,0c-0.523421,2.093685 -1.177698,4.44908 -1.831974,6.281054l-1.962829,6.411909l-2.878816,0l-1.701119,-6.281054c-0.523421,-1.962829 -1.046842,-4.187369 -1.439408,-6.411909l0,0c-0.130855,2.22454 -0.130855,4.71079 -0.261711,6.804475l-0.261711,6.150198l-3.402237,0l1.046842,-16.356911l4.972501,0l1.570263,5.495922c0.523421,1.831974 1.046842,3.925659 1.439408,5.888488l0.130855,0c0.523421,-1.831974 1.046842,-4.056514 1.570263,-5.888488l1.701119,-5.495922l4.841646,0l0.915987,16.356911l-3.663948,0l-0.523421,-6.281054z"/>
     <path d="m157.975819,78.935474l-1.177698,4.187369l-3.794803,0l4.972501,-16.356911l4.841646,0l5.103356,16.356911l-3.925659,0l-1.308553,-4.187369l-4.71079,0zm4.056514,-2.747961l-1.046842,-3.533093c-0.261711,-0.915987 -0.523421,-2.22454 -0.785132,-3.140527l0,0c-0.261711,0.915987 -0.523421,2.22454 -0.785132,3.140527l-0.915987,3.533093l3.533093,0z"/>
     <path d="m170.407071,66.765933l3.663948,0l0,13.216384l6.542764,0l0,3.140527l-10.206712,0l0,-16.356911z"/>
     <path d="m186.763982,66.765933l0,16.356911l-3.663948,0l0,-16.356911l3.663948,0zm-3.533093,-2.617106c0,-0.915987 0.785132,-1.701119 1.701119,-1.701119c0.915987,0 1.570263,0.785132 1.570263,1.701119c0,0.915987 -0.654276,1.701119 -1.570263,1.701119c-0.915987,0 -1.701119,-0.785132 -1.701119,-1.701119z"/>
     <path d="m194.222733,83.122843l0,-6.67362l-5.103356,-9.683291l4.187369,0l1.701119,3.925659c0.523421,1.177698 0.785132,2.093685 1.308553,3.140527l0,0c0.392566,-1.046842 0.785132,-1.962829 1.177698,-3.140527l1.701119,-3.925659l4.187369,0l-5.365067,9.552436l0,6.804475l-3.794803,0z"/>
     <path d="m215.42129,76.187513l-6.019343,0l0,3.925659l6.67362,0l0,3.009672l-10.468423,0l0,-16.356911l10.075857,0l0,3.009672l-6.411909,0l0,3.402237l6.019343,0l0,3.009672l0.130855,0z"/>
     <path d="m224.712015,66.896788c0.915987,-0.130855 2.878816,-0.392566 4.841646,-0.392566c2.22454,0 3.663948,0.261711 4.841646,0.915987c1.177698,0.654276 1.962829,1.701119 1.962829,3.140527c0,1.439408 -0.785132,2.878816 -2.747961,3.533093l0,0c1.831974,0.523421 3.271382,1.962829 3.271382,4.056514c0,1.439408 -0.654276,2.617106 -1.701119,3.533093c-1.177698,0.915987 -3.140527,1.439408 -6.411909,1.439408c-1.831974,0 -3.140527,-0.130855 -4.056514,-0.261711l0,-15.964345zm3.663948,6.281054l1.177698,0c1.962829,0 3.009672,-0.785132 3.009672,-1.962829c0,-1.177698 -0.915987,-1.831974 -2.617106,-1.831974c-0.785132,0 -1.308553,0 -1.570263,0.130855l0,3.663948zm0,7.327896c0.392566,0 0.785132,0 1.439408,0c1.701119,0 3.140527,-0.654276 3.140527,-2.355395c0,-1.701119 -1.439408,-2.355395 -3.271382,-2.355395l-1.308553,0l0,4.71079z"/>
     <path d="m243.424321,78.935474l-1.177698,4.187369l-3.794803,0l4.972501,-16.356911l4.841646,0l5.103356,16.356911l-3.925659,0l-1.308553,-4.187369l-4.71079,0zm4.187369,-2.747961l-1.046842,-3.533093c-0.261711,-0.915987 -0.523421,-2.22454 -0.785132,-3.140527l0,0c-0.261711,0.915987 -0.523421,2.22454 -0.785132,3.140527l-0.915987,3.533093l3.533093,0z"/>
     <path d="m255.855573,66.765933l3.663948,0l0,7.197041l0.130855,0c0.392566,-0.654276 0.785132,-1.177698 1.177698,-1.831974l3.663948,-5.495922l4.579935,0l-5.365067,6.93533l5.757633,9.421581l-4.318224,0l-4.056514,-7.066185l-1.439408,1.701119l0,5.365067l-3.663948,0l0,-16.226055l-0.130855,0z"/>
     <path d="m275.876432,78.935474l-1.177698,4.187369l-3.794803,0l4.972501,-16.356911l4.841646,0l5.103356,16.356911l-3.925659,0l-1.308553,-4.187369l-4.71079,0zm4.056514,-2.747961l-1.046842,-3.533093c-0.261711,-0.915987 -0.523421,-2.22454 -0.785132,-3.140527l0,0c-0.261711,0.915987 -0.523421,2.22454 -0.785132,3.140527l-0.915987,3.533093l3.533093,0z"/>
     <path d="m288.307684,83.122843l0,-16.356911l4.318224,0l3.402237,6.019343c0.915987,1.701119 1.962829,3.794803 2.617106,5.626777l0.130855,0c-0.261711,-2.093685 -0.261711,-4.318224 -0.261711,-6.804475l0,-4.841646l3.402237,0l0,16.356911l-3.925659,0l-3.533093,-6.281054c-0.915987,-1.701119 -2.093685,-3.794803 -2.878816,-5.757633l-0.130855,0c0.130855,2.093685 0.130855,4.44908 0.130855,7.197041l0,4.972501l-3.271382,0l0,-0.130855z"/>
     <path d="m305.711437,66.765933l3.663948,0l0,13.216384l6.542764,0l0,3.140527l-10.206712,0l0,-16.356911z"/>
     <path d="m322.068348,66.765933l0,16.356911l-3.663948,0l0,-16.356911l3.663948,0z"/>
     <path d="m339.472101,82.337712c-1.177698,0.392566 -3.271382,0.915987 -5.495922,0.915987c-3.009672,0 -5.103356,-0.785132 -6.67362,-2.22454c-1.439408,-1.439408 -2.355395,-3.533093 -2.355395,-5.888488c0,-5.495922 3.925659,-8.505594 9.290725,-8.505594c2.093685,0 3.794803,0.392566 4.579935,0.785132l-0.785132,3.009672c-0.915987,-0.392566 -1.962829,-0.654276 -3.794803,-0.654276c-3.140527,0 -5.365067,1.701119 -5.365067,5.234211c0,3.402237 2.093685,5.365067 5.103356,5.365067c0.785132,0 1.570263,-0.130855 1.831974,-0.261711l0,-3.402237l-2.48625,0l0,-2.878816l6.150198,0l0,8.505594zm-7.458751,-19.628293c0.130855,0.523421 0.392566,1.177698 1.439408,1.177698c1.046842,0 1.439408,-0.523421 1.570263,-1.177698l1.831974,0c0,1.831974 -1.046842,3.009672 -3.402237,3.009672c-2.355395,0 -3.402237,-1.308553 -3.402237,-3.009672l1.962829,0z"/>
     <path d="m346.799997,66.765933l0,16.356911l-3.663948,0l0,-16.356911l3.663948,0z"/>
    </g>
   </g>
  </g>
 </g>
</svg>